<?xml version="1.0" encoding="UTF-8" standalone="no"?>
<svg
   xmlns:dc="http://purl.org/dc/elements/1.1/"
   xmlns:cc="http://creativecommons.org/ns#"
   xmlns:rdf="http://www.w3.org/1999/02/22-rdf-syntax-ns#"
   xmlns:svg="http://www.w3.org/2000/svg"
   xmlns="http://www.w3.org/2000/svg"
   xmlns:sodipodi="http://sodipodi.sourceforge.net/DTD/sodipodi-0.dtd"
   xmlns:inkscape="http://www.inkscape.org/namespaces/inkscape"
   id="svg2"
   version="1.1"
   inkscape:version="0.91 r13725"
   sodipodi:docname="bq.svg">
  <metadata
     id="metadata12">
    <rdf:RDF>
      <cc:Work
         rdf:about="">
        <dc:format>image/svg+xml</dc:format>
        <dc:type
           rdf:resource="http://purl.org/dc/dcmitype/StillImage" />
      </cc:Work>
    </rdf:RDF>
  </metadata>
  <defs
     id="defs10" />
  <sodipodi:namedview
     pagecolor="#ffffff"
     bordercolor="#666666"
     borderopacity="1"
     objecttolerance="10"
     gridtolerance="10"
     guidetolerance="10"
     inkscape:pageopacity="0"
     inkscape:pageshadow="2"
     inkscape:window-width="700"
     inkscape:window-height="480"
     id="namedview8"
     showgrid="false"
     inkscape:zoom="2.36"
     inkscape:cx="50"
     inkscape:cy="50"
     inkscape:window-x="0"
     inkscape:window-y="0"
     inkscape:window-maximized="0"
     inkscape:current-layer="svg2" />
  <g
     id="g4"
     style="fill:#515f67;opacity:0.99999999;fill-opacity:1">
    <path
       d="M0,21.7C2.9,17.8,4.3,15,4.3,13c0-0.6-0.3-1.5-1-2.8c-0.7-1.3-1-2.6-1-3.8c0-1.9,0.6-3.5,1.8-4.6C5.2,0.6,6.7,0,8.5,0                   s3.3,0.6,4.4,1.7s1.6,2.8,1.6,4.9c0,5.4-3.3,11.6-9.9,18.8L0,21.7z M16.8,21.7c2.9-3.8,4.3-6.7,4.3-8.6c0-0.6-0.3-1.5-1-2.8                   c-0.7-1.3-1-2.6-1-3.8c0-1.9,0.6-3.5,1.8-4.6C21.9,0.6,23.4,0,25.2,0c1.8,0,3.3,0.6,4.4,1.7c1.1,1.2,1.7,2.8,1.7,4.9                   c0,5.4-3.3,11.7-9.9,18.8L16.8,21.7z"
       id="path6"
       style="fill:#515f67;fill-opacity:1" />
  </g>
</svg>
