<?xml version="1.0" encoding="UTF-8" standalone="no"?>
<!-- Generator: Adobe Illustrator 16.0.0, SVG Export Plug-In . SVG Version: 6.00 Build 0)  -->

<svg
   xmlns:dc="http://purl.org/dc/elements/1.1/"
   xmlns:cc="http://creativecommons.org/ns#"
   xmlns:rdf="http://www.w3.org/1999/02/22-rdf-syntax-ns#"
   xmlns:svg="http://www.w3.org/2000/svg"
   xmlns="http://www.w3.org/2000/svg"
   xmlns:sodipodi="http://sodipodi.sourceforge.net/DTD/sodipodi-0.dtd"
   xmlns:inkscape="http://www.inkscape.org/namespaces/inkscape"
   version="1.1"
   id="Capa_1"
   x="0px"
   y="0px"
   width="512px"
   height="512px"
   viewBox="0 0 418.06 418.059"
   style="enable-background:new 0 0 418.06 418.059;"
   xml:space="preserve"
   inkscape:version="0.91 r13725"
   sodipodi:docname="arrows.svg"><metadata
     id="metadata4756"><rdf:RDF><cc:Work
         rdf:about=""><dc:format>image/svg+xml</dc:format><dc:type
           rdf:resource="http://purl.org/dc/dcmitype/StillImage" /></cc:Work></rdf:RDF></metadata><defs
     id="defs4754" /><sodipodi:namedview
     pagecolor="#ffffff"
     bordercolor="#666666"
     borderopacity="1"
     objecttolerance="10"
     gridtolerance="10"
     guidetolerance="10"
     inkscape:pageopacity="0"
     inkscape:pageshadow="2"
     inkscape:window-width="640"
     inkscape:window-height="480"
     id="namedview4752"
     showgrid="false"
     inkscape:zoom="0.54196167"
     inkscape:cx="47299.099"
     inkscape:cy="-3220.43"
     inkscape:window-x="-11"
     inkscape:window-y="0"
     inkscape:window-maximized="0"
     inkscape:current-layer="Capa_1" /><g
     id="g4712"
     transform="translate(38457.658,2845.9812)"
     style="fill:#c8b7b7"><g
       id="g4714"
       style="fill:#c8b7b7"><path
         d="M 367.348,234.786 C 322.672,183.377 252.904,202.961 197.212,221.321 164.776,231.725 131.728,243.966 96.844,244.578 52.78,245.189 25.852,212.141 7.492,176.033 c -1.836,-3.672 -8.568,-1.224 -7.344,3.06 25.704,67.932 77.724,88.741 145.656,72.216 70.379,-17.136 148.715,-65.484 212.364,-7.956 6.119,6.12 14.687,-2.448 9.18,-8.567 z"
         id="path4716"
         inkscape:connector-curvature="0"
         style="fill:#c8b7b7" /><path
         d="m 383.871,201.737 c -46.512,-56.916 -114.443,-44.676 -177.479,-24.48 -33.66,11.016 -67.32,24.48 -103.428,26.928 -41.004,3.06 -67.32,-21.42 -83.844,-56.916 -1.836,-4.284 -9.792,-1.224 -7.956,3.06 62.424,170.749 264.995,-58.752 362.304,60.589 6.731,7.343 15.912,-2.449 10.403,-9.181 z"
         id="path4718"
         inkscape:connector-curvature="0"
         style="fill:#c8b7b7" /><path
         d="m 388.155,156.449 c -5.508,-6.12 -15.3,1.836 -11.016,8.568 13.464,20.808 39.78,52.021 17.136,75.888 -18.359,19.584 -55.691,20.809 -80.784,21.421 -6.731,0 -6.731,10.403 0,10.403 31.212,0.612 74.053,0 95.473,-26.315 22.643,-27.54 -1.836,-68.545 -20.809,-89.965 z"
         id="path4720"
         inkscape:connector-curvature="0"
         style="fill:#c8b7b7" /></g></g><g
     id="g4722" /><g
     id="g4724" /><g
     id="g4726" /><g
     id="g4728" /><g
     id="g4730" /><g
     id="g4732" /><g
     id="g4734" /><g
     id="g4736" /><g
     id="g4738" /><g
     id="g4740" /><g
     id="g4742" /><g
     id="g4744" /><g
     id="g4746" /><g
     id="g4748" /><g
     id="g4750" /></svg>