<?xml version="1.0" encoding="utf-8"?>
<!-- Generator: Adobe Illustrator 19.0.1, SVG Export Plug-In . SVG Version: 6.00 Build 0)  -->
<svg version="1.1" id="Слой_1" xmlns="http://www.w3.org/2000/svg" xmlns:xlink="http://www.w3.org/1999/xlink" x="0px" y="0px"
	 viewBox="0 0 595.3 841.9" style="enable-background:new 0 0 595.3 841.9;" xml:space="preserve">
<style type="text/css">
	.st0{fill:#5a2917;}
</style>
<g>
	<path class="st0" d="M259.2,89.6c-0.5,1.6-0.5,3.8,1,4.5c2.3,1.1,4.2-2.7,6.7-3c3-0.4,4.9,4.2,7.9,4c1.8-0.1,3-2,3.2-3.8
		c0.2-1.8-0.5-3.6-1.2-5.3c4.1-0.1,8.2,0.4,12.2,1.5c-4.9-3.5-10.3-6.3-16-8.3c0,2.7,0.7,5.5,2,7.8c0.3,0.6,0.7,1.2,0.8,1.9
		c0.1,0.7-0.4,1.5-1.1,1.5c-0.3,0-0.7-0.2-0.9-0.4c-1.9-1.6-2.6-4.8-5-5.2c-2.8-0.5-4.5,3.5-7.2,4.4c2-3.4,2.8-6.3,0.9-9.8
		c-4.4,3.9-11.6,4.4-15.5,9.2c4.3-1.4,8.7-2.7,13-4.1C260.6,86.3,259.7,88,259.2,89.6z"/>
	<path class="st0" d="M246.5,89.4c0.2-0.2,0.4-0.4,0.5-0.6c-0.6,0.2-1.1,0.3-1.7,0.5L246.5,89.4z"/>
	<path class="st0" d="M277.5,104.3c-2.2-2.2-4.7-4-7.4-5.4c-0.7,0.5-1.6,0.1-2.5,0c-3.2-0.4-5.5,4.4-8.7,3.8l0.8,0.9
		c-0.2,0.8,0.5,1.5,1.3,1.6c0.8,0.1,1.5-0.3,2.2-0.7c2.7-1.4,5.9-2.4,8.8-1.4C273.8,103.8,275.8,105.2,277.5,104.3z"/>
	<path class="st0" d="M264.7,105.3l0-0.2c-0.8,0.6-1,2-0.3,2.8c0.7,0.8,1.9,0.8,2.9,0.8c1.3,0,2.6,0,3.7-0.6c1.1-0.6,2-1.9,1.7-3.2
		C270.2,106.2,267.3,106.3,264.7,105.3z"/>
	<path class="st0" d="M258.8,66.4c-7.3,1.7-13.5,7.4-15.9,14.7l-0.2-1.2c0,1.5,0,2.9,0,4.4C246,76.8,251.7,70.4,258.8,66.4z"/>
	<path class="st0" d="M288.2,75.3c-5.8-2.5-10.8-3.8-16.2-0.2c9,0.5,18,3.3,25.7,8.1C295.6,79.6,292.1,77,288.2,75.3z"/>
	<path class="st0" d="M267.6,272.6c1.2,2.5,2.7,4.9,4.6,6.8c1.7,1.7,3.7,3,5.7,4.3c6.4,4.1,12.8,8.2,19.2,12.2
		c5.7,3.6,11.9,7.4,18.5,6.6c-13-5.6-22.1-17.6-33.3-26.4c-6.2-4.9-12.7-9.8-18.9-14.6C263.9,265.3,265.8,269.1,267.6,272.6z"/>
	<path class="st0" d="M301.4,340.2c6.8-6.7,14-13.6,17.6-22.6c-9,7.1-20,11.4-31.3,12.1l1.1-1.2c-2,0.1-3.9,0.3-5.9,0.4
		c1.2,3.8,4.5,6.8,8.3,7.7c3.8,0.9,8-0.5,10.7-3.4c-7.6,14.6-21.9,24.4-30.1,38.6C281.3,360.8,291.1,350.3,301.4,340.2z"/>
	<path class="st0" d="M228.3,395.2c5.9,7.4,13.8,13.5,22.9,15.4c-16.4-16.5-28.1-37.9-33.3-60.9c-7.4,9.6-12.3,21.3-14.1,33.5
		c0.4-0.8,0.7-1.5,1.1-2.3l-0.2-0.8c3.2-3.2,6.3-6.4,9.5-9.6C218.3,379.2,222.4,387.8,228.3,395.2z"/>
	<path class="st0" d="M322,332.8c-0.6,0-1.2-0.1-1.7-0.1l-1.1,0.9c-6.4,11-13.5,21.6-21.2,31.7c4.7-3.6,9.2-7.5,13.4-11.7
		C317,347.9,322.3,340.9,322,332.8z"/>
	<path class="st0" d="M328.8,359.2c1.1-2.2,1.6-4.2,0.3-6.2c-6.1,3.5-10.8,16.2-15.5,21.9C320,371.5,325.4,365.9,328.8,359.2z"/>
	<path class="st0" d="M329.2,454.3c-1.6,3.4-3.1,6.5-4.3,10c-3,8.6-6,17.3-8.9,25.9c-7.1,20.5-14.2,41-23.2,60.7
		c-4.9,10.6-10.3,21-14.1,32c-2.9,8.4-4.9,17.1-5.9,26c11.6-18.3,33.9-26.5,46.7-43.8c-7.5,2.3-15.2,3.9-23,4.8
		c14.5-34.1,25.4-69.7,32.6-106.2C329.8,460.4,330,457.5,329.2,454.3z"/>
	<path class="st0" d="M237.5,565.9c-3.2,1-6.7,0.8-9.8,2.1c-4.3,1.8-7.3,6.1-8.8,10.6c-1.5,4.6-1.6,9.5-1.7,14.3
		c-0.3,11.6-0.6,23.3-0.8,34.9c-0.1,2.7-0.9,5.4-0.4,8c6.6-11,13.1-22.1,19.7-33.1c3.1-5.3,6.3-10.5,8.4-16.3
		c3.4-9.1,4.2-19.1,8.5-27.7c-0.7-10,0.3-20.2,4.4-29.4c7.3-16.1,21.2-28.2,28.4-44.3c3.7-8.4,5.5-17.5,8-26.4
		c3.7-13.3,8.9-26.1,15.6-38l0.7-4.5c-5.7,8.5-10.4,17.7-15.8,26.4c-17.2,28.2-41,51.8-56.5,81c-2,3.8-3.9,7.9-4.1,12.3
		c-0.2,6.7,3.8,12.8,7.8,18.1c1.1,1.5,2.3,3,2.5,4.9C244,562.1,240.8,564.9,237.5,565.9z"/>
	<path class="st0" d="M314.5,450.1c-9,7.1-14.5,17.8-19.7,28.1c-3.9,7.6-7.7,15.3-11.6,22.9c-6.7,13.2-13.4,26.6-17.5,40.9
		c-2.6,9.1-4.1,18.4-5.7,27.8c-1.2,7.5-2.5,15-3.7,22.6c13.6-21.9,25.4-44.9,35.2-68.9c-6.9,10-13.9,19.9-21.3,29.5
		c13.3-33.7,27.7-67,43.1-99.7L314.5,450.1z"/>
	<path class="st0" d="M214.5,722c22.5-53.4,44.9-106.7,67.4-160.1c-4.1,2.1-7.5,5.8-9.3,10.2l0.6-0.8
		c-21.7,28.3-40.3,59.2-55.3,91.8c-4.5,9.9-8.8,20.2-9,31.1C208.6,703.8,211.6,713,214.5,722z"/>
	<path class="st0" d="M329.6,643.5c2-14.6,4.2-29.3,2.5-43.9c-0.1-1.1-0.4-2.4-1.3-2.9c-0.7-0.4-1.6-0.2-2.4,0.2
		c-2.4,1.1-4,3.7-4.1,6.5c-0.9,27-5.8,53.9-14.6,79.3c-4.6,13.4-10.4,26.5-14.1,40.2c-3.7,13.7-5.4,28.5-1.7,42.2
		c0.8,3,0.6,6.7,1.5,9.6c0.6-24.2,11.9-47.3,17-71c2.2-10.2,3.2-20.6,5.7-30.7c4.7,34.1,5.3,68.8,1.8,103.1
		c5.8-25.3,8.7-51.3,8.7-77.3C328.6,680.4,327.1,661.8,329.6,643.5z"/>
	<path class="st0" d="M228.6,177.8c-0.3,0.5-0.3,1.1-0.3,1.6c-0.1,9.5-0.2,19.1-0.2,28.6c0,5.6,0.1,11.8,3.7,16.1
		c2.2,2.5,5.2,3.9,8.1,5.5c10.1,5.7,18.1,14.7,25.9,23.5c-1-11.5-8-22.3-18-27.5c-4.4-2.3-9.4-3.7-12.5-7.6
		c-3.7-4.6-3.6-11.1-3.4-17C231.8,199,231.9,172.9,228.6,177.8z"/>
	<path class="st0" d="M280.9,225.5l0.5-0.1c-6.4,2.7-11.3,9-12.1,16.1c2.7-0.6,4.2-3.4,6-5.5c4.9-6,12.6-8.5,19.9-10.7
		C291,222.3,285,222.4,280.9,225.5z"/>
	<path class="st0" d="M275.5,246.1l-0.9-0.1c-3.7,2-5.9,6.8-5,11c3.6-3.1,6.6-6.9,8.7-11.2C277.5,245.1,276.2,245.2,275.5,246.1z"/>
	<path class="st0" d="M271.4,207.3c-8.8-0.2-17.5-1.5-26-3.8c-1.1,0.7-3.3,0.4-3.8,1.8c-0.4,1.1,0.8,2.1,1.9,2.6
		c12.4,5.7,26.8,1.8,40.1,4.2c6.1,1.1,11.9,3.5,17.6,5.9c6.8,2.8,13.6,5.7,20.5,8.5c-8.9-10.7-22-17.6-35.7-18.9
		C281.2,207.1,276.3,207.4,271.4,207.3z"/>
	<path class="st0" d="M246.1,202.7l-1.1,0.7c0.2,0.1,0.4,0.1,0.5,0.1C245.7,203.3,246,203,246.1,202.7z"/>
	<path class="st0" d="M544.5,218.4l-35.2-101.3c5.5-2.9,8.6-5.4,8.1-6.8c-0.4-1.5-4.4-1.7-10.8-0.8l0-0.1v0.1
		c-7.5,1-18.3,3.5-30.3,7.1c4.5-10.5,9.4-22.2,9.4-33.9c0.7-1,1.7-1.7,2.9-2c0.6-0.2,1.3-0.2,2.1-0.3c1.7-0.2,3.6-0.4,4.9-1.8
		c0.6-0.7,1-1.6,1.3-2.3c2-5.2,4.5-11.6,3.4-18c-0.3-1.8-0.9-3.3-1.6-4.5c-2-3-5.3-4.5-8.7-5.5c-2.4-0.8-5.1-1.5-8-1.2
		c-4.9,0.6-7.3,3.8-9.8,7.2c-0.6,0.8-1.2,1.6-1.8,2.4c-4.5,5.6-5.7,12.9-6.8,19.9c-0.5,2.8-0.9,5.8-1.6,8.5
		c-2,7.9-5.9,15.1-9.7,22.1c-1.5,2.7-2.7,5.6-3.8,8.5c-1.9,4.7-3.9,9.6-7.1,13.2c-0.2,0.3-0.5,0.6-0.7,0.9c-9,4.1-14.3,7.7-13.8,9.6
		c0.3,1.1,2.9,1.5,7,1.2c-0.7,1.4-1.2,2.9-1.7,4.4c-0.5,1.5-0.8,3-1,4.4c-0.5,2.9-0.9,5.2-3.1,6.6c-15.4,9.6-33.8,14.8-51.8,14.5
		l-4.5,0c-3.9,0-8-0.1-11.8-0.2c-5.2-0.2-10.4,0.1-15.6,0.9l-0.8,0.1c-2.4,0.4-4.6,0.7-6.8,0.2c-1.7-0.4-4.3-1.2-7.2-2.3
		c-2.6-8.9-8-25.2-14-30.9c-2.9-2.8-6.5-4.8-9.5-7.6c-3-2.8-4.4-7.3-4-11.5c3,3.8,6,7.7,8.9,11.5c0.3,0.4,0.6,0.7,1,0.9
		c1.3,0.5,2.4-1.3,2.4-2.8c0.1-4.1-2.4-7.8-5.2-10.7c-2.9-2.9-6.2-5.3-8.5-8.6c-0.7-1-0.9-2.8,0.2-2.9c0.4,0,0.7,0.1,1,0.3
		c2.8,1.6,5.3,3.6,7.6,5.8c1,1,2,2,3.2,2.5c1.3,0.5,3,0.1,3.5-1.2c0.8-1.7-0.9-3.5-2.3-4.7c-1.6-1.2-3.1-2.5-4.7-3.7
		c0.1-6.3-0.6-12.6-1.9-18.7c-0.1-8.1-0.9-16.1-3.8-23.5c-4.1-10.6-13.6-19.9-24.7-19.9c-10.7,0-22.8-0.3-32.4,5.6
		c-6.1,3.7-11.7,8.6-14.5,15.3c-4.7,11.1-0.7,24-2.5,35.9c0.3-1.2,0.6-2.5,1-3.7c0,4.8-0.2,9.6-0.6,14.3c-1.2,4.1-2.9,7.8-6.2,10.3
		c-0.6,0.5-1.3,0.9-1.6,1.6c-1,2,2,4.1,4,3.2s2.9-3.3,3.6-5.5c2.1,2.5,1,6.5-1,9c-2.1,2.5-4.9,4.2-7,6.7c-2.1,2.5-3.1,6.5-1,9
		c6.5-0.6,6.7-12.2,13-13.9c-3.6,3.3-2.1,9.7-4.5,14c-1.8,3.2-5.8,6-4.7,9.5c0.7,2.4,3.9,3.4,6.1,2.4c2.3-1,3.6-3.4,4.2-5.9
		c0.6-2.5,0.5-5,0.6-7.6c0.2-3.5,0.9-7,2.1-10.3c0,0.1,0,0.3,0,0.4c0.4,2.8,1.4,5.5,1.8,8.2c1.7,10.3-4.3,20.1-9.9,28.8
		c-0.1,0.1-0.2,0.3-0.3,0.4c-5.5,6.2-13.1,10.3-20.4,14.3c-8.7,4.7-17.6,9.6-23.5,18c-5.8,8.3-7.5,18.9-9,28.2
		c-0.7,4.3-1.4,8.6-2.2,12.8c-1.7,9.9-3.5,20.2-4.5,30.6c-1,10.8-4.8,21.1-8.5,31.1c-2.8,7.5-5.6,15.2-7.3,23.2
		c-0.5,2.3-1.6,4.4-2.8,6.7l-0.7,1.3c-7.6,14.9-9.7,32-11.7,48.5c-0.4,3.6-0.9,7.1-1.4,10.7c-0.5,4-1.3,8.1-2.7,11.9
		c0.5-1.2,0.7-2.5,0.7-3.8c0-6.2-4.9-11.2-10.9-11.2c-5.5,0-10,4.2-10.7,9.6c-0.5,1.6-0.4,3.4,0.3,4.9c0.1,0.1,0.2,0.2,0.2,0.4
		c1,2.8,3,5.2,5.8,6.5l4.5,9.7c-4.5,7.5-6.3,16.6-5.2,25.3c-0.4,2.1,0.6,4.6,1.6,6.6c3.4,6.5,6.8,12.9,10.2,19.4
		c0.3,0.6,0.8,1.2,1.3,1.7l-21.2,4.4c-2.1-2.9-5.4-4.7-9-4.7c-6.2,0-11.3,5.2-11.3,11.6c0,6.4,5.1,11.6,11.3,11.6
		c5.6,0,9.4-2.6,10.5-7.3c8.8-1.6,18-3.5,21.1-4.2l61.7,256l20.9,31.2h-42.8v32.8h-25.8v32.8h246.5v-32.8h-25.8v-32.8h-31.7l0-0.4
		l-0.2,0c0.1-5.6,0.8-11.3,1.4-16.9c0.8-6.7,1.6-13.6,1.4-20.3c-1.6-43.3-3.4-92.5,12.6-135.9l-1.1-0.4
		c5.6-11.1,12.2-21.6,19.8-31.3c-3.2-2.3-7.6,0.7-9.9,3.9c-2.3,3.2-4.6,7.3-8.5,7.9c-4.8,0.7-8.8-4.4-13.7-4.6
		c-4.1-0.2-7.8,3.1-11.9,2.6c-2.6-0.3-5.1-2.3-7.7-1.8c-2.2,0.4-3.8,2.4-4.5,4.5c1.7,0.3,4.4,1.1,5.4,2.8c1.2,1.9,1.2,4.3,0.8,6.5
		c-0.1,0.6-0.2,1.2,0.1,1.8c0.5,0.8,1.6,0.8,2.6,0.7c3.1-0.5,6.2-1,9.3-1.5c2.6-0.4,5.3-0.9,7.8-0.1c2.5,0.7,4.8,3,4.8,5.7
		c0,1.4-0.7,2.7-0.9,4.1c-0.2,1.4,0.2,3.1,1.4,3.6c0.9,0.4,1.8,0,2.5-0.7c-14.5,42.8-12.8,90.3-11.3,132.5
		c0.2,6.5-0.6,13.3-1.4,19.9c-0.7,5.8-1.4,11.8-1.4,17.6h-14.3h-91.1c1.9-2.1,3.1-4.8,4.2-7.5c3.6-9.1,6-18.7,10.5-27.2
		c3.9-7.4,9.3-13.8,13.9-20.6c6.1-8.9,10.9-18.7,14.5-29c-0.1,12.6,0.7,25.2,2.3,37.7c0.7,5.2,1.7,10.7,5.3,14.3
		c3.6-46.1,10.8-91.8,21.5-136.7c0.9-3.8,1.6-8.5-1.4-11c-3-2.5-7.5-0.6-10.7,1.7c-17,12.3-25,33.6-32.1,53.6
		c-8,22.4-16,44.9-24,67.3c-4,11.2-7.7,22.6-12,33.7c-0.7,1.9-1.4,3.5-2,5.2l-2-22.3l-23.7-90.2c-1-17.9-1.5-35.9-1.7-53.8
		c-0.1-11.7-0.1-24.6,0-37.9c0.6,2.7,2.1,5.2,3.5,7.6c3.6,5.9,7.1,11.7,10.7,17.6c-0.3-14.1-0.4-29.1,6.3-41.4
		c3.7-6.8,9.2-12.2,14.1-18.1c13.4-15.7,23.3-34.3,36.1-50.7c8.9-11.4,19.2-21.7,27.7-33.5c8.5-11.8,15.3-25.6,15.6-40.2
		c0.1-2,0.8-2.7,1.2-4.6c-36.4,48.6-72.7,97.2-109.1,145.8c-2.5,3.4-5.1,7.1-6.2,11.1c0.1-6.4,0.3-12.8,0.5-19.2
		c0.2-4.8,0.6-9.6,1-14.3c5.2-22.3,5-48.4,7.5-70.4c1.5,18.3,5.1,36.5,10.6,54c-3.4-25.9-3.7-52.2-1-78.1
		c9,11.1,23.5,18.4,37.1,14.8c11.8-3.2,20.1-13.6,27.7-23.5c-9.2,11.6-24.7,17.6-39.1,15.1c-6.8-1.2-13.3-4.3-18.7-8.8
		c-2.6-2.1-4.9-4.5-7-7.2c-1.6-2.1-3.3-7.3-5.1-8.7c-1.2-0.9-2.3-1-3.2-0.6c-0.2-12.6,3-25.1,6.5-36.7l1.3-4.2
		c1.7-5.6,3.5-11.3,4.8-17.1c2.1-9.5,2.9-19.1,3.2-28.8c3.7,12.5,4.4,26,8.7,38.3c4.7,13.5,13.4,25,22,36.3
		c-13.8-32.6-22.9-67.2-26.9-102.5c5.4,9.4,11,19,18.7,26.6s18.1,12.9,28.7,12c-13.9-2.1-23.4-15.6-28.6-29.1
		c-5.2-13.5-7.8-28.2-16-40l-0.1-0.8c-0.7,0.2-1.4,0.6-1.9,1.1c-0.7,0.7-1,1.6-1.4,2.5c-2.5,5.9-5,11.9-7.4,17.8
		c-0.5,1.3-1.1,2.6-1.6,3.9c-0.4-1.9-0.8-3.7-1-5.5c-0.1-0.6-0.2-1.5-0.8-2.2c-0.4-0.4-0.8-0.6-1.2-0.7c0,0,0,0,0,0
		c3.6-4.9,2.1-11.9,0.3-17.8c-1.4-4.4-2.8-9.3-2.2-13.7c-5.4,16.5-10.7,32.9-16.1,49.4c-1.5,4.5-2.9,9-4,13.6
		c-2.2,10-2.4,20.6-6.4,30.1l0.6,0.2c-0.6,1-1.2,2-1.7,3c-1.2,2.5-1.1,5-0.9,7.5c0.1,1.2,0.2,2.5,0.1,3.7
		c-1.4,17.1-10,32.4-20.4,49.1c-0.5,0.8-1,1.5-1.4,2.3c-1.7,2.7-3.5,5.6-4.9,8.6c-3.7,7.7-4.3,19.3-4,29.8
		c-3.4-1.4-9.7,9.3-12.3,11.6c-2.4,2.1-5.5,3.4-7.8,5.6l-3.1,1.3l0.7,1.7c-0.2,0.2-0.5,0.3-0.7,0.4c-0.9,0.1-1.4-1-1.7-1.8
		c-0.5-1.6-1.1-3.1-1.6-4.7l0.1,0c-1.5-8.8,0.4-18.2,5-25.8l2.4-3.4c0.4-0.6,0.9-1.2,1.3-1.8c1.9-2.6,3.9-5.2,5.3-8.2
		c2.3-4.7,3.1-9.9,3.8-14.9c0.5-3.5,0.9-7.1,1.4-10.7c2-16.3,4-33.2,11.5-47.7l0.7-1.3c1.2-2.3,2.4-4.6,3-7.3
		c1.7-7.8,4.5-15.4,7.2-22.8c3.7-10.1,7.6-20.6,8.7-31.7c1-10.3,2.8-20.5,4.5-30.4c0.7-4.3,1.5-8.5,2.2-12.8
		c1.5-9,3.1-19.3,8.6-27.2c5.5-7.9,13.8-12.5,22.7-17.3c5-2.7,10.1-5.5,14.6-9c12.9-3.8,22.7-16.9,23-30.7c2.4,1.3,4.9,2.5,7.3,3.8
		c-3.9-5-6.9-10.6-9-16.6c-0.4-1.3-0.8-4.7-1.6-7.3c3.1,0,6.3-0.1,9.4-0.1c-5-2.8-10.3-6.1-12.4-11.5c-1-2.8-1.1-5.9-0.7-8.8
		c0.7-6.7,3.1-13.2,6.9-18.7c-8.1,8.7-12.6,20.9-12.1,33l-1.4-1.4c-2.4-11.6-0.3-24.1,5.6-34.2c-3.7,2.7-5.5,7-6.6,11.7
		c0-2.2,0-4.5-0.1-6.7l-0.1,0c2.7-6.9,6.2-13.5,9.7-20c3.2-5.9,6.5-11.8,11.5-16.1c5-4.2,12.3-6.4,18.2-3.6c0.4-1.6,2.3-2.5,3.9-2.4
		c1.6,0.1,3.1,1,4.5,1.8c2.6,1.5,5.2,3.1,7.1,5.5c1.6,2,2.5,4.4,3.7,6.7c2.9,5.8,7.3,10.6,10.9,16c1.3,2,2.5,4.1,3.5,6.3l-0.5,0.1
		c1.3,5.4,2.1,10.9,2.3,16.5l-1.1,0.7c0.1,0.2,0.2,0.3,0.2,0.5c-4.4-3.4-8.8-6.9-13.2-10.3c2.2,1.8,3.8,4.5,3.8,7.4
		c0,2.9-2.2,5.8-5,5.9c-0.4,3.1,0.2,6.3,0.1,9.5c-0.1,3.2-1.2,6.6-3.9,8.1c-2.4,1.3-5.3,0.7-7.7-0.5c-2.4-1.2-4.5-2.9-7-3.9
		c-3.3-1.4-7.1-1.5-10.5-0.2c-2.5,0.9-4.9,2.9-5.1,5.6c-0.1,2.3,0.8,5.4-1.2,6.1c2.9,0.7,4.9,3.9,5.9,6.7c0.9,2.9,0.9,6,1.1,9
		c0.6,8,2.8,15.9,6.4,23c2.6-11.1,6.7-21.8,11.9-31.8c0.6-1.1,1.2-2.3,2.2-3.1c1.8-1.6,5.1-2.2,7-0.7c-1.4,5.8-1.3,12,0.1,17.8
		c0.4,1.4,0.8,2.9,2,3.8c1.1,0.9,2.6,1,4,1.1c3.5,0.2,7,0.2,10.4,0c-1.3-2.9-4.9-3.8-7-6c-1.8-1.9-2.5-4.7-3-7.4
		c-0.8-3.9-1.6-8-0.2-11.7c1.3,3.7,5.7,5.1,8.3,7.9c3.2,3.4,3.6,8.6,6.5,12.2c1,1.3,1.6,7,2.6,10.1c-3.1-1.9-5.5-3.9-6.2-5.6
		l-2.1,0.9c2.9,6.7,23.4,15,29.9,16.4c2.6,0.5,5.1,0.2,7.6-0.2l0.8-0.1c5-0.7,10.1-1.1,15.2-0.9c3.8,0.1,7.9,0.2,11.8,0.2l4.5,0
		c18.6,0.2,37-4.9,53-14.8c3.1-1.9,3.7-5.1,4.2-8.1c0.2-1.3,0.5-2.7,0.9-4c0.6-1.9,1.4-3.7,2.3-5.4c7.4-0.9,18.5-3.4,31-7.1
		c-2.5,7.1-4.6,14.3-6.7,21.3c-1.6,5.4-3.3,11-5.1,16.5c-0.4,1.3-0.9,2.6-1.4,3.9l-14.7-34.4l-0.8,0.4l-1.3-0.2l-12.4,51
		c-2.4,0.7-4.7,1.3-7,2c2.8-2.4,4.7-6.2,4-9.8c-20.5,8.6-41.6,15.8-63.1,21.6c-4.5,1.2-10.1,2-12.9-1.8c0.7-4.6,1.4-9.2,2-13.9
		c-6,4-12.4,8.5-14.6,15.5c-2.4,7.5,0.7,15.5,1.2,23.3c0,3.9-0.4,7.8-0.9,11.6c-0.2,0.5-0.5,0.9-0.7,1.4c-1.4,3.3-2.1,6.8-2.8,10.4
		c-2.1,10.5-3.8,21.2-5.2,31.8c0,0.3-0.1,0.7-0.1,1c-1-3.3-2.8-6.5-4.8-9.4c-3.2-4.9-6.9-9.6-8.3-15.3c-0.2-0.7-0.3-1.4-0.1-2
		c0.3-0.9,1.2-1.5,1.9-2.1c4.1-3.5,3.2-10.2,1.8-15.6c-4,2.9-8.9,4.3-13.7,4.2c-5.2-0.2-10.9-2.1-15.2,1c-3.7,2.6-4.5,7.8-4.9,12.4
		c-0.3,3.8-0.4,8,1.7,11.2c1,1.5,2.5,2.7,4,3.8c3.2,2.5,21.9,20.1,25.2,18.6c2.3-1-5.5-24.7-5.9-29c6.5,8.5,12.4,17.5,17.7,26.8
		c-0.7,6.8-1.2,13.7-1.5,20.3c-2.7-1.8-6.2-2-9.5-2.3c-12.6-1.2-24.5-6.2-36.2-11.2c-2.2-0.9-4.4-1.9-6.3-3.4
		c-2.4-1.9-4-4.7-5.6-7.3c-6.9-11.1-14.9-21.3-23-31.5c-3.8-4.8-8-9.9-13.7-11.6c6.3,10.6,14.4,20.3,18.9,31.8
		c3.3,8.4,7.1,16.6,11.3,24.6c1.7,3.2,3.6,6.5,6.2,8.9c5.6,5.2,13.8,5.9,21.3,6.4c12.2,0.8,24.8,1.5,36.4-2.5
		c-0.3,7.9-0.4,15.2-0.5,21.2c0,3.9,1.5,6.7,3.2,9.7c0.3,0.6,0.7,1.3,1,1.9c8.3,16,15.8,31.8,15.6,48.7c0,4.7,0.8,8.9,1.7,13.3
		c0.4,2,0.8,4,1.2,6c-1.4,42.1-2.7,85.6-3.5,127.6c-0.3-14.2-1.8-28.3-4-42.3c-1.8,14.8-3.6,29.6-5.4,44.4
		c-1.5,12.7-3.1,25.6-7.7,37.5c3.9-3.7,8.7-6.3,13.8-7.7c2.5-0.7,5.5-0.9,7.5,0.9c1.5,1.4,2.3,3.8,4.2,4.2c2.2,0.5,3.8-2.1,5.2-3.9
		c3.1-4,8.4-6,13.3-4.9c0-1.7-0.4-3.4-1.2-4.9c-4.7-37.9-9.4-75.7-14.1-113.6c-1.6-12.6-3.1-25.2-5.9-37.6l0.2,0
		c-0.3-2.1-0.8-4.2-1.2-6.2c-0.9-4.3-1.7-8.4-1.7-12.8c0.2-17.5-7.4-33.6-15.9-49.9c-0.4-0.7-0.7-1.3-1.1-2
		c-1.6-2.9-2.9-5.3-2.9-8.6c0.1-12.6,0.5-31.4,2.7-48.6c1.4-10.6,3.1-21.2,5.2-31.6c0.7-3.6,1.4-6.9,2.7-10
		c1.9-4.5,4.9-8.4,7.9-12.2c1.9-2.4,3.9-4.9,6-7.4c2-2.5,4-4.9,5.8-7.2c15.2-5.8,31.1-10.4,46.5-14.9c4.5-1.3,8.9-2.5,13.4-3.7
		c3.2-0.9,6.5-1.8,9.8-2.7l-9.6,39.1c-2.2,1.3-3.4,2.7-3.4,4.2c0,1,0.6,2,1.6,3l-0.1,0.5l1.1,0.3c5.3,3.6,18.1,6.2,33,6.2
		c19.7,0,35.7-4.5,35.7-10c0-1.6-1.3-3-3.6-4.3l-4.7-11.1c5.1,3.8,18.1,6.5,33.4,6.5c19.7,0,35.7-4.5,35.7-10L544.5,218.4z
		 M186.4,479.3c-1.6,1.7-3.9,2.7-6.3,2.7c-2.3,0-4.5-0.9-6.2-2.6l-0.3-0.3l1.4-4C183.4,469.7,185.8,476.3,186.4,479.3z M173.9,466
		c1.1-1.1,2.5-1.9,4-2.3C176.4,464.3,175,465.2,173.9,466z M135.2,486.3l-1.1,0.2c-0.1,0-11.9,2.6-22.8,4.5l-0.8,0.1l-0.1,0.8
		c-0.8,5.1-5.1,6.2-8.5,6.2c-5,0-9-4.2-9-9.3c0-5.1,4-9.3,9-9.3c3.1,0,5.9,1.6,7.6,4.3l0.4,0.7l26.4-5.5l-0.8-2.1
		c0.1-0.4,0.1-0.9,0.1-1.3c-0.2-3.6-2.6-6.6-3.1-10.2c-0.5-3.2,0.7-6.5,3-8.7l5.5,15.3l3.6,6.3l-3.6,6.1l77,288.6l0.2,2.1
		l-20.8-30.9L135.2,486.3z M154,408.3c1.4-2.9,3.1-5.7,4.8-8.4c0.5-0.8,1-1.5,1.4-2.3c8.1-13.1,19.2-31.1,20.7-50.2
		c0.1-1.4,0-2.7-0.1-4.1c-0.1-2.3-0.3-4.4,0.7-6.3c1-2.1,2.4-3.9,3.8-5.9c0.8-1.1,1.6-2.2,2.3-3.3c3.6-5.6,5.8-12,7.6-18.2
		c1.9-6.4,3.6-12.9,5-19.4l0.1-0.3c1.3-6,2.6-12.1,6.9-15.8c0.6-0.5,1.3-0.7,1.4-0.6c0.1,0.1,0.2,0.6,0.2,0.9c0.3,3.1,1,6.2,2,9.3
		c-0.3,1.2-0.5,2.4-0.6,3.7c-0.5,7,2.9,13.4,5.5,20c-0.1,11.5-0.8,23.2-3.2,34.5c-1.3,5.7-3,11.4-4.7,16.9l-1.3,4.2
		c-3.8,12.5-7.2,26-6.6,39.7l0.1,0c-4.1,7.5-4.1,30-4,34.5c0.1,9.6,0,19.9-0.3,30.3l-0.4,0c-0.2,10.8-1.5,21.6-2.7,32.1
		c-1.1,9.3-2.2,18.9-2.6,28.5c-0.9,21.9-0.8,44.4-0.7,63.5c0.1,14.4,0.5,28.8,1.2,43.3l-39.2-149.2l21.4-3.9c2,1.8,4.6,2.8,7.3,2.8
		c6.2,0,11.3-5.2,11.3-11.6c0-6.4-5.1-11.6-11.3-11.6c-4.3,0-8.2,2.5-10.1,6.4l-22.1,4.3c0.5-0.9,0.7-2.1,0.7-3.2
		c0.3-5,0.4-10,0.5-15c0-1.5,0.3-3.5,0.5-5.6l1.1-0.1C149.9,435.7,149.2,418.2,154,408.3z M134.3,408.5c-0.2,0.4-0.3,0.9-0.5,1.3
		c0,0,0-0.1,0-0.1C134,409.3,134.1,408.9,134.3,408.5z M124.1,395.8c4.8,0,8.6,4,8.6,8.9c0,1.5-0.4,2.9-1.1,4.3l-0.2,0.3l0,0.4
		c0.3,3.5-1.1,5.8-1.1,5.8l-3.4,5c-0.3,0.4-0.6,0.9-1,1.4c-1.1-4-0.4-8.5,2.1-11.8c-3.2,1.2-7,0.5-9.5-1.8c-1.5-1.3-2.5-3.2-2.9-5.2
		C116.4,398.9,119.9,395.8,124.1,395.8z M476.3,213.8l30.3-90.7v85.8c-12.6,0.1-23.5,2-29.5,4.9L476.3,213.8z M541,215.2
		c-5-3.6-17.4-6.2-32.1-6.3v-86.1L541,215.2z M483.7,81.8l-0.2,0.3l0,0.3c0,11.9-5,23.6-9.9,34.9l-0.1,0.2c-1,0.3-1.9,0.6-2.9,0.9
		V80.6c0.1,0,0.2,0.1,0.3,0.1c-0.7-1.1,1.1-2.4,2.2-1.7c1.1,0.7,1.3,2.2,1.3,3.5c0,1.3-0.1,2.8,0.6,3.8c1.1,1.5,4,0.9,4.4-1
		c0.3-1.2-0.2-2.5,0.5-3.4c0.4-0.5,1.1-0.7,1.7-0.8c1.1-0.2,2.1-0.5,3.2-0.7C484.5,80.8,484.1,81.3,483.7,81.8z M468.8,64.2
		c0.1-0.3,0.3-0.7,0.4-1C469.1,63.6,469,63.9,468.8,64.2z M474,55.7c2.5-3.4,4.3-5.8,8.3-6.3c2.4-0.3,4.9,0.4,7,1.1
		c3,0.9,5.9,2.2,7.5,4.6c0.6,1,1,2.2,1.3,3.6c0.4,2.6,0.2,5.3-0.4,7.9c-2.7,1-0.9,5.1-4.3,6.1c-2.4,0.7-4-2.4-4.7-4.8
		c-0.7,1.4-1.4,2.8-2.6,3.7c-1.2,0.9-3,1.2-4.1,0.2c-0.8-0.7-1.3-2.1-2.4-2.2c-0.9,0-1.6,0.9-2.4,1.2c-1.5,0.5-3-1.2-3.1-2.8
		c-0.2-1.6,0.4-3.2,0.4-4.9c0-1.6-0.9-3.5-2.4-3.7c-0.3,0-0.6,0-0.9,0.2c0.3-0.5,0.6-0.9,1-1.4C472.8,57.3,473.4,56.5,474,55.7z
		 M450.4,116.6c1.1-2.8,2.3-5.7,3.7-8.2c3.9-7.1,7.9-14.5,9.9-22.6c0.3-1.1,0.5-2.2,0.7-3.3c0,0,0,0.1,0,0.1
		c1.6,0.2,3.3-1.1,3.6-2.7v39.3c-8.8,2.9-16.9,5.9-23.5,8.7C447.2,124.5,448.8,120.5,450.4,116.6z M439.4,146.1l13.5,31.7
		c-0.3,0.5-0.6,1.1-1,1.6c-3.2,4.4-8.4,6.4-14.4,8.5c-0.1,0-0.1,0-0.2,0.1L439.4,146.1z M436.8,152.8l-1.8,35.8
		c-2.5,0.8-5,1.6-7.6,2.4L436.8,152.8z M426.9,193.7c2.7-0.8,5.4-1.6,8.1-2.5l-1.8,37.4c-6.4,0.8-11.8,2-15.6,3.6L426.9,193.7z
		 M474.7,231.4c-6.5-2.2-16.5-3.7-27.6-3.7c-4.1,0-8,0.2-11.7,0.6l1.9-37.9c0.3-0.1,0.7-0.2,1-0.3c5.2-1.8,11.7-4,15.5-9.3
		c0.1-0.1,0.2-0.3,0.3-0.4l21.8,51.1L474.7,231.4z M455.5,177.9c1-2,1.7-4.1,2.3-6c1.8-5.5,3.5-11.2,5.1-16.6
		c2.3-7.5,4.6-15.2,7.3-22.8c1.3-0.4,2.5-0.8,3.8-1.2c12.6-4,23.7-8.4,31.6-12.2l-32.5,97.3l0.2,0c-0.4,0.4-0.7,0.8-0.8,1.2
		L455.5,177.9z"/>
	<path class="st0" d="M207.1,239.6c0.5-1.4,0.9-2.9,1.4-4.3C207.8,236.7,207.3,238.2,207.1,239.6z"/>
	<path class="st0" d="M238.7,178.8c-0.1,1.9,1.6,3.6,3.4,4.1c1.8,0.6,3.7,0.4,5.6,0.6c5.9,0.5,11.2,4.1,16.1,7.6
		c-5.3-7.9-14.3-13-23.6-13.2l2.6-0.9C241.6,175.5,238.8,176.9,238.7,178.8z"/>
	<path class="st0" d="M301.4,173.8c-1,0-1.9,0.5-2.7,1.1c-5.3,3.6-10.3,7.8-15,12.3l0.4,0c-0.2,0.1-0.2,0.5,0,0.6
		c0.3,0.2,0.6,0,0.9-0.1c5.8-3.2,11.4-6.7,16.9-10.5c0.5-0.4,1.1-0.8,1.2-1.5C303.4,174.7,302.4,173.8,301.4,173.8z"/>
	<path class="st0" d="M301,201.3c6.6-1.2,13.3,1.8,18.2,6.5c4.9,4.7,8.1,10.9,10.9,17.2c-2.1-6.9-4.8-13.8-9.5-19
		c-4.8-5.2-12.1-8.5-18.8-6.6L301,201.3z"/>
</g>
</svg>
