<?xml version="1.0" encoding="UTF-8" standalone="no"?>
<svg
   xmlns:dc="http://purl.org/dc/elements/1.1/"
   xmlns:cc="http://creativecommons.org/ns#"
   xmlns:rdf="http://www.w3.org/1999/02/22-rdf-syntax-ns#"
   xmlns:svg="http://www.w3.org/2000/svg"
   xmlns="http://www.w3.org/2000/svg"
   viewBox="0 0 300 300"
   height="300"
   width="300"
   version="1.1"
   id="svg4688">
  <metadata
     id="metadata4694">
    <rdf:RDF>
      <cc:Work
         rdf:about="">
        <dc:format>image/svg+xml</dc:format>
        <dc:type
           rdf:resource="http://purl.org/dc/dcmitype/StillImage" />
        <dc:title></dc:title>
      </cc:Work>
    </rdf:RDF>
  </metadata>
  <defs
     id="defs4692" />
  <g
     transform="translate(-1.2373511,0.61867626)"
     id="g5238">
    <path
       id="path5246"
       d="M 136.17668,294.52832 C 136.3545,293.71889 164.175,249.40477 198,196.05249 l 61.5,-97.004148 5.78138,-0.02417 c 3.73505,-0.01562 5.91769,-0.466612 6.16648,-1.274171 0.2118,-0.6875 0.65625,-2.4875 0.98767,-4 L 273.0381,91 243.01905,91 c -27.9177,0 -30.02001,0.122501 -30.0327,1.75 -0.008,0.9625 -0.285,2.7625 -0.61664,4 -0.59453,2.218489 -0.46907,2.25 8.95789,2.25 8.52711,0 9.84918,0.247993 12.22734,2.29359 l 2.66646,2.2936 -1.64844,6.4564 c -3.51361,13.7617 -16.9008,38.04579 -46.55859,84.45641 -9.48961,14.85 -21.77972,34.08273 -27.31137,42.73939 -5.53165,8.65667 -10.1778,15.61914 -10.32479,15.47216 -0.14698,-0.14699 -0.74938,-12.14836 -1.33867,-26.66971 -1.68575,-41.54039 -4.90913,-67.60836 -11.59809,-93.79549 C 124.0618,79.865342 98.852643,53 63.080455,53 53.075165,53 44.627939,55.035372 36.25,59.46484 32.8125,61.282267 30,62.530017 30,62.237618 30,61.304137 37.215613,52.723485 43.964141,45.631759 86.812904,0.60391922 155.47556,-11.835525 212.8255,15.039563 c 28.85495,13.521887 56.61305,41.279987 70.13494,70.134938 22.11741,47.197329 18.11,101.777739 -10.66602,145.269619 -8.97671,13.56733 -27.28297,31.87359 -40.8503,40.8503 C 206.43068,287.84434 179.32276,296 149.3273,296 c -11.34141,0 -13.42278,-0.23293 -13.15062,-1.47168 z M 107.5,290.1187 C 60.590554,275.69207 24.058811,240.08174 9.0494373,194.15128 3.7499997,177.93438 2.5327715,169.42973 2.5155938,148.5 2.4982125,127.32204 3.5881854,120.12521 9.508346,102.32851 17.626397,77.924705 24.363271,71.438825 43.571899,69.534054 c 22.773776,-2.258298 40.606562,10.869457 55.710284,41.011596 9.381027,18.72148 15.250377,44.43274 18.708487,81.95435 1.87275,20.3199 3.15374,62.83784 2.46299,81.75 -0.60046,16.43999 -0.88619,18.74301 -2.31924,18.69329 C 117.23549,292.9121 112.45,291.64103 107.5,290.1187 Z"
       style="fill:#d1d1d1" />
    <path
       id="path5244"
       d="m 137.74757,295.24115 c -1.48952,-0.65365 7.52599,-15.39464 60.0923,-98.25509 L 259.6846,99.5 l 6.04164,-0.294705 c 5.86276,-0.285979 6.05988,-0.385908 6.6577,-3.375 C 273.63053,89.59734 275.65125,90 243.125,90 l -29.875,0 -0.625,3.125 C 211.43756,99.062215 211.35912,99 220.03212,99 230.63115,99 235,100.7456 235,104.98052 c 0,7.02024 -8.56719,26.1085 -21.669,48.27994 -6.29707,10.65617 -24.44459,39.42934 -51.04099,80.92628 l -11.97679,18.68675 -0.67211,-21.62508 C 147.50074,162.38136 137.78181,115.88084 119.30379,86.098528 113.3374,76.482084 101.2811,64.4632 93.476436,60.351326 75.17243,50.707895 54.590065,49.924971 37.848123,58.235303 30.088734,62.086892 30.192436,61.56587 39.2882,51 59.501757,27.519421 88.527282,10.845761 121.43535,3.8107196 136.16259,0.66235105 163.19474,0.69229454 178,3.8733762 208.22383,10.367316 232.50667,23.410052 253.54831,44.451693 274.60265,65.506034 287.68475,89.872249 294.10982,120 c 1.84716,8.66151 2.23923,13.65169 2.23923,28.5 0,14.84831 -0.39207,19.83849 -2.23923,28.5 -6.42507,30.12775 -19.50717,54.49397 -40.56151,75.54831 -27.19217,27.19216 -61.22822,41.83063 -100.04831,43.0295 -7.7,0.2378 -14.78859,0.0863 -15.75243,-0.33666 z m -27.80173,-4.73693 C 85.93458,283.90999 63.753644,270.85833 45.447656,252.55234 21.091452,228.19614 6.6925645,197.99121 2.9267588,163.35511 0.18836111,138.16863 5.4774011,107.45275 16.246718,86 22.083047,74.373886 32.604352,69.499395 50.437458,70.159527 c 9.041393,0.334687 10.914699,0.739285 16.770558,3.622115 12.019219,5.917042 23.765325,19.795272 32.770023,38.718358 8.772551,18.43524 14.345861,44.28797 18.108651,84 1.3504,14.25195 2.45235,96.52358 1.29154,96.42673 -0.48303,-0.0403 -4.7276,-1.13043 -9.43239,-2.42251 z"
       style="fill:#bfbfbf" />
    <path
       id="path5242"
       d="m 138.78614,295.20378 c -2.69461,-0.69879 -2.275,-1.39553 59.14306,-98.20378 l 61.85694,-97.5 6.00206,-0.294995 c 6.37664,-0.313406 7.16245,-1.07267 7.19815,-6.955005 L 273,90 l -29.94115,0 -29.94115,0 -0.84482,4.25 -0.84482,4.25 9.53597,0.562761 c 5.24478,0.309519 10.54847,1.112849 11.78597,1.785189 4.50864,2.44953 2.33027,10.79715 -8.25983,31.65205 -8.84933,17.42685 -13.23647,24.67417 -46.90487,77.48436 L 150.5,252.46871 149.77892,230.48436 C 146.57841,132.90757 127.32399,77.131964 90.54911,58.909295 82.496835,54.919236 70.920179,52.089141 62.5,52.052252 c -6.286345,-0.02754 -17.236088,2.635736 -24.162439,5.876967 -3.485659,1.631136 -6.327607,2.651845 -6.31544,2.268242 0.01217,-0.383604 3.274666,-4.399604 7.25,-8.924446 C 61.199201,26.314966 91.001113,9.4842561 124.06657,3.385121 136.89632,1.0185904 162.08659,1.0021026 175,3.3517836 c 20.6887,3.7644458 43.30966,13.2792954 60.35542,25.3867564 10.39585,7.384078 26.52196,23.510195 33.90604,33.906037 12.10746,17.045765 21.62231,39.666723 25.38676,60.355423 2.34738,12.9008 2.34738,38.0992 0,51 -3.76445,20.6887 -13.2793,43.30966 -25.38676,60.35542 -7.38408,10.39585 -23.51019,26.52196 -33.90604,33.90604 -16.97059,12.05407 -39.96263,21.74491 -59.85542,25.22827 -10.01511,1.75371 -32.51097,2.80396 -36.71386,1.71405 z m -28.58886,-4.7649 C 83.487766,282.54232 63.372724,270.62911 44.5,251.52942 28.451146,235.28755 16.562302,215.70944 9.520145,193.92587 4.2848004,177.73133 2.6619353,167.02062 2.6373103,148.5 2.6131684,130.34274 4.2452342,119.65832 9.5111484,103.5 15.935744,83.786298 20.03551,77.704356 29.963563,73.159143 c 8.016658,-3.670147 23.197612,-4.271701 32.155091,-1.274164 13.233013,4.428306 25.572193,17.073438 35.423766,36.302101 10.89609,21.2674 16.34705,44.90447 20.4812,88.81292 1.39025,14.7658 2.54233,96.01793 1.36043,95.94677 -0.48623,-0.0293 -4.62028,-1.15782 -9.18677,-2.50789 z"
       style="fill:#bebebe" />
    <path
       id="path5240"
       d="M 139.87097,295.10809 136.24195,294.5 198.09638,197 l 61.85444,-97.5 6.02459,-0.297717 c 3.31352,-0.163745 6.03533,-0.613745 6.04845,-1 0.0131,-0.386256 0.41573,-2.389783 0.89469,-4.452283 l 0.87083,-3.75 -30.33584,0 -30.33584,0 -0.84473,4.25 -0.84473,4.25 9.59336,0.611784 c 5.27635,0.336481 10.63496,1.169226 11.90802,1.850556 2.05468,1.09963 2.2461,1.739 1.70423,5.6924 -1.97663,14.42104 -14.13863,36.16138 -62.47661,111.68082 L 150.5,252.17113 149.80982,229.51364 C 147.32573,147.96445 132.86213,94.979183 106.22645,69.852435 98.027506,62.117964 92.798294,58.942429 82.390149,55.377402 75.796248,53.118841 72.692844,52.660604 63.5,52.588154 51.848698,52.496329 46.718036,53.663225 36.689353,58.685856 32.049015,61.009861 31.917984,61.021765 32.988162,59.022119 35.24088,54.812877 53.664824,36.64101 61.950103,30.456435 77.216302,19.060929 96.5158,10.023492 115.29547,5.4762308 185.00633,-11.403379 257.46998,25.370563 285.18054,91.689714 c 31.2656,74.827336 -4.15361,161.271486 -78.87025,192.490826 -20.67864,8.64029 -50.66045,13.57153 -66.43932,10.92755 z M 107.5,289.5213 C 58.010083,274.84596 19.649495,234.75177 6.936232,184.41283 -0.79049966,153.81836 1.7437426,120.18275 13.900046,91.985956 19.849423,78.186251 25.252144,73.428205 37.768236,70.965814 c 25.316821,-4.98078 45.053407,7.817774 60.977716,39.542126 9.609178,19.14337 15.742458,47.44543 19.285298,88.99206 0.60971,7.15 1.36226,30.8875 1.67234,52.75 l 0.56379,39.75 -2.38369,-0.0532 C 116.57266,291.9175 111.9,290.82604 107.5,289.5213 Z"
       style="fill:#a8a8a8" />
  </g>
</svg>
