<?xml version="1.0" encoding="utf-8"?>
<!-- Generator: Adobe Illustrator 14.0.0, SVG Export Plug-In . SVG Version: 6.00 Build 43363)  -->
<!DOCTYPE svg PUBLIC "-//W3C//DTD SVG 1.1//EN" "http://www.w3.org/Graphics/SVG/1.1/DTD/svg11.dtd">
<svg version="1.1" id="Layer_1" xmlns="http://www.w3.org/2000/svg" xmlns:xlink="http://www.w3.org/1999/xlink" x="0px" y="0px"
	 width="612px" height="792px" viewBox="0 0 612 792" enable-background="new 0 0 612 792" xml:space="preserve">
<g>
	<polygon fill-rule="evenodd" clip-rule="evenodd" fill="#FFFFFF" points="209,300 401.756,300 401.756,492.756 209,492.756 
		209,300 	"/>
	<path fill-rule="evenodd" clip-rule="evenodd" d="M250.59,375.821h-28.233l-0.031,0.031c1.16,0.916,2.259,1.862,3.418,2.747h23.105
		l-0.885,1.587h-22.953l-7.509-5.891h34.063L250.59,375.821L250.59,375.821z"/>
	<path fill-rule="evenodd" clip-rule="evenodd" d="M265.272,398.316v0.061h10.713c0.672-0.092,1.435-0.396,1.648-1.129
		c0.213-0.672-0.184-1.282-0.61-1.771l-9.95-8.974c-1.954-1.953-3.175-4.456-2.534-7.325c0.336-1.953,2.106-3.907,3.999-4.486
		c1.007-0.306,2.106-0.397,3.205-0.397h39.648l-0.671,1.496l-40.106,0.091c-1.465,0.153-2.808,0.763-3.693,2.106
		c-0.885,1.282-1.099,3.113-0.549,4.639c0.58,1.618,1.953,2.991,3.357,4.182l8.851,7.966c0.702,0.854,1.13,1.893,0.825,3.053
		c-0.245,1.129-1.465,1.83-2.503,2.014l-1.282,0.123h-11.842l-2.747-24.113l-6.624-0.031l-14.681,24.113l-13.338,0.031l2.503-9.676
		h10.5c0.244-0.916,0.519-1.831,0.732-2.747l-15.292-0.03l-3.754,15.139v0.061h21.305l14.437-23.594l1.007-0.03l2.289,23.624
		l17.673-0.029c2.258-0.154,4.425-1.283,5.555-3.389c0.977-1.588,0.946-4.029-0.183-5.525l-0.977-1.221l-10.316-9.034
		c-0.763-0.763-1.068-1.862-0.794-2.93c0.824-2.259,3.449-1.923,5.586-1.984h15.994l-5.25,24.083v0.029c1.404,0.031,2.839,0,4.243,0
		l0.214-0.764l5.463-23.349h12.147l-0.641,1.587h-10.073l-5.738,24.113h-7.966l5.555-24.083v-0.031h-16.421
		c-0.549,0.122-1.129,0.275-1.374,0.854c-0.427,1.404,1.313,2.106,2.076,2.992l8.607,7.508c1.984,1.923,3.021,4.731,2.014,7.417
		c-0.824,2.717-3.663,4.975-6.471,5.158l-2.045,0.152h-18.466l-1.954-21.579c0-0.031,0-0.091-0.031-0.091l-12.972,21.702h-24.784
		l4.456-18.345h19.168l-1.496,5.86h-10.622c-0.61,2.167-1.068,4.396-1.648,6.563l10.164,0.031l14.529-24.113h9.126L265.272,398.316
		L265.272,398.316z"/>
	<path fill-rule="evenodd" clip-rule="evenodd" d="M321.829,391.998h0.031l7.233-17.703h23.899
		c-2.259,1.282-3.021,3.632-3.419,5.891h-15.749L323.6,404.299H316l-1.19-18.283l-0.03-0.031l-8.059,18.314h-6.745l-1.496-17.551
		l1.343-5.616l4.975-0.03l0.733,9.797l7.294-16.604h7.845L321.829,391.998L321.829,391.998z"/>
	<path fill-rule="evenodd" clip-rule="evenodd" d="M391.848,380.186h-7.355l-0.214,0.763l-5.494,23.35h-7.02l5.493-24.113h-18.282
		c-0.274,0.061-0.58,0.153-0.702,0.427c-0.03,0.366,0.061,0.732,0.336,1.007l11.567,11.721c1.404,1.587,2.381,3.54,1.802,5.769
		c-0.672,2.594-3.389,4.547-5.892,5.006l-1.617,0.184h-35.254l4.579-18.345h17.153l-1.252,5.86h-10.164
		c-0.519,2.167-0.977,4.396-1.465,6.563h25.426c0.579-0.061,1.189-0.244,1.434-0.824c0.245-0.793-0.305-1.374-0.885-1.923
		l-11.202-10.958c-1.434-1.587-2.136-3.724-1.617-5.921c0.366-1.954,2.289-3.632,4.151-4.09c0.671-0.214,1.373-0.305,2.075-0.366
		h35.803L391.848,380.186L391.848,380.186z"/>
	<path fill-rule="evenodd" clip-rule="evenodd" d="M389.986,386.046c-0.012,0.155-0.244,1.038-0.336,1.557
		c-0.366-0.183-0.793-0.274-1.16-0.458l0.336-1.496L389.986,386.046L389.986,386.046z"/>
	<path fill-rule="evenodd" clip-rule="evenodd" d="M389.254,388.427c0.336,0.946,0.152,2.136-0.61,2.838
		c-0.55,0.58-1.374,0.702-2.137,0.549c-0.732-0.152-1.466-0.793-1.771-1.465c-0.306-0.732-0.274-1.679,0.092-2.381
		c0.336-0.58,0.946-1.129,1.648-1.19C387.636,386.717,388.766,387.328,389.254,388.427L389.254,388.427z"/>
	<path fill-rule="evenodd" clip-rule="evenodd" fill="#FFFFFF" d="M388.002,389.19c0.062,0.244,0.122,0.549-0.03,0.793
		s-0.427,0.335-0.732,0.335c-0.52-0.03-1.038-0.305-1.252-0.793c-0.091-0.244-0.091-0.58,0.031-0.793
		c0.091-0.153,0.244-0.305,0.458-0.335C387.117,388.335,387.697,388.61,388.002,389.19L388.002,389.19z"/>
	<path fill-rule="evenodd" clip-rule="evenodd" d="M385.072,392.914c-0.092,0.671-0.244,1.435,0.213,1.984
		c0.702,0.61,1.648,0.702,2.442,1.099l-0.336,1.525l-4.212-1.525c0.061-0.489,0.184-1.038,0.306-1.526l0.366,0.091
		c-0.245-0.58-0.214-1.465-0.031-2.075L385.072,392.914L385.072,392.914z"/>
	<polygon fill-rule="evenodd" clip-rule="evenodd" points="387.941,395.02 386.781,394.562 387.117,393.097 388.308,393.493 
		387.941,395.02 	"/>
	<polygon fill-rule="evenodd" clip-rule="evenodd" points="386.843,400.025 385.651,399.566 385.987,398.041 387.178,398.498 
		386.843,400.025 	"/>
	<path fill-rule="evenodd" clip-rule="evenodd" d="M383.424,400.879c-0.274,0.092-0.302,0.482-0.274,0.643
		c0.002,0.049,0.03,0.09,0.091,0.09h0.031c0.265-0.064,0.58-1.525,1.435-1.646c0.641-0.123,1.251,0.121,1.587,0.701
		c0.488,1.068,0.152,2.381-0.55,3.236c-0.366,0.365-0.854,0.518-1.373,0.457l0.396-1.648c0.184,0.061,0.336-0.152,0.428-0.275
		c0.099-0.193,0.126-0.643,0-0.762c-0.062-0.092-0.184-0.152-0.275-0.063c-0.488,0.52-0.579,1.496-1.434,1.648
		c-0.458,0.063-0.886,0-1.222-0.273c-0.519-0.488-0.641-1.221-0.488-1.924c0.134-0.766,0.428-1.404,1.13-1.74
		c0.244-0.121,0.58-0.121,0.915-0.121L383.424,400.879L383.424,400.879z"/>
	<polygon fill-rule="evenodd" clip-rule="evenodd" points="225.714,409.793 223.028,409.793 222.998,418.461 221.502,418.461 
		221.502,409.822 218.786,409.793 218.786,408.662 225.714,408.662 225.714,409.793 	"/>
	<path fill-rule="evenodd" clip-rule="evenodd" d="M256.695,410.799c0.153,1.191-0.091,2.473-1.251,3.084l-0.03,0.029
		c1.618,0.703,0.916,2.625,1.129,4.029l0.244,0.52h-1.404c-0.763-1.068,0.336-2.93-0.946-3.725
		c-0.885-0.457-2.106-0.277-3.144-0.309v4.033h-1.496v-9.799C253.252,408.654,255.899,408.014,256.695,410.799L256.695,410.799z"/>
	<polygon fill-rule="evenodd" clip-rule="evenodd" points="288.561,418.453 287.126,418.453 286.149,415.836 282.669,415.805 
		281.692,418.453 280.228,418.453 283.768,408.662 285.05,408.662 288.561,418.453 	"/>
	<path fill-rule="evenodd" clip-rule="evenodd" d="M312.49,408.662c0.854,2.688,1.617,5.434,2.502,8.09
		c0.824-2.686,1.679-5.373,2.473-8.09h1.343l-3.144,9.799h-1.343l-3.144-9.799H312.49L312.49,408.662z"/>
	<polygon fill-rule="evenodd" clip-rule="evenodd" points="348.689,409.793 344.02,409.793 344.02,412.875 348.262,412.875 
		348.262,414.096 344.02,414.096 344.02,417.27 348.689,417.27 348.689,418.461 342.523,418.461 342.523,408.662 348.689,408.662 
		348.689,409.793 	"/>
	<polygon fill-rule="evenodd" clip-rule="evenodd" points="374.358,417.27 378.754,417.27 378.754,418.461 372.894,418.461 
		372.894,408.662 374.358,408.662 374.358,417.27 	"/>
	<path fill-rule="evenodd" clip-rule="evenodd" fill="#FFFFFF" d="M255.199,410.678c0.274,0.58,0.244,1.373-0.122,1.893
		c-0.785,1.037-1.599,0.736-3.785,0.777v-3.555C252.666,409.781,254.566,409.422,255.199,410.678L255.199,410.678z"/>
	<polygon fill-rule="evenodd" clip-rule="evenodd" fill="#FFFFFF" points="283.066,414.584 284.379,410.646 285.722,414.584 
		283.066,414.584 	"/>
</g>
</svg>
