<?xml version="1.0" encoding="utf-8"?>
<!-- Generator: Adobe Illustrator 14.0.0, SVG Export Plug-In . SVG Version: 6.00 Build 43363)  -->
<!DOCTYPE svg PUBLIC "-//W3C//DTD SVG 1.1//EN" "http://www.w3.org/Graphics/SVG/1.1/DTD/svg11.dtd">
<svg version="1.1" id="Layer_1" xmlns="http://www.w3.org/2000/svg" xmlns:xlink="http://www.w3.org/1999/xlink" x="0px" y="0px"
	 width="612px" height="792px" viewBox="0 0 612 792" enable-background="new 0 0 612 792" xml:space="preserve">
<g>
	<polygon fill-rule="evenodd" clip-rule="evenodd" fill="#FFFFFF" points="209,300 401.756,300 401.756,492.756 209,492.756 
		209,300 	"/>
	<polygon fill-rule="evenodd" clip-rule="evenodd" points="229.858,387.542 225.633,387.542 225.633,400.785 221.688,400.785 
		221.688,387.542 217.504,387.542 217.504,384.766 229.858,384.766 229.858,387.542 	"/>
	<path fill-rule="evenodd" clip-rule="evenodd" d="M246.375,400.785h-4.378l-4.557-6.795h-1.625v6.795h-3.946v-16.019h5.926
		c1.943,0,3.45,0.403,4.514,1.21c1.063,0.806,1.596,1.913,1.596,3.325c0,1.049-0.255,1.902-0.768,2.559
		c-0.511,0.657-1.191,1.106-2.042,1.35L246.375,400.785L246.375,400.785z M239.958,389.924c0-0.797-0.216-1.394-0.647-1.79
		c-0.433-0.396-1.048-0.592-1.845-0.592h-1.651v4.742h1.78c0.73,0,1.308-0.212,1.731-0.639
		C239.746,391.218,239.958,390.645,239.958,389.924L239.958,389.924z"/>
	<path fill-rule="evenodd" clip-rule="evenodd" d="M263.37,400.785h-4.452l-1.317-2.717h-6.429l-1.151,2.717h-4.068l8.033-16.163
		h1.28L263.37,400.785L263.37,400.785z M256.847,396.506l-2.549-5.354l-2.503,5.354H256.847L256.847,396.506z"/>
	<polygon fill-rule="evenodd" clip-rule="evenodd" points="278.338,385.893 270.542,400.902 268.7,400.902 260.882,385.893 
		264.676,384.505 269.745,394.566 274.631,384.505 278.338,385.893 	"/>
	<polygon fill-rule="evenodd" clip-rule="evenodd" points="290.727,400.785 280.086,400.785 280.086,384.766 290.33,384.766 
		290.33,387.542 284.033,387.542 284.033,391.793 290.568,391.793 290.568,393.585 284.033,393.585 284.033,398.01 290.727,398.01 
		290.727,400.785 	"/>
	<polygon fill-rule="evenodd" clip-rule="evenodd" points="304.276,400.785 293.357,400.785 293.357,384.766 297.303,384.766 
		297.303,398.01 304.276,398.01 304.276,400.785 	"/>
	<polygon fill-rule="evenodd" clip-rule="evenodd" points="351.651,400.785 346.839,400.785 342.08,394.469 341.051,395.343 
		341.051,400.785 337.104,400.785 337.104,384.766 341.051,384.766 341.051,391.014 348.365,384.505 350.814,386.717 
		344.829,392.067 351.651,400.785 	"/>
	<polygon fill-rule="evenodd" clip-rule="evenodd" points="353.634,384.766 357.579,384.766 357.579,400.785 353.634,400.785 
		353.634,384.766 	"/>
	<polygon fill-rule="evenodd" clip-rule="evenodd" points="375.684,400.785 374.019,400.785 365.8,391.557 365.8,400.785 
		362.092,400.785 362.092,384.766 363.758,384.766 371.98,393.964 371.98,384.766 375.684,384.766 375.684,400.785 	"/>
	<path fill-rule="evenodd" clip-rule="evenodd" d="M393.252,399.543c-0.644,0.48-1.518,0.848-2.631,1.098
		c-1.11,0.252-2.04,0.377-2.791,0.377c-2.909,0-5.065-0.777-6.466-2.33c-1.401-1.555-2.101-3.449-2.101-5.686
		c0-2.159,0.771-4.095,2.316-5.81c1.541-1.714,3.696-2.57,6.456-2.57c0.749,0,1.615,0.12,2.604,0.359
		c0.986,0.24,1.725,0.525,2.214,0.854l-0.559,3.934h-1.034v-1.36c-0.279-0.229-0.698-0.431-1.261-0.606
		c-0.561-0.173-1.201-0.261-1.934-0.261c-1.428,0-2.561,0.521-3.393,1.562c-0.836,1.041-1.258,2.243-1.266,3.606
		c0,1.629,0.374,2.928,1.123,3.899c0.751,0.972,1.919,1.458,3.504,1.458c0.469,0,0.86-0.025,1.178-0.076
		c0.313-0.051,0.57-0.111,0.772-0.184v-4.223h-2.909v-1.792h6.175V399.543L393.252,399.543z"/>
	<polygon fill-rule="evenodd" clip-rule="evenodd" points="309.157,384.639 332.274,384.639 332.274,385.665 309.157,385.665 
		309.157,384.639 	"/>
	<polygon fill-rule="evenodd" clip-rule="evenodd" points="309.642,399.711 332.761,399.711 332.761,400.738 309.642,400.738 
		309.642,399.711 	"/>
	<path fill-rule="evenodd" clip-rule="evenodd" d="M312.349,397.482c0,0,1.698-1.349,8.69-1.349c6.993,0,9.176,1.291,9.176,1.291
		l0.929-5.278l-2.425,3.108c0,0-0.647-0.206-0.971-0.264c0,0.03-0.607-3.958-0.607-3.958l-1.777,3.549c0,0-0.769-0.089-1.213-0.089
		c0,0.029-1.091-4.046-1.091-4.046l-1.656,3.901c0,0-0.565,0-0.81,0c0-0.031-1.617-3.93-1.617-3.93l-0.808,4.046
		c0,0-0.564,0.089-0.972,0.118c0-0.029-2.141-3.637-2.141-3.637l-0.565,4.194c0,0-0.646,0.117-0.809,0.176
		c0-0.029-2.788-3.314-2.788-3.314L312.349,397.482L312.349,397.482z"/>
	<path fill-rule="evenodd" clip-rule="evenodd" d="M310.854,390.27c0,0.193-0.219,0.351-0.484,0.351
		c-0.269,0-0.485-0.157-0.485-0.351c0-0.194,0.217-0.352,0.485-0.352C310.636,389.918,310.854,390.076,310.854,390.27
		L310.854,390.27z"/>
	<path fill-rule="evenodd" clip-rule="evenodd" d="M314.854,389.155c0,0.195-0.216,0.352-0.482,0.352
		c-0.269,0-0.485-0.157-0.485-0.352c0-0.195,0.217-0.352,0.485-0.352C314.638,388.803,314.854,388.959,314.854,389.155
		L314.854,389.155z"/>
	<path fill-rule="evenodd" clip-rule="evenodd" d="M319.222,388.334c0,0.193-0.219,0.352-0.486,0.352s-0.485-0.158-0.485-0.352
		c0-0.195,0.218-0.353,0.485-0.353S319.222,388.139,319.222,388.334L319.222,388.334z"/>
	<path fill-rule="evenodd" clip-rule="evenodd" d="M323.504,388.304c0,0.194-0.217,0.352-0.485,0.352
		c-0.267,0-0.483-0.157-0.483-0.352c0-0.193,0.217-0.352,0.483-0.352C323.287,387.953,323.504,388.111,323.504,388.304
		L323.504,388.304z"/>
	<path fill-rule="evenodd" clip-rule="evenodd" d="M327.991,389.125c0,0.195-0.219,0.353-0.484,0.353
		c-0.271,0-0.486-0.158-0.486-0.353c0-0.194,0.216-0.351,0.486-0.351C327.772,388.774,327.991,388.931,327.991,389.125
		L327.991,389.125z"/>
	<path fill-rule="evenodd" clip-rule="evenodd" d="M332.235,390.445c0,0.193-0.218,0.352-0.485,0.352
		c-0.27,0-0.485-0.159-0.485-0.352c0-0.195,0.216-0.353,0.485-0.353C332.018,390.093,332.235,390.25,332.235,390.445
		L332.235,390.445z"/>
	<path fill-rule="evenodd" clip-rule="evenodd" d="M238.085,404.379c1.127,0,1.948,0,1.948,1.518c0,1.467-0.708,1.506-1.602,1.506
		h-0.87v-3.023H238.085L238.085,404.379z M236.402,403.607v4.566h2.183c0.371,0,1.329,0,1.917-0.51
		c0.733-0.631,0.733-1.455,0.733-1.729c0-0.893-0.291-1.314-0.483-1.557c-0.62-0.771-1.571-0.771-2.223-0.771H236.402
		L236.402,403.607z"/>
	<polygon fill-rule="evenodd" clip-rule="evenodd" points="242.216,403.607 246.493,403.607 246.493,404.379 243.376,404.379 
		243.376,405.393 246.276,405.393 246.276,406.166 243.376,406.166 243.376,407.402 246.598,407.402 246.598,408.174 
		242.216,408.174 242.216,403.607 	"/>
	<polygon fill-rule="evenodd" clip-rule="evenodd" points="249.828,403.607 250.987,403.607 250.987,407.402 253.887,407.402 
		253.887,408.174 249.828,408.174 249.828,403.607 	"/>
	<path fill-rule="evenodd" clip-rule="evenodd" d="M256.223,406.369l0.781-1.697l0.797,1.697H256.223L256.223,406.369z
		 M259.944,408.174l-2.312-4.566H256.4l-2.248,4.566h1.241l0.475-1.033h2.303l0.5,1.033H259.944L259.944,408.174z"/>
	<path fill-rule="evenodd" clip-rule="evenodd" d="M262.038,406.369l0.782-1.697l0.797,1.697H262.038L262.038,406.369z
		 M265.758,408.174l-2.311-4.566h-1.232l-2.247,4.566h1.24l0.475-1.033h2.304l0.5,1.033H265.758L265.758,408.174z"/>
	<path fill-rule="evenodd" clip-rule="evenodd" d="M268.593,405.725h2.505v1.818c-0.338,0.262-1.297,0.707-2.464,0.707
		c-2.078,0-2.924-1.174-2.924-2.373c0-1.115,0.773-2.346,2.859-2.346c0.934,0,2.142,0.217,2.457,1.338l-1.16,0.174
		c-0.225-0.631-0.942-0.721-1.289-0.721c-0.491,0-1.015,0.121-1.353,0.51c-0.25,0.293-0.314,0.656-0.314,1.008
		c0,0.676,0.298,1.619,1.65,1.619c0.677,0,1.217-0.299,1.361-0.389v-0.574h-1.329V405.725L268.593,405.725z"/>
	<path fill-rule="evenodd" clip-rule="evenodd" d="M273.112,406.605c0.055,0.236,0.208,0.873,1.256,0.873
		c0.813,0,1.136-0.338,1.136-0.631c0-0.383-0.403-0.467-1.466-0.67c-0.571-0.115-1.844-0.363-1.844-1.371
		c0-0.498,0.41-1.275,2.102-1.275c1.128,0,2.159,0.35,2.207,1.383l-1.167,0.039c-0.048-0.236-0.137-0.664-1.055-0.664
		c-0.347,0-0.975,0.084-0.975,0.453c0,0.293,0.363,0.422,1.289,0.594c0.877,0.166,2.07,0.389,2.07,1.512
		c0,0.555-0.443,1.02-0.942,1.199c-0.515,0.191-1.095,0.203-1.362,0.203c-0.62,0-2.15-0.045-2.376-1.563L273.112,406.605
		L273.112,406.605z"/>
	<polygon fill-rule="evenodd" clip-rule="evenodd" points="278.894,404.379 277.188,404.379 277.188,403.607 281.762,403.607 
		281.762,404.379 280.054,404.379 280.054,408.174 278.894,408.174 278.894,404.379 	"/>
	<polygon fill-rule="evenodd" clip-rule="evenodd" points="282.535,403.607 286.812,403.607 286.812,404.379 283.694,404.379 
		283.694,405.393 286.593,405.393 286.593,406.166 283.694,406.166 283.694,407.402 286.917,407.402 286.917,408.174 
		282.535,408.174 282.535,403.607 	"/>
	<path fill-rule="evenodd" clip-rule="evenodd" d="M291.869,404.379c0.693,0,0.966,0,1.224,0.178
		c0.201,0.129,0.266,0.301,0.266,0.467c0,0.656-0.814,0.656-1.41,0.656h-0.645v-1.301H291.869L291.869,404.379z M290.146,408.174
		h1.159v-1.723h0.766c0.515,0,1.135-0.006,1.546-0.158c0.362-0.135,0.942-0.479,0.942-1.283c0-0.771-0.54-1.121-0.91-1.262
		c-0.305-0.115-0.62-0.141-1.635-0.141h-1.868V408.174L290.146,408.174z"/>
	<path fill-rule="evenodd" clip-rule="evenodd" d="M296.677,404.379h0.91c0.782,0,0.926,0,1.144,0.102
		c0.218,0.104,0.297,0.281,0.297,0.467c0,0.133-0.04,0.426-0.442,0.535c-0.202,0.057-0.693,0.057-1.047,0.057h-0.862V404.379
		L296.677,404.379z M295.518,408.174h1.16v-1.906h0.233c0.782,0,0.854,0.088,1.555,0.912l0.837,0.994h1.393l-0.7-0.893
		c-0.58-0.734-0.807-0.9-1.289-1.115v-0.014c0.225-0.02,0.443-0.07,0.645-0.141c0.563-0.186,0.878-0.625,0.878-1.121
		c0-0.447-0.274-0.971-0.943-1.168c-0.177-0.045-0.458-0.115-1.32-0.115h-2.449V408.174L295.518,408.174z"/>
	<polygon fill-rule="evenodd" clip-rule="evenodd" points="301.268,403.607 302.428,403.607 302.428,408.174 301.268,408.174 
		301.268,403.607 	"/>
	<path fill-rule="evenodd" clip-rule="evenodd" d="M306.81,403.607v2.883c0,0.332,0,0.816-0.315,1.186
		c-0.354,0.422-0.917,0.574-1.594,0.574c-1.151,0-1.755-0.49-1.788-1.492l1.104-0.115c0.032,0.287,0.041,0.816,0.725,0.816
		c0.709,0,0.709-0.459,0.709-0.906v-2.945H306.81L306.81,403.607z"/>
	<path fill-rule="evenodd" clip-rule="evenodd" d="M308.919,406.605c0.057,0.236,0.21,0.873,1.257,0.873
		c0.813,0,1.136-0.338,1.136-0.631c0-0.383-0.403-0.467-1.466-0.67c-0.572-0.115-1.845-0.363-1.845-1.371
		c0-0.498,0.411-1.275,2.103-1.275c1.127,0,2.158,0.35,2.206,1.383l-1.168,0.039c-0.047-0.236-0.137-0.664-1.055-0.664
		c-0.346,0-0.975,0.084-0.975,0.453c0,0.293,0.362,0.422,1.289,0.594c0.878,0.166,2.069,0.389,2.069,1.512
		c0,0.555-0.442,1.02-0.941,1.199c-0.516,0.191-1.096,0.203-1.361,0.203c-0.62,0-2.15-0.045-2.376-1.563L308.919,406.605
		L308.919,406.605z"/>
	<polygon fill-rule="evenodd" clip-rule="evenodd" points="315.597,403.607 316.757,403.607 316.757,408.174 315.597,408.174 
		315.597,403.607 	"/>
	<polygon fill-rule="evenodd" clip-rule="evenodd" points="317.924,403.607 319.052,403.607 321.396,406.656 321.411,406.656 
		321.411,403.607 322.49,403.607 322.49,408.174 321.322,408.174 319.02,405.195 319.003,405.195 319.003,408.174 317.924,408.174 
		317.924,403.607 	"/>
	<polygon fill-rule="evenodd" clip-rule="evenodd" points="325.953,403.607 327.113,403.607 327.113,405.635 329.473,403.607 
		331.035,403.607 328.869,405.387 331.156,408.174 329.65,408.174 328.063,406.031 327.113,406.797 327.113,408.174 
		325.953,408.174 325.953,403.607 	"/>
	<polygon fill-rule="evenodd" clip-rule="evenodd" points="331.18,403.607 332.372,403.607 333.234,406.746 333.251,406.746 
		334.298,403.607 335.682,403.607 336.689,406.797 336.706,406.797 337.575,403.607 338.751,403.607 337.35,408.174 
		336.109,408.174 334.975,404.762 334.958,404.762 333.822,408.174 332.558,408.174 331.18,403.607 	"/>
	<path fill-rule="evenodd" clip-rule="evenodd" d="M340.361,406.369l0.782-1.697l0.797,1.697H340.361L340.361,406.369z
		 M344.083,408.174l-2.313-4.566h-1.231l-2.247,4.566h1.24l0.475-1.033h2.305l0.499,1.033H344.083L344.083,408.174z"/>
	<polygon fill-rule="evenodd" clip-rule="evenodd" points="344.703,403.607 345.862,403.607 345.862,407.402 348.762,407.402 
		348.762,408.174 344.703,408.174 344.703,403.607 	"/>
	<polygon fill-rule="evenodd" clip-rule="evenodd" points="349.56,403.607 350.719,403.607 350.719,408.174 349.56,408.174 
		349.56,403.607 	"/>
	<polygon fill-rule="evenodd" clip-rule="evenodd" points="353.143,404.379 351.436,404.379 351.436,403.607 356.011,403.607 
		356.011,404.379 354.303,404.379 354.303,408.174 353.143,408.174 353.143,404.379 	"/>
	<polygon fill-rule="evenodd" clip-rule="evenodd" points="356.784,403.607 361.061,403.607 361.061,404.379 357.943,404.379 
		357.943,405.393 360.844,405.393 360.844,406.166 357.943,406.166 357.943,407.402 361.165,407.402 361.165,408.174 
		356.784,408.174 356.784,403.607 	"/>
	<polygon fill-rule="evenodd" clip-rule="evenodd" points="362.092,403.607 363.25,403.607 363.25,408.174 362.092,408.174 
		362.092,403.607 	"/>
	<polygon fill-rule="evenodd" clip-rule="evenodd" points="365.675,404.379 363.968,404.379 363.968,403.607 368.543,403.607 
		368.543,404.379 366.835,404.379 366.835,408.174 365.675,408.174 365.675,404.379 	"/>
</g>
</svg>
