<?xml version="1.0" encoding="utf-8"?>
<!-- Generator: Adobe Illustrator 14.0.0, SVG Export Plug-In . SVG Version: 6.00 Build 43363)  -->
<!DOCTYPE svg PUBLIC "-//W3C//DTD SVG 1.1//EN" "http://www.w3.org/Graphics/SVG/1.1/DTD/svg11.dtd">
<svg version="1.1" id="Layer_1" xmlns="http://www.w3.org/2000/svg" xmlns:xlink="http://www.w3.org/1999/xlink" x="0px" y="0px"
	 width="612px" height="792px" viewBox="0 0 612 792" enable-background="new 0 0 612 792" xml:space="preserve">
<g>
	<polygon fill-rule="evenodd" clip-rule="evenodd" fill="#FFFFFF" points="209,300 401.756,300 401.756,492.756 209,492.756 
		209,300 	"/>
	<path fill-rule="evenodd" clip-rule="evenodd" stroke="#000000" stroke-width="0.7906" stroke-miterlimit="2.6131" d="
		M312.398,395.566h-6.536v-8.118h-24.571l-0.121,8.118h-5.931v3.497h5.931v7.744h5.205v-7.744h14.403v7.744h5.084v-7.744h6.536
		V395.566L312.398,395.566z M286.375,395.566v-4.496c0,0,6.052-2.623,14.403,0.25v4.246H286.375L286.375,395.566z"/>
	<path fill-rule="evenodd" clip-rule="evenodd" d="M247.521,395.191v11.115h5.205v-7.619h7.383l6.416,8.744l5.446-0.375
		l-5.931-8.119l6.173-0.25l0,0v-3.496l0,0v-8.243h-24.692V395.191L247.521,395.191L247.521,395.191L247.521,395.191z
		 M252.726,395.191v-4.496c0,0,6.052-2.748,14.404,0.125v4.371H252.726L252.726,395.191z"/>
	<path fill="none" stroke="#000000" stroke-width="0.7906" stroke-miterlimit="2.6131" d="M247.521,395.191v11.115h5.205v-7.619
		h7.383l6.416,8.744l5.446-0.375l-5.931-8.119l6.173-0.25l0,0v-3.496l0,0v-8.243h-24.692V395.191L247.521,395.191 M252.726,395.191
		v-4.496c0,0,6.052-2.748,14.404,0.125v4.371H252.726L252.726,395.191z"/>
	<path fill-rule="evenodd" clip-rule="evenodd" d="M344.474,395.941v-4.496c0,0,8.109-1.874,20.334,0.5v-3.872H339.39v7.868h-4.115
		v3.497h4.115v7.744h25.418v-3.873c-11.74,1.873-20.334,0.375-20.334,0.375v-4.246h14.403v-3.497h-14.888H344.474L344.474,395.941z"
		/>
	<path fill="none" stroke="#000000" stroke-width="0.7906" stroke-miterlimit="2.6131" d="M344.474,395.941v-4.496
		c0,0,8.109-1.874,20.334,0.5v-3.872H339.39v7.868h-4.115v3.497h4.115v7.744h25.418v-3.873c-11.74,1.873-20.334,0.375-20.334,0.375
		v-4.246h14.403v-3.497h-14.888"/>
	<path fill-rule="evenodd" clip-rule="evenodd" d="M373.038,388.322h-5.204v7.868l0,0v3.497l0,0v7.744h25.418v-3.873
		c-11.74,1.998-20.335,0.5-20.335,0.5v-4.371h-0.12v-11.365H373.038L373.038,388.322z"/>
	<path fill="none" stroke="#000000" stroke-width="0.7906" stroke-miterlimit="2.6131" d="M373.038,388.322h-5.204v7.868l0,0v3.497
		l0,0v7.744h25.418v-3.873c-11.741,1.998-20.335,0.5-20.335,0.5v-4.371h-0.121v-11.365"/>
	<polygon fill-rule="evenodd" clip-rule="evenodd" points="309.978,386.824 321.234,407.307 326.56,406.932 337.211,387.073 
		331.644,387.073 323.655,401.811 315.666,386.824 309.978,386.824 	"/>
	<polyline fill="none" stroke="#000000" stroke-width="0.7906" stroke-miterlimit="2.6131" points="309.978,386.824 
		321.234,407.307 326.56,406.932 337.211,387.073 331.644,387.073 323.655,401.811 315.666,386.824 309.978,386.824 	"/>
	<polygon fill-rule="evenodd" clip-rule="evenodd" stroke="#000000" stroke-width="0.7906" stroke-miterlimit="2.6131" points="
		244.375,386.574 220.046,386.574 220.046,391.569 229.729,391.569 229.729,406.682 234.45,406.682 234.45,391.569 244.375,391.569 
		244.375,386.574 	"/>
	
		<path fill-rule="evenodd" clip-rule="evenodd" fill="#FFFFFF" stroke="#000000" stroke-width="0.7906" stroke-miterlimit="2.6131" d="
		M309.856,394.317h-6.536v-7.868l0,0v-0.374h-24.692v8.242h-5.931v3.373h5.931v7.742h5.205v-7.617h14.404v7.617h5.083v-7.617h6.415
		L309.856,394.317L309.856,394.317z M283.833,394.317v-4.621c0,0,6.052-2.623,14.404,0.25v4.371H283.833L283.833,394.317z"/>
	<path fill-rule="evenodd" clip-rule="evenodd" fill="#FFFFFF" d="M244.979,393.818v11.241h5.205v-7.744h7.383l6.415,8.867
		l5.447-0.5l-5.931-8.117l6.173-0.25l0,0v-3.497l0,0v-7.743l0,0V385.7h-24.692V393.818L244.979,393.818L244.979,393.818
		L244.979,393.818z M250.185,393.818v-4.496c0,0,6.052-2.623,14.403,0.25v4.247H250.185L250.185,393.818z"/>
	<path fill="none" stroke="#000000" stroke-width="0.7906" stroke-miterlimit="2.6131" d="M244.979,393.818v11.241h5.205v-7.744
		h7.383l6.415,8.867l5.447-0.5l-5.931-8.117l6.173-0.25l0,0v-3.497l0,0v-7.743l0,0V385.7h-24.692V393.818L244.979,393.818
		 M250.185,393.818v-4.496c0,0,6.052-2.623,14.403,0.25v4.247H250.185L250.185,393.818z"/>
	<path fill-rule="evenodd" clip-rule="evenodd" fill="#FFFFFF" d="M341.932,394.567v-4.371c0,0,8.109-1.998,20.335,0.375v-3.872
		h-25.419v7.868h-4.115l-0.121,3.498h4.236v7.742h25.419v-3.871c-11.741,1.998-20.335,0.5-20.335,0.5v-4.371h14.403v-3.498h-14.888
		H341.932L341.932,394.567z"/>
	<path fill="none" stroke="#000000" stroke-width="0.7906" stroke-miterlimit="2.6131" d="M341.932,394.567v-4.371
		c0,0,8.109-1.998,20.335,0.375v-3.872h-25.419v7.868h-4.115l-0.121,3.498h4.236v7.742h25.419v-3.871
		c-11.741,1.998-20.335,0.5-20.335,0.5v-4.371h14.403v-3.498h-14.888"/>
	<path fill-rule="evenodd" clip-rule="evenodd" fill="#FFFFFF" d="M370.497,387.073h-5.205v7.744l0,0v3.498l0,0v7.867h25.418v-3.871
		c-11.74,1.873-20.334,0.375-20.334,0.375v-4.371h-0.121v-11.241H370.497L370.497,387.073z"/>
	<path fill="none" stroke="#000000" stroke-width="0.7906" stroke-miterlimit="2.6131" d="M370.497,387.073h-5.205v7.744l0,0v3.498
		l0,0v7.867h25.418v-3.871c-11.74,1.873-20.334,0.375-20.334,0.375v-4.371h-0.121v-11.241"/>
	<polygon fill-rule="evenodd" clip-rule="evenodd" fill="#FFFFFF" points="307.436,385.45 318.692,405.932 324.018,405.682 
		334.669,385.825 329.102,385.825 321.113,400.438 313.125,385.45 307.436,385.45 	"/>
	<polyline fill="none" stroke="#000000" stroke-width="0.7906" stroke-miterlimit="2.6131" points="307.436,385.45 318.692,405.932 
		324.018,405.682 334.669,385.825 329.102,385.825 321.113,400.438 313.125,385.45 307.436,385.45 	"/>
	
		<polygon fill-rule="evenodd" clip-rule="evenodd" fill="#FFFFFF" stroke="#000000" stroke-width="0.7906" stroke-miterlimit="2.6131" points="
		241.833,385.325 217.504,385.325 217.504,390.196 227.187,390.196 227.187,405.307 231.908,405.307 231.908,390.196 
		241.833,390.196 241.833,385.325 	"/>
</g>
</svg>
