<?xml version="1.0" encoding="utf-8"?>
<!-- Generator: Adobe Illustrator 14.0.0, SVG Export Plug-In . SVG Version: 6.00 Build 43363)  -->
<!DOCTYPE svg PUBLIC "-//W3C//DTD SVG 1.1//EN" "http://www.w3.org/Graphics/SVG/1.1/DTD/svg11.dtd">
<svg version="1.1" id="Layer_1" xmlns="http://www.w3.org/2000/svg" xmlns:xlink="http://www.w3.org/1999/xlink" x="0px" y="0px"
	 width="612px" height="792px" viewBox="0 0 612 792" enable-background="new 0 0 612 792" xml:space="preserve">
<g>
	<polygon fill-rule="evenodd" clip-rule="evenodd" fill="#FFFFFF" points="209,300 401.756,300 401.756,492.756 209,492.756 
		209,300 	"/>
	<path fill-rule="evenodd" clip-rule="evenodd" d="M389.268,416.791c0-0.352-0.123-0.703-0.229-0.947
		c-0.14-0.229-0.509-0.352-0.754-0.352c-0.264,0-0.632,0.123-0.632,0.229c-0.105,0.246-0.246,0.596-0.246,1.07v1.299
		c0,0.49,0.141,1.088,0.246,1.439c0.122,0.473,0.509,0.965,0.736,1.422l2.879,3.316c0,0.141,0.246,0.369,0.386,0.492
		c0.983,1.176,1.598,2.615,1.598,4.037v3.088c0,1.422-0.491,2.615-1.229,3.336c-0.755,0.701-2.124,1.053-3.738,1.053
		c-1.615,0-2.879-0.352-3.616-1.053c-0.755-0.721-1.229-1.914-1.229-3.336v-5.002h3.967v5.477c0,0.352,0.141,0.701,0.141,0.842
		c0.105,0.229,0.474,0.352,0.737,0.352c0.245,0,0.614-0.123,0.754-0.246c0.105-0.246,0.229-0.596,0.229-0.947v-1.773
		c0-0.842-0.123-1.543-0.229-1.912c-0.14-0.352-0.509-0.824-0.754-1.193l-3.125-3.668c-0.737-0.949-1.246-1.791-1.352-2.266
		c-0.263-0.473-0.368-1.193-0.368-1.895v-2.369c0-1.439,0.368-2.617,1.105-3.336c0.755-0.719,2.124-1.193,3.739-1.193
		c1.614,0,2.983,0.352,3.738,1.07c0.737,0.703,1.229,2.02,1.229,3.459v4.158h-3.984V416.791L389.268,416.791z"/>
	<path fill-rule="evenodd" clip-rule="evenodd" d="M377.701,416.791c0-0.352-0.123-0.703-0.264-0.947
		c-0.105-0.229-0.491-0.352-0.737-0.352c-0.245,0-0.632,0.123-0.632,0.229c-0.123,0.246-0.228,0.596-0.228,1.07v1.299
		c0,0.49,0.104,1.088,0.228,1.439c0.141,0.473,0.509,0.965,0.755,1.422l2.861,3.316c0,0.141,0.263,0.369,0.386,0.492
		c0.983,1.176,1.615,2.615,1.615,4.037v3.088c0,1.422-0.492,2.615-1.246,3.336c-0.755,0.701-2.124,1.053-3.739,1.053
		c-1.614,0-2.86-0.352-3.615-1.053c-0.737-0.721-1.246-1.914-1.246-3.336v-5.002h4.002v5.477c0,0.352,0.104,0.701,0.104,0.842
		c0.123,0.229,0.51,0.352,0.755,0.352c0.246,0,0.632-0.123,0.737-0.246c0.141-0.246,0.264-0.596,0.264-0.947v-1.773
		c0-0.842-0.123-1.543-0.264-1.912c-0.105-0.352-0.491-0.824-0.737-1.193l-3.106-3.668c-0.755-0.949-1.246-1.791-1.387-2.266
		c-0.246-0.473-0.368-1.193-0.368-1.895v-2.369c0-1.439,0.368-2.617,1.123-3.336c0.737-0.719,2.124-1.193,3.738-1.193
		c1.615,0,2.984,0.352,3.739,1.07c0.754,0.703,1.246,2.02,1.246,3.459v4.158h-3.984V416.791L377.701,416.791z"/>
	<path fill-rule="evenodd" clip-rule="evenodd" d="M364.256,432.254c0,0.457,0.123,0.807,0.123,0.947
		c0.123,0.229,0.491,0.352,0.737,0.352c0.264,0,0.632-0.123,0.755-0.246c0.123-0.246,0.263-0.596,0.263-0.947v-5.477h3.967v5.002
		c0,1.422-0.509,2.615-1.246,3.336c-0.755,0.701-2.105,1.053-3.738,1.053c-1.598,0-2.861-0.352-3.599-1.053
		c-0.754-0.721-1.246-1.914-1.246-3.336v-14.602c0-1.439,0.369-2.617,1.106-3.336c0.754-0.719,2.141-1.193,3.738-1.193
		c1.633,0,2.983,0.352,3.738,1.07c0.737,0.703,1.246,2.02,1.246,3.459v7.828h-5.845V432.254L364.256,432.254z"/>
	<path fill-rule="evenodd" clip-rule="evenodd" d="M348.951,435.922v-22.816h3.844v1.807h0.141c0.228-0.596,0.614-1.211,1.105-1.439
		c0.509-0.367,1.123-0.596,1.878-0.596c0.982,0,1.737,0.352,2.106,0.824c0.509,0.615,0.737,1.791,0.737,3.213v8.197h-3.967v-7.725
		c0-0.35-0.141-0.701-0.246-0.947c-0.123-0.229-0.509-0.352-0.737-0.352c-0.263,0-0.649,0.123-0.649,0.352
		c-0.105,0.246-0.228,0.598-0.228,0.947v18.535H348.951L348.951,435.922z"/>
	<path fill-rule="evenodd" clip-rule="evenodd" d="M337.384,441.152v-28.047h3.844v1.807h0.123c0.246-0.596,0.614-1.211,1.123-1.439
		c0.51-0.367,1.124-0.596,1.861-0.596c1,0,1.737,0.352,2.105,0.824c0.51,0.615,0.755,1.791,0.755,3.213v15.094
		c0,1.545-0.245,2.721-0.614,3.213c-0.509,0.596-1.369,0.947-2.369,0.947c-0.614,0-1.229-0.246-1.738-0.49
		c-0.509-0.229-0.877-0.809-1.123-1.299v6.668L337.384,441.152L337.384,441.152z"/>
	<polygon fill-rule="evenodd" clip-rule="evenodd" points="326.045,435.922 328.292,423.918 326.168,413.105 330.152,413.105 
		331.136,420.6 332.153,413.229 332.153,413.105 335.997,413.105 334.014,423.918 336.507,435.922 332.522,435.922 330.89,426.777 
		329.644,435.922 326.045,435.922 	"/>
	<polygon fill-rule="evenodd" clip-rule="evenodd" points="315.707,435.922 315.707,407.418 325.536,407.418 325.536,411.332 
		320.183,411.332 320.183,418.459 325.431,418.459 325.431,422.268 320.183,422.268 320.183,432.008 325.536,432.008 
		325.536,435.922 315.707,435.922 	"/>
	<path fill-rule="evenodd" clip-rule="evenodd" d="M309.722,416.791c0-0.352-0.105-0.703-0.245-0.947
		c-0.123-0.229-0.492-0.352-0.737-0.352c-0.246,0-0.614,0.123-0.614,0.229c-0.141,0.246-0.264,0.596-0.264,1.07v1.299
		c0,0.49,0.123,1.088,0.264,1.439c0.104,0.473,0.491,0.965,0.736,1.422l2.861,3.316c0,0.141,0.246,0.369,0.369,0.492
		c1,1.176,1.632,2.615,1.632,4.037v3.088c0,1.422-0.509,2.615-1.246,3.336c-0.755,0.701-2.124,1.053-3.738,1.053
		c-1.633,0-2.861-0.352-3.598-1.053c-0.755-0.721-1.264-1.914-1.264-3.336v-5.002h3.984v5.477c0,0.352,0.123,0.701,0.123,0.842
		c0.141,0.229,0.509,0.352,0.755,0.352c0.245,0,0.614-0.123,0.737-0.246c0.14-0.246,0.245-0.596,0.245-0.947v-1.773
		c0-0.842-0.105-1.543-0.245-1.912c-0.123-0.352-0.492-0.824-0.737-1.193l-3.125-3.668c-0.737-0.949-1.229-1.791-1.351-2.266
		c-0.246-0.473-0.386-1.193-0.386-1.895v-2.369c0-1.439,0.386-2.617,1.123-3.336c0.755-0.719,2.106-1.193,3.739-1.193
		c1.614,0,2.983,0.352,3.738,1.07c0.737,0.703,1.246,2.02,1.246,3.459v4.158h-4.002V416.791L309.722,416.791z"/>
	<path fill-rule="evenodd" clip-rule="evenodd" d="M292.556,435.922v-22.816h3.862v1.807h0.123c0.246-0.596,0.632-1.211,1.124-1.439
		c0.491-0.367,1.123-0.596,1.878-0.596c0.983,0,1.738,0.352,2.106,0.824c0.491,0.615,0.737,1.791,0.737,3.213v8.197h-3.966v-7.725
		c0-0.35-0.141-0.701-0.264-0.947c-0.123-0.229-0.491-0.352-0.755-0.352c-0.228,0-0.614,0.123-0.614,0.352
		c-0.123,0.246-0.246,0.598-0.246,0.947v18.535H292.556L292.556,435.922z"/>
	<path fill-rule="evenodd" clip-rule="evenodd" d="M284.974,432.254c0,0.457,0.105,0.807,0.105,0.947
		c0.14,0.229,0.509,0.352,0.754,0.352c0.264,0,0.632-0.123,0.737-0.246c0.141-0.246,0.264-0.596,0.264-0.947v-5.477h3.984v5.002
		c0,1.422-0.509,2.615-1.246,3.336c-0.755,0.701-2.124,1.053-3.739,1.053c-1.614,0-2.86-0.352-3.598-1.053
		c-0.755-0.721-1.264-1.914-1.264-3.336v-14.602c0-1.439,0.386-2.617,1.124-3.336c0.755-0.719,2.124-1.193,3.738-1.193
		c1.615,0,2.984,0.352,3.739,1.07c0.737,0.703,1.246,2.02,1.246,3.459v7.828h-5.845V432.254L284.974,432.254z"/>
	<polygon fill-rule="evenodd" clip-rule="evenodd" points="275.127,435.922 275.127,407.418 279.111,407.418 279.111,435.922 
		275.127,435.922 	"/>
	<path fill-rule="evenodd" clip-rule="evenodd" d="M267.544,432.254c0,0.457,0.123,0.807,0.123,0.947
		c0.123,0.229,0.509,0.352,0.755,0.352c0.228,0,0.614-0.123,0.737-0.246c0.14-0.246,0.245-0.596,0.245-0.947v-5.477h4.002v5.002
		c0,1.422-0.509,2.615-1.264,3.336c-0.737,0.701-2.106,1.053-3.721,1.053c-1.633,0-2.861-0.352-3.616-1.053
		c-0.737-0.721-1.246-1.914-1.246-3.336v-14.602c0-1.439,0.369-2.617,1.124-3.336c0.737-0.719,2.106-1.193,3.739-1.193
		c1.615,0,2.983,0.352,3.721,1.07c0.755,0.703,1.264,2.02,1.264,3.459v7.828h-5.862V432.254L267.544,432.254z"/>
	<polygon fill-rule="evenodd" clip-rule="evenodd" points="254.345,435.922 251.239,413.105 254.977,413.105 257.083,431.518 
		258.821,413.105 262.56,413.105 259.453,435.922 254.345,435.922 	"/>
	<path fill-rule="evenodd" clip-rule="evenodd" d="M250.607,435.922h-3.984c0-0.105,0-0.35,0-0.473c0-0.229-0.123-0.475-0.123-0.721
		v-0.455c-0.369,0.701-0.86,1.176-1.369,1.404c-0.509,0.244-1.124,0.49-1.738,0.49c-1,0-1.755-0.352-2.124-0.842
		c-0.369-0.457-0.614-1.668-0.614-3.072v-4.879c0-1.193,0.246-2.264,0.509-2.861c0.228-0.596,0.982-1.299,1.86-1.773
		c0.246,0,0.614-0.244,0.86-0.473c1.755-0.965,2.615-2.02,2.615-3.213v-2.264c0-0.352-0.123-0.703-0.246-0.947
		c-0.123-0.229-0.509-0.352-0.755-0.352c-0.228,0-0.614,0.123-0.614,0.229c-0.123,0.246-0.263,0.596-0.263,1.07v4.65h-3.967v-4.158
		c0-1.439,0.369-2.617,1.124-3.336c0.737-0.719,2.106-1.193,3.721-1.193c1.632,0,3.001,0.352,3.739,1.07
		c0.754,0.703,1.246,1.896,1.246,3.459v16.023c0,0.475,0,0.967,0,1.316C250.484,435.08,250.607,435.572,250.607,435.922
		L250.607,435.922z"/>
	<path fill-rule="evenodd" clip-rule="evenodd" d="M229.316,435.922v-22.816h3.861v1.807h0.141c0.246-0.596,0.614-1.211,1.123-1.439
		c0.474-0.367,1.123-0.596,1.86-0.596c0.983,0,1.738,0.352,2.106,0.824c0.509,0.615,0.755,1.791,0.755,3.213v8.197h-3.984v-7.725
		c0-0.35-0.123-0.701-0.264-0.947c-0.105-0.229-0.474-0.352-0.737-0.352c-0.246,0-0.614,0.123-0.614,0.352
		c-0.14,0.246-0.246,0.598-0.246,0.947v18.535H229.316L229.316,435.922z"/>
	<polygon fill-rule="evenodd" clip-rule="evenodd" points="225.841,435.922 221.365,435.922 221.365,411.104 217.504,411.104 
		217.504,407.418 229.702,407.418 229.702,411.104 225.841,411.104 225.841,435.922 	"/>
	<polygon fill-rule="evenodd" clip-rule="evenodd" points="315.918,406.576 315.918,401.502 382.475,363.994 315.918,406.576 	"/>
	<polygon fill-rule="evenodd" clip-rule="evenodd" points="315.918,382.845 315.918,377.772 382.475,340.264 315.918,382.845 	"/>
	<polygon fill-rule="evenodd" clip-rule="evenodd" points="315.918,394.816 315.918,389.743 382.475,352.234 315.918,394.816 	"/>
	<polygon fill-rule="evenodd" clip-rule="evenodd" points="315.918,400.607 315.918,395.518 382.475,358.027 315.918,400.607 	"/>
	<polygon fill-rule="evenodd" clip-rule="evenodd" points="315.918,388.655 315.918,383.583 382.475,346.074 315.918,388.655 	"/>
	<path fill-rule="evenodd" clip-rule="evenodd" fill="#FFFFFF" d="M366.134,422.373v-5.582c0-0.352-0.14-0.703-0.263-0.947
		c-0.123-0.229-0.491-0.352-0.755-0.352c-0.246,0-0.614,0.123-0.614,0.229c-0.123,0.246-0.246,0.596-0.246,1.07v5.582H366.134
		L366.134,422.373z"/>
	<path fill-rule="evenodd" clip-rule="evenodd" fill="#FFFFFF" d="M341.351,417.387v14.377c0,0.49,0.141,0.842,0.141,0.947
		c0.105,0.123,0.474,0.246,0.737,0.246c0.245,0,0.614-0.123,0.755-0.246c0.105-0.105,0.228-0.457,0.228-0.947v-14.377
		c0-0.35-0.122-0.701-0.228-0.947c-0.141-0.229-0.51-0.352-0.755-0.352c-0.264,0-0.632,0.123-0.632,0.352
		C341.491,416.686,341.351,417.037,341.351,417.387L341.351,417.387z"/>
	<path fill-rule="evenodd" clip-rule="evenodd" fill="#FFFFFF" d="M286.834,422.373v-5.582c0-0.352-0.123-0.703-0.264-0.947
		c-0.105-0.229-0.474-0.352-0.737-0.352c-0.246,0-0.614,0.123-0.614,0.229c-0.14,0.246-0.246,0.596-0.246,1.07v5.582H286.834
		L286.834,422.373z"/>
	<path fill-rule="evenodd" clip-rule="evenodd" fill="#FFFFFF" d="M269.405,422.373v-5.582c0-0.352-0.105-0.703-0.245-0.947
		c-0.123-0.229-0.509-0.352-0.737-0.352c-0.246,0-0.632,0.123-0.632,0.229c-0.123,0.246-0.246,0.596-0.246,1.07v5.582H269.405
		L269.405,422.373z"/>
	<path fill-rule="evenodd" clip-rule="evenodd" fill="#FFFFFF" d="M244.622,427.252v4.512c0,0.49,0.14,0.842,0.14,0.947
		c0.123,0.123,0.509,0.246,0.737,0.246c0.246,0,0.632-0.123,0.755-0.246c0.123-0.105,0.246-0.457,0.246-0.947v-7.602
		c-0.754,0.475-1.229,0.949-1.492,1.316C244.762,425.83,244.622,426.531,244.622,427.252L244.622,427.252z"/>
</g>
</svg>
