<?xml version="1.0" encoding="utf-8"?>
<!-- Generator: Adobe Illustrator 14.0.0, SVG Export Plug-In . SVG Version: 6.00 Build 43363)  -->
<!DOCTYPE svg PUBLIC "-//W3C//DTD SVG 1.1//EN" "http://www.w3.org/Graphics/SVG/1.1/DTD/svg11.dtd">
<svg version="1.1" id="Layer_1" xmlns="http://www.w3.org/2000/svg" xmlns:xlink="http://www.w3.org/1999/xlink" x="0px" y="0px"
	 width="612px" height="792px" viewBox="0 0 612 792" enable-background="new 0 0 612 792" xml:space="preserve">
<g>
	<polygon fill-rule="evenodd" clip-rule="evenodd" fill="#FFFFFF" points="209,300 401.756,300 401.756,492.756 209,492.756 
		209,300 	"/>
	<path fill-rule="evenodd" clip-rule="evenodd" d="M319.912,372.85h2.563v-32.554c-0.847-0.277-1.7-0.539-2.563-0.778V372.85
		L319.912,372.85z"/>
	<path fill-rule="evenodd" clip-rule="evenodd" d="M324.307,372.85h2.563v-30.916c-0.844-0.354-1.699-0.688-2.563-1.004V372.85
		L324.307,372.85z"/>
	<path fill-rule="evenodd" clip-rule="evenodd" d="M332.836,372.85h2.041v-26.816c-0.672-0.412-1.353-0.808-2.041-1.193V372.85
		L332.836,372.85z"/>
	<path fill-rule="evenodd" clip-rule="evenodd" d="M315.533,372.85h2.547v-33.809c-0.843-0.206-1.69-0.396-2.547-0.564V372.85
		L315.533,372.85z"/>
	<path fill-rule="evenodd" clip-rule="evenodd" d="M328.702,372.85h2.416v-28.936c-0.794-0.411-1.602-0.799-2.416-1.174V372.85
		L328.702,372.85z"/>
	<path fill-rule="evenodd" clip-rule="evenodd" d="M298.923,372.85h3.888v-35.469c-1.307,0.027-2.604,0.094-3.888,0.206V372.85
		L298.923,372.85z"/>
	<path fill-rule="evenodd" clip-rule="evenodd" d="M310.491,372.85h3.211v-34.701c-1.063-0.174-2.131-0.324-3.211-0.441V372.85
		L310.491,372.85z"/>
	<path fill-rule="evenodd" clip-rule="evenodd" d="M284.923,372.85h4.785v-33.724c-1.622,0.406-3.22,0.874-4.785,1.411V372.85
		L284.923,372.85z"/>
	<path fill-rule="evenodd" clip-rule="evenodd" d="M292.5,372.85h4.329v-35.046c-1.46,0.178-2.903,0.41-4.329,0.693V372.85
		L292.5,372.85z"/>
	<path fill-rule="evenodd" clip-rule="evenodd" d="M304.905,372.85h3.494v-35.333c-1.155-0.084-2.321-0.128-3.494-0.144V372.85
		L304.905,372.85z"/>
	<path fill-rule="evenodd" clip-rule="evenodd" d="M340.679,350.096c-0.439-0.349-0.886-0.689-1.336-1.026v23.78h1.336V350.096
		L340.679,350.096z"/>
	<path fill-rule="evenodd" clip-rule="evenodd" d="M346.485,437.402c0.484-0.5,0.959-1.01,1.425-1.527v-16.766h-1.425V437.402
		L346.485,437.402z"/>
	<path fill-rule="evenodd" clip-rule="evenodd" d="M355.822,368.017c-0.457-0.833-0.929-1.656-1.425-2.463v7.296h1.425V368.017
		L355.822,368.017z"/>
	<path fill-rule="evenodd" clip-rule="evenodd" d="M336.178,372.85h1.863v-24.726c-0.611-0.433-1.233-0.853-1.863-1.262V372.85
		L336.178,372.85z"/>
	<path fill-rule="evenodd" clip-rule="evenodd" d="M353.516,419.109h-1.953v12.293c0.674-0.914,1.33-1.842,1.953-2.795V419.109
		L353.516,419.109z"/>
	<path fill-rule="evenodd" clip-rule="evenodd" d="M350.68,419.109h-1.887v15.764c0.647-0.752,1.276-1.52,1.887-2.305V419.109
		L350.68,419.109z"/>
	<path fill-rule="evenodd" clip-rule="evenodd" d="M351.563,372.85h1.953v-8.682c-0.625-0.957-1.276-1.895-1.953-2.813V372.85
		L351.563,372.85z"/>
	<path fill-rule="evenodd" clip-rule="evenodd" d="M348.793,372.85h1.887v-12.67c-0.608-0.782-1.241-1.542-1.887-2.292V372.85
		L348.793,372.85z"/>
	<path fill-rule="evenodd" clip-rule="evenodd" d="M355.822,419.109h-1.425v8.092c0.493-0.803,0.971-1.617,1.425-2.445V419.109
		L355.822,419.109z"/>
	<path fill-rule="evenodd" clip-rule="evenodd" d="M356.705,372.85h1.5c-0.467-1.073-0.972-2.125-1.5-3.164V372.85L356.705,372.85z"
		/>
	<path fill-rule="evenodd" clip-rule="evenodd" d="M346.485,372.85h1.425v-15.977c-0.466-0.517-0.94-1.026-1.425-1.526V372.85
		L346.485,372.85z"/>
	<path fill-rule="evenodd" clip-rule="evenodd" d="M356.705,419.109v3.982c0.661-1.301,1.277-2.629,1.842-3.982H356.705
		L356.705,419.109z"/>
	<path fill-rule="evenodd" clip-rule="evenodd" d="M277.346,372.85h4.786v-31.274c-1.633,0.654-3.229,1.38-4.786,2.172V372.85
		L277.346,372.85z"/>
	<path fill-rule="evenodd" clip-rule="evenodd" d="M341.979,351.15v21.7h1.139v-20.713
		C342.742,351.804,342.365,351.473,341.979,351.15L341.979,351.15z"/>
	<path fill-rule="evenodd" clip-rule="evenodd" d="M343.118,419.109h-1.139v22.494c0.386-0.322,0.763-0.654,1.139-0.986V419.109
		L343.118,419.109z"/>
	<path fill-rule="evenodd" clip-rule="evenodd" d="M340.679,419.109h-1.336v24.58c0.449-0.336,0.896-0.672,1.336-1.02V419.109
		L340.679,419.109z"/>
	<path fill-rule="evenodd" clip-rule="evenodd" d="M267.775,372.85h6.78v-27.588c-2.369,1.371-4.634,2.897-6.78,4.573V372.85
		L267.775,372.85z"/>
	<path fill-rule="evenodd" clip-rule="evenodd" d="M334.877,419.109h-2.041v28.805c0.688-0.387,1.369-0.783,2.041-1.195V419.109
		L334.877,419.109z"/>
	<path fill-rule="evenodd" clip-rule="evenodd" d="M345.603,354.465c-0.39-0.386-0.783-0.766-1.184-1.141v19.526h1.184V354.465
		L345.603,354.465z"/>
	<path fill-rule="evenodd" clip-rule="evenodd" d="M264.983,419.109h-7.178v13.908c2.167,2.732,4.569,5.268,7.178,7.574V419.109
		L264.983,419.109z"/>
	<path fill-rule="evenodd" clip-rule="evenodd" d="M257.805,372.85h7.178v-20.689c-2.609,2.309-5.012,4.845-7.178,7.577V372.85
		L257.805,372.85z"/>
	<path fill-rule="evenodd" clip-rule="evenodd" d="M345.603,419.109h-1.184v20.324c0.399-0.373,0.796-0.748,1.184-1.133V419.109
		L345.603,419.109z"/>
	<path fill-rule="evenodd" clip-rule="evenodd" d="M255.014,363.549c-1.961,2.926-3.668,6.036-5.089,9.3h5.089V363.549
		L255.014,363.549z"/>
	<path fill-rule="evenodd" clip-rule="evenodd" d="M255.014,419.109h-5.431c1.484,3.553,3.312,6.924,5.431,10.084V419.109
		L255.014,419.109z"/>
	<path fill-rule="evenodd" clip-rule="evenodd" d="M338.041,419.109h-1.863v26.785c0.63-0.408,1.251-0.83,1.863-1.264V419.109
		L338.041,419.109z"/>
	<path fill-rule="evenodd" clip-rule="evenodd" d="M296.829,419.109H292.5v35.15c1.426,0.285,2.869,0.514,4.329,0.693V419.109
		L296.829,419.109z"/>
	<path fill-rule="evenodd" clip-rule="evenodd" d="M289.708,419.109h-4.785v33.107c1.566,0.537,3.163,1.008,4.785,1.414V419.109
		L289.708,419.109z"/>
	<path fill-rule="evenodd" clip-rule="evenodd" d="M282.132,419.109h-4.786v29.898c1.557,0.793,3.152,1.523,4.786,2.178V419.109
		L282.132,419.109z"/>
	<path fill-rule="evenodd" clip-rule="evenodd" d="M274.555,447.502v-28.393h-6.78v23.811
		C269.922,444.596,272.185,446.131,274.555,447.502L274.555,447.502z"/>
	<path fill-rule="evenodd" clip-rule="evenodd" d="M331.118,419.109h-2.416v30.906c0.814-0.375,1.621-0.766,2.416-1.178V419.109
		L331.118,419.109z"/>
	<path fill-rule="evenodd" clip-rule="evenodd" d="M302.811,419.109h-3.888v36.061c1.285,0.111,2.582,0.178,3.888,0.205V419.109
		L302.811,419.109z"/>
	<path fill-rule="evenodd" clip-rule="evenodd" d="M308.398,419.109h-3.494v36.273c1.173-0.016,2.338-0.061,3.494-0.145V419.109
		L308.398,419.109z"/>
	<path fill-rule="evenodd" clip-rule="evenodd" d="M326.869,419.109h-2.563v32.719c0.863-0.316,1.718-0.652,2.563-1.008V419.109
		L326.869,419.109z"/>
	<path fill-rule="evenodd" clip-rule="evenodd" d="M322.475,419.109h-2.563v34.133c0.862-0.24,1.716-0.504,2.563-0.781V419.109
		L322.475,419.109z"/>
	<path fill-rule="evenodd" clip-rule="evenodd" d="M318.08,419.109h-2.547v35.172c0.856-0.168,1.704-0.359,2.547-0.564V419.109
		L318.08,419.109z"/>
	<path fill-rule="evenodd" clip-rule="evenodd" d="M313.702,419.109h-3.211v35.938c1.08-0.117,2.148-0.266,3.211-0.439V419.109
		L313.702,419.109z"/>
	<polygon fill-rule="evenodd" clip-rule="evenodd" points="217.885,374.253 224.969,398.096 233.089,398.096 236.594,386.865 
		240,398.096 248.293,398.096 255.204,374.253 246.22,374.253 243.505,385.31 240.173,374.253 232.743,374.253 229.51,385.483 
		226.523,374.253 217.885,374.253 	"/>
	<polygon fill-rule="evenodd" clip-rule="evenodd" points="298.398,374.253 298.398,398.096 314.466,398.096 314.466,390.667 
		307.26,390.667 307.26,374.253 298.398,374.253 	"/>
	<path fill-rule="evenodd" clip-rule="evenodd" d="M327.771,374.253c5.479,0,11.106,5.01,11.106,12.612s-6.047,11.23-11.453,11.23
		c-5.405,0-11.921,0-11.921,0v-23.843C315.503,374.253,322.291,374.253,327.771,374.253L327.771,374.253z M324.191,381.164v9.848
		c0,0,5.528,1.728,5.528-4.837C329.72,379.609,324.191,381.164,324.191,381.164L324.191,381.164z"/>
	<polygon fill-rule="evenodd" clip-rule="evenodd" points="332.607,374.253 332.607,380.991 337.618,380.991 337.618,398.096 
		346.084,398.096 346.084,380.991 351.095,380.991 351.095,374.253 332.607,374.253 	"/>
	<path fill-rule="evenodd" clip-rule="evenodd" fill="#FFFFFF" d="M351.095,373.463h-19.276v8.317c0,0,3.89,0,5.011,0
		c0,1.436,0,17.104,0,17.104h10.045c0,0,0-15.668,0-17.104c1.12,0,5.011,0,5.011,0v-8.317H351.095L351.095,373.463z"/>
	<polygon fill-rule="evenodd" clip-rule="evenodd" points="332.607,374.253 332.607,380.991 337.618,380.991 337.618,398.096 
		346.084,398.096 346.084,380.991 351.095,380.991 351.095,374.253 332.607,374.253 	"/>
	<polygon fill-rule="evenodd" clip-rule="evenodd" points="369.754,374.253 369.754,398.096 378.048,398.096 378.048,390.321 
		383.404,398.096 393.252,398.096 385.872,386.347 392.734,374.253 383.231,374.253 378.097,382.497 378.097,374.253 
		369.754,374.253 	"/>
	<polygon fill-rule="evenodd" clip-rule="evenodd" points="317.625,401.205 304.791,401.205 304.791,406.389 308.247,406.389 
		308.247,417.273 313.998,417.273 313.998,406.389 317.625,406.389 317.625,401.205 	"/>
	<polygon fill-rule="evenodd" clip-rule="evenodd" points="383.453,412.6 383.453,401.398 377.701,401.398 377.701,412.6 
		377.688,412.6 377.688,417.283 388.649,417.283 388.649,412.6 383.453,412.6 	"/>
	<polygon fill-rule="evenodd" clip-rule="evenodd" points="376.382,405.881 376.382,401.195 365.421,401.195 365.421,405.881 
		365.435,405.881 365.435,407.23 365.421,407.23 365.421,411.248 365.435,411.248 365.435,412.6 365.421,412.6 365.421,417.283 
		376.382,417.283 376.382,412.6 371.187,412.6 371.187,411.248 376.382,411.248 376.382,407.23 371.187,407.23 371.187,405.881 
		376.382,405.881 	"/>
	<path fill-rule="evenodd" clip-rule="evenodd" d="M289.759,374.253c3.159,0,7.997,2.246,7.997,7.947s-4.665,6.739-4.665,6.739
		l12.613,20.905l-7.602,4.146l-13.304-20.732v4.837h-8.516v-23.843C276.283,374.253,286.599,374.253,289.759,374.253
		L289.759,374.253z M284.625,380.991v4.737c0,0,0.719,0,2.146,0c1.426,0,2.033-1.318,2.033-2.289s-0.52-2.448-2.081-2.448
		S284.625,380.991,284.625,380.991L284.625,380.991z"/>
	<polygon fill-rule="evenodd" clip-rule="evenodd" points="359.181,401.344 356.254,409.469 353.278,401.205 347.477,401.205 
		353.264,417.273 353.442,417.273 353.394,417.412 359.195,417.412 364.983,401.344 359.181,401.344 	"/>
	<path fill-rule="evenodd" clip-rule="evenodd" d="M345.09,417.412h5.802l-5.787-16.068h-0.18l0.05-0.139h-5.802l-5.788,16.068
		h5.803l0.552-1.533h4.749L345.09,417.412L345.09,417.412z M341.257,411.531l0.856-2.383l0.857,2.383H341.257L341.257,411.531z"/>
	<path fill-rule="evenodd" clip-rule="evenodd" d="M333.385,417.273l-3.676-5.902c2.108-0.885,3.012-2.617,3.012-5.107
		c0-3.76-3.118-5.059-5.364-5.059c-1.415,0-2.601,0-3.285,0h-0.634h-5.169v16.068h5.803v-3.654l2.404,3.654H333.385L333.385,417.273
		z M325.205,406.223c0.84,0,1.239,0.68,1.239,1.199s-0.24,1.279-0.879,1.279c-0.315,0-0.94,0-1.494,0v-2.479
		C324.415,406.223,324.83,406.223,325.205,406.223L325.205,406.223z"/>
	<path fill-rule="evenodd" clip-rule="evenodd" d="M277.574,387.161c0,6.949-5.954,12.583-13.298,12.583
		c-7.345,0-13.298-5.634-13.298-12.583c0-6.95,5.954-12.583,13.298-12.583C271.62,374.578,277.574,380.211,277.574,387.161
		L277.574,387.161z M264.276,382.361c-2.5,0-4.527,2.149-4.527,4.8c0,2.65,2.027,4.799,4.527,4.799c2.5,0,4.527-2.148,4.527-4.799
		C268.803,384.51,266.776,382.361,264.276,382.361L264.276,382.361z"/>
	<path fill-rule="evenodd" clip-rule="evenodd" fill="#FFFFFF" d="M250.188,387.161c0,7.374,6.32,13.372,14.088,13.372
		s14.088-5.999,14.088-13.372c0-7.374-6.32-13.374-14.088-13.374S250.188,379.787,250.188,387.161L250.188,387.161z"/>
	<path fill-rule="evenodd" clip-rule="evenodd" d="M277.574,387.161c0,6.949-5.954,12.583-13.298,12.583
		c-7.345,0-13.298-5.634-13.298-12.583c0-6.95,5.954-12.583,13.298-12.583C271.62,374.578,277.574,380.211,277.574,387.161
		L277.574,387.161z M264.276,382.361c-2.5,0-4.527,2.149-4.527,4.8c0,2.65,2.027,4.799,4.527,4.799c2.5,0,4.527-2.148,4.527-4.799
		C268.803,384.51,266.776,382.361,264.276,382.361L264.276,382.361z"/>
	<polygon fill-rule="evenodd" clip-rule="evenodd" points="352.181,374.253 352.181,398.096 368.767,398.096 368.767,391.777 
		360.646,391.777 360.646,389.358 367.73,389.457 367.73,384.274 360.646,384.175 360.646,380.991 368.767,380.991 368.767,374.253 
		352.181,374.253 	"/>
	<polygon fill-rule="evenodd" clip-rule="evenodd" points="288.73,403.645 217.504,403.623 217.504,417.273 297.5,417.273 
		288.73,403.645 	"/>
</g>
</svg>
