<?xml version="1.0" encoding="utf-8"?>
<!-- Generator: Adobe Illustrator 14.0.0, SVG Export Plug-In . SVG Version: 6.00 Build 43363)  -->
<!DOCTYPE svg PUBLIC "-//W3C//DTD SVG 1.1//EN" "http://www.w3.org/Graphics/SVG/1.1/DTD/svg11.dtd">
<svg version="1.1" id="Layer_1" xmlns="http://www.w3.org/2000/svg" xmlns:xlink="http://www.w3.org/1999/xlink" x="0px" y="0px"
	 width="612px" height="792px" viewBox="0 0 612 792" enable-background="new 0 0 612 792" xml:space="preserve">
<g>
	<polygon fill-rule="evenodd" clip-rule="evenodd" fill="#FFFFFF" points="209,300 401.756,300 401.756,492.756 209,492.756 
		209,300 	"/>
	<polygon fill-rule="evenodd" clip-rule="evenodd" points="217.504,387.811 230.123,387.811 230.123,391.709 223.352,391.709 
		223.352,394.377 229.713,394.377 229.713,398.07 223.352,398.07 223.352,401.047 230.431,401.047 230.431,404.945 217.504,404.945 
		217.504,387.811 	"/>
	<polygon fill-rule="evenodd" clip-rule="evenodd" points="240.691,387.811 246.847,387.811 242.435,404.945 234.843,404.945 
		230.431,387.811 236.792,387.811 238.639,401.047 238.741,401.047 240.691,387.811 	"/>
	<polygon fill-rule="evenodd" clip-rule="evenodd" points="247.052,387.811 259.671,387.811 259.671,391.709 252.9,391.709 
		252.9,394.377 259.261,394.377 259.261,398.07 252.9,398.07 252.9,401.047 259.979,401.047 259.979,404.945 247.052,404.945 
		247.052,387.811 	"/>
	<polygon fill-rule="evenodd" clip-rule="evenodd" points="269.828,387.811 275.369,387.811 275.369,404.945 269.11,404.945 
		265.827,394.377 265.725,394.377 265.725,404.945 260.389,404.945 260.389,387.811 266.75,387.811 269.726,398.275 
		269.828,398.275 269.828,387.811 	"/>
	<polygon fill-rule="evenodd" clip-rule="evenodd" points="275.779,387.811 289.732,387.811 289.732,391.812 285.731,391.812 
		285.731,404.945 279.78,404.945 279.78,391.812 275.779,391.812 275.779,387.811 	"/>
	<path fill-rule="evenodd" clip-rule="evenodd" d="M296.606,392.017c0-0.718-0.41-1.436-1.437-1.436
		c-0.82,0-1.333,0.616-1.333,1.333c0,3.386,8.823,1.642,8.823,7.798c0,4-2.257,5.643-7.695,5.643c-4.514,0-6.977-1.334-6.977-5.027
		v-0.514h5.643v0.82c0,0.822,0.41,1.539,1.539,1.539c1.026,0,1.437-0.82,1.437-1.539c0-1.127-0.513-1.332-1.333-1.744
		c-0.718-0.307-1.847-0.717-2.873-1.127c-3.18-1.335-4.207-2.258-4.207-4.823c0-2.36,0.821-3.693,2.155-4.412
		c1.026-0.615,2.565-1.128,4.822-1.128c5.951,0,6.977,2.462,6.977,5.335h-5.541V392.017L296.606,392.017z"/>
	<polygon fill-rule="evenodd" clip-rule="evenodd" points="301.428,388.016 317.946,388.016 317.536,389.453 310.354,389.453 
		306.147,404.945 304.096,404.945 308.302,389.453 301.12,389.453 301.428,388.016 	"/>
	<path fill-rule="evenodd" clip-rule="evenodd" d="M320.203,389.453h8.105c2.052,0,3.386,1.026,3.283,3.078
		c-0.104,2.667-4.104,3.488-6.259,3.591h-6.874L320.203,389.453L320.203,389.453z M314.15,404.945h2.052l1.949-7.49h7.387
		c2.155,0,2.873,1.129,2.873,2.77c0,1.027-0.308,2.053-0.308,2.977c0,0.205,0.103,1.641,0.308,1.744h2.052
		c-0.205-0.309-0.308-1.027-0.308-1.438c0-1.129,0.308-2.359,0.308-3.488c0-1.539-0.718-2.77-2.668-3.078v-0.102
		c3.078-0.104,5.335-2.052,5.335-4.617c0-2.77-2.052-4.207-5.54-4.207h-8.926L314.15,404.945L314.15,404.945z"/>
	<path fill-rule="evenodd" clip-rule="evenodd" d="M344.519,389.453h0.103l1.744,8.926h-8.311L344.519,389.453L344.519,389.453z
		 M330.976,404.945h2.258l3.898-5.232h9.541l1.026,5.232h2.154l-3.796-16.929h-2.257L330.976,404.945L330.976,404.945z"/>
	<polygon fill-rule="evenodd" clip-rule="evenodd" points="349.136,388.016 351.188,388.016 353.855,403.611 353.958,403.611 
		364.73,388.016 366.885,388.016 354.778,404.945 352.419,404.945 349.136,388.016 	"/>
	<polygon fill-rule="evenodd" clip-rule="evenodd" points="367.5,388.016 381.658,388.016 381.248,389.453 369.142,389.453 
		367.5,395.506 378.786,395.506 378.479,396.941 367.192,396.941 365.448,403.611 377.76,403.611 377.35,404.945 362.986,404.945 
		367.5,388.016 	"/>
	<polygon fill-rule="evenodd" clip-rule="evenodd" points="383.813,388.016 385.763,388.016 381.658,403.611 393.252,403.611 
		392.842,404.945 379.299,404.945 383.813,388.016 	"/>
</g>
</svg>
