<?xml version="1.0" encoding="utf-8"?>
<!-- Generator: Adobe Illustrator 14.0.0, SVG Export Plug-In . SVG Version: 6.00 Build 43363)  -->
<!DOCTYPE svg PUBLIC "-//W3C//DTD SVG 1.1//EN" "http://www.w3.org/Graphics/SVG/1.1/DTD/svg11.dtd">
<svg version="1.1" id="Layer_1" xmlns="http://www.w3.org/2000/svg" xmlns:xlink="http://www.w3.org/1999/xlink" x="0px" y="0px"
	 width="612px" height="792px" viewBox="0 0 612 792" enable-background="new 0 0 612 792" xml:space="preserve">
<g>
	<polygon fill-rule="evenodd" clip-rule="evenodd" fill="#FFFFFF" points="209,300 401.756,300 401.756,492.756 209,492.756 
		209,300 	"/>
	<path fill-rule="evenodd" clip-rule="evenodd" fill="#262829" d="M316.313,396.605c0,6.299-4.869,11.32-10.979,11.32
		c-6.021,0-10.891-5.021-10.891-11.32c0-6.207,4.87-11.228,10.891-11.228C311.443,385.378,316.313,390.399,316.313,396.605
		L316.313,396.605z"/>
	<polygon fill-rule="evenodd" clip-rule="evenodd" fill="#262829" points="319.943,384.921 305.334,390.946 290.813,384.921 
		305.334,378.896 319.943,384.921 	"/>
	<polygon fill="none" stroke="#FFFFFF" stroke-width="0.9506" stroke-miterlimit="2.6131" points="319.943,384.921 305.334,390.946 
		290.813,384.921 305.334,378.896 319.943,384.921 	"/>
	<path fill-rule="evenodd" clip-rule="evenodd" fill="#262829" d="M393.168,388.938c0,0-61.892,2.282-70.657,2.739
		c-7.703,0.365-15.317,2.191-17.177,6.847c-1.771-4.656-9.474-6.482-17.089-6.847c-8.766-0.457-70.657-2.739-70.657-2.739
		s-1.328,2.282,6.552,2.739c3.896,0.183,21.073,2.1,37.542,3.925c-0.354,0.548-0.62,1.187-0.62,1.917
		c0,1.824,1.328,3.195,3.01,3.195c1.771,0,3.099-1.371,3.099-3.195c0-0.457-0.088-0.914-0.266-1.37
		c15.052,1.735,28.245,3.194,28.333,3.194c-0.266,1.006-0.442,2.1-0.442,3.195c0,6.209,4.87,11.32,10.979,11.32
		c6.021,0,10.979-5.111,10.979-11.32c0-1.186-0.531-2.189-0.886-3.285c0,0,13.016-1.461,27.979-3.104
		c-0.177,0.365-0.354,0.913-0.354,1.37c0,1.824,1.417,3.195,3.1,3.195c1.682,0,3.099-1.371,3.099-3.195
		c0-0.73-0.266-1.461-0.708-2.009c16.469-1.734,33.734-3.651,37.63-3.834C394.496,391.22,393.168,388.938,393.168,388.938
		L393.168,388.938z"/>
	<path fill="none" stroke="#FFFFFF" stroke-width="1.9015" stroke-miterlimit="2.6131" d="M393.168,388.938
		c0,0-61.892,2.282-70.657,2.739c-7.703,0.365-15.317,2.191-17.177,6.847c-1.771-4.656-9.474-6.482-17.089-6.847
		c-8.766-0.457-70.657-2.739-70.657-2.739s-1.328,2.282,6.552,2.739c3.896,0.182,21.073,2.1,37.542,3.925
		c-0.354,0.548-0.62,1.187-0.62,1.917c0,1.824,1.328,3.195,3.011,3.195c1.771,0,3.099-1.371,3.099-3.195
		c0-0.457-0.088-0.914-0.266-1.37c15.052,1.735,28.333,3.194,28.333,3.194c-0.266,1.006-0.442,2.1-0.442,3.195
		c0,6.209,4.87,11.32,10.979,11.32c6.021,0,10.979-5.111,10.979-11.32c0-1.186-0.531-2.189-0.886-3.285
		c0,0,13.016-1.461,27.979-3.104c-0.177,0.365-0.354,0.913-0.354,1.37c0,1.824,1.417,3.195,3.1,3.195
		c1.682,0,3.099-1.371,3.099-3.195c0-0.73-0.266-1.461-0.708-2.009c16.469-1.734,33.734-3.652,37.63-3.834
		C394.496,391.22,393.168,388.938,393.168,388.938"/>
	<path fill-rule="evenodd" clip-rule="evenodd" fill="#262829" d="M393.168,388.938c0,0-61.892,2.282-70.657,2.739
		c-7.703,0.365-15.317,2.191-17.177,6.847c-1.771-4.656-9.474-6.482-17.089-6.847c-8.766-0.457-70.657-2.739-70.657-2.739
		s-1.328,2.282,6.552,2.739c3.896,0.183,21.073,2.1,37.542,3.925c-0.354,0.548-0.62,1.187-0.62,1.917
		c0,1.824,1.328,3.195,3.01,3.195c1.771,0,3.099-1.371,3.099-3.195c0-0.457-0.088-0.914-0.266-1.37
		c15.052,1.735,28.245,3.194,28.333,3.194c-0.266,1.006-0.442,2.1-0.442,3.195c0,6.209,4.87,11.32,10.979,11.32
		c6.021,0,10.979-5.111,10.979-11.32c0-1.186-0.531-2.189-0.886-3.285c0,0,13.016-1.461,27.979-3.104
		c-0.177,0.365-0.354,0.913-0.354,1.37c0,1.824,1.417,3.195,3.1,3.195c1.682,0,3.099-1.371,3.099-3.195
		c0-0.73-0.266-1.461-0.708-2.009c16.469-1.734,33.734-3.651,37.63-3.834C394.496,391.22,393.168,388.938,393.168,388.938
		L393.168,388.938z"/>
</g>
</svg>
