<svg xmlns="http://www.w3.org/2000/svg" xmlns:xlink="http://www.w3.org/1999/xlink" width="68" height="55" viewBox="0 0 68 55"><defs><path id="fb10a" d="M994.95 487.3c-.16.2-.33.37-.52.53l-4.37 3.75c-.74.64-1.8.64-2.54 0-4.5-3.89-4.47-3.77-4.89-4.27a4.52 4.52 0 0 1 6.16-6.52 4.52 4.52 0 0 1 6.16 6.52zm-1.49-4.59a2.6 2.6 0 0 0-3.66-.28l-.39.33c-.35.3-.88.3-1.24 0l-.39-.33a2.6 2.6 0 0 0-3.68 3.64c.24.3.03.06 4.67 4.06.04.04-.21.2 4.41-3.75l.3-.3c.83-.98.82-2.4-.02-3.37zm-11.82-7.09c-2.02 1.62-2.25 2.23-3.13 2.23-.9 0-1.16-.65-3.14-2.23a2.73 2.73 0 0 1 3.14-4.46 2.74 2.74 0 0 1 3.13 4.46zm-1.16-2.6a.82.82 0 0 0-1.16-.1l-.19.17c-.36.3-.89.3-1.25 0-.12-.09-.3-.37-.72-.37a.82.82 0 0 0-.63 1.35c.08.1.01.03 1.98 1.72l1.88-1.62c.35-.3.39-.81.09-1.16zm5.03-6.38a1.2 1.2 0 1 1 0 2.4 1.2 1.2 0 0 1 0-2.4zm3.6 7.69a1.2 1.2 0 1 1 0 2.4 1.2 1.2 0 0 1 0-2.4zm-12.53 7.69a1.2 1.2 0 1 1 0 2.4 1.2 1.2 0 0 1 0-2.4zm54.02 32.36l-6.5 3.54a2.1 2.1 0 0 1-2.85-.84l-9.76-17.95v17.04a2 2 0 0 1-2 2H968.3a2 2 0 0 1-2-2V497.1c0-1.22 1-2.22 2.22-2.22h4.62a.96.96 0 1 1 0 1.92h-4.62a.3.3 0 0 0-.3.3v19.07c0 .05.04.09.08.09h14.57V496.8h-5.26a.96.96 0 0 1 0-1.92h31.57l-9.4-17.27a2.1 2.1 0 0 1 .84-2.85l6.51-3.54a2.1 2.1 0 0 1 2.85.84l2.66 4.9a.96.96 0 0 1-1.68.91l-2.67-4.9a.19.19 0 0 0-.24-.07c-6.86 3.77-6.55 3.5-6.6 3.65-.04.16-.3-.5 8.14 15.08l6.8-3.75-3.3-6.08a.96.96 0 0 1 1.69-.91l2.28 4.2a4.66 4.66 0 0 1 8.43 3.91 4.64 4.64 0 0 1-1.3 9.21l7.25 13.33a2.1 2.1 0 0 1-.84 2.84zm-44.73-17.58h-1.08v19.46h1.08zm3.05 0h-1.13v19.46h1.13zm20.65 0h-15.74v11.41a.96.96 0 1 1-1.91 0V496.8h-1.09v19.46h1.09v-3.58a.96.96 0 1 1 1.91 0v3.58h15.65c.18 0 .05 1.07.1-19.46zm13.9-5.62l-2.4 1.29 1.52 2.79a2.73 2.73 0 1 0 .87-4.08zm-4.67-2.9l1.36 2.5 2.4-1.28c2.47-1.34 1.55-5.15-1.3-5.15-2.01 0-3.34 2.12-2.46 3.93zm-1 2.21l-.5-.92-6.8 3.74.55 1zm-5.3 6.5l6.75-3.82-.54-1-6.74 3.83zm1.41 2.59l6.78-3.74-.53-.98-6.74 3.82zm7.73-2.07l-6.81 3.75 8.1 14.9c.05.1.16.13.25.08l6.5-3.54c.32-.17.33.39-8.04-15.19z"/></defs><g><g transform="translate(-965 -465)"><use fill="#f5576c" xlink:href="#fb10a"/></g></g></svg>