<svg xmlns="http://www.w3.org/2000/svg" xmlns:xlink="http://www.w3.org/1999/xlink" width="73" height="73" viewBox="0 0 73 73"><defs><path id="hpopa" d="M1095.21 7240.5a9.9 9.9 0 0 1-15.86 7.86v17.63c0 .76-.62 1.38-1.39 1.38h-21.26a1.39 1.39 0 0 1-.7-2.59 7.11 7.11 0 1 0-7.05 0 1.39 1.39 0 0 1-.68 2.6H1027c-.76 0-1.39-.63-1.39-1.4v-21.26a1.39 1.39 0 0 1 2.6-.69 7.12 7.12 0 1 0 0-7.05 1.39 1.39 0 0 1-2.6-.69v-21.26c0-.77.63-1.39 1.4-1.39h17.62a9.9 9.9 0 0 1 7.85-15.87 9.9 9.9 0 0 1 7.86 15.87h17.62c.77 0 1.39.62 1.39 1.39v17.62a9.9 9.9 0 0 1 15.87 7.86zm-2.77 0a7.11 7.11 0 0 0-13.27-3.52 1.39 1.39 0 0 1-2.6-.69v-19.88h-19.87a1.39 1.39 0 0 1-.7-2.59 7.11 7.11 0 1 0-7.05 0 1.39 1.39 0 0 1-.68 2.6h-19.88v16.23a9.9 9.9 0 1 1 5.99 17.74c-2.2 0-4.3-.74-6-2.03v16.24h16.25a9.9 9.9 0 1 1 17.73-5.99 9.9 9.9 0 0 1-2.02 6h16.24v-19.89a1.39 1.39 0 0 1 2.59-.69 7.12 7.12 0 0 0 13.28-3.53zm-17.74-20.54c0 .76-.63 1.38-1.4 1.38h-1.24a1.39 1.39 0 1 1 0-2.77h1.25c.76 0 1.39.62 1.39 1.39zm-6.24 0c0 .76-.62 1.38-1.39 1.38h-9.15a1.39 1.39 0 1 1 0-2.77h9.15c.77 0 1.39.62 1.39 1.39z"/><linearGradient id="hpopb" x1="1040.21" x2="1080.62" y1="7267.37" y2="7197.77" gradientUnits="userSpaceOnUse"><stop offset="0" stop-color="#f5576c"/><stop offset="1" stop-color="#f461ec"/></linearGradient></defs><g><g transform="translate(-1024 -7196)"><use xlink:href="#hpopa"/><use fill="url(#hpopb)" xlink:href="#hpopa"/></g></g></svg>