<svg xmlns="http://www.w3.org/2000/svg" xmlns:xlink="http://www.w3.org/1999/xlink" width="64" height="63" viewBox="0 0 64 63"><defs><path id="7jgha" d="M529.67 495.82l-6.15 6.15a.83.83 0 0 1-1.18 0 .84.84 0 0 1 0-1.19l6.15-6.15a.84.84 0 0 1 1.18 1.19zm4.3 4.3l-6.15 6.14a.83.83 0 0 1-1.18 0 .84.84 0 0 1 0-1.18l6.15-6.15a.84.84 0 1 1 1.18 1.18zm8.6 8.59l-6.15 6.15a.83.83 0 0 1-1.19 0 .84.84 0 0 1 0-1.18l6.16-6.15a.84.84 0 0 1 1.18 1.18zm-4.3-4.3l-6.15 6.15a.84.84 0 0 1-1.19-1.18l6.16-6.15a.84.84 0 1 1 1.18 1.18zm28.44-11.97l-36.68 36.67a1 1 0 0 1-1.02.25.98.98 0 0 1-.66-.78l-.62-3.93-4-.62a.98.98 0 0 1-.81-.82l-.63-4-4-.62-.07-.02a.98.98 0 0 1-.75-.8l-.63-4-3.7-.58a.98.98 0 0 1-.82-.82l-.58-3.7-3.92-.61a.98.98 0 0 1-.78-.67 1 1 0 0 1 .25-1.01l26.84-26.84a.84.84 0 0 1 1.18 1.19l-18.97 18.97 13.32 13.32a.84.84 0 1 1-1.18 1.18l-13.33-13.32-5.73 5.74 3.08.48c.42.07.75.4.82.82l.58 3.7 3.7.57c.42.07.75.4.81.82l.63 4 4 .63a.98.98 0 0 1 .83.82l.62 4 4 .62c.42.07.75.4.82.82l.48 3.08 5.74-5.73-2.75-2.75a.84.84 0 1 1 1.18-1.18l2.75 2.74 27.87-27.86-3.08-.48a.98.98 0 0 1-.82-.82l-.63-4-4-.62a.98.98 0 0 1-.81-.82l-.63-4-4-.63a.98.98 0 0 1-.82-.82l-.58-3.7-3.7-.57a.98.98 0 0 1-.82-.82l-.48-3.08-4.7 4.69a.84.84 0 0 1-1.18-1.18l5.64-5.64a1 1 0 0 1 1.68.54l.62 3.92 3.7.57c.42.07.74.4.81.82l.58 3.7 4 .62c.43.07.76.4.83.82l.63 4 3.99.63c.42.07.75.4.82.82l.62 4 3.93.6c.36.07.66.32.78.68a1 1 0 0 1-.25 1.01zm-19.77 11.23c-.4.4-1 .35-1.32.03a.69.69 0 0 1-.19-.33l-6.4-19.15c-.12-.34 0-.63.21-.84.35-.35 1-.47 1.4-.07.1.1.17.2.22.33l6.35 19.1c.1.32-.02.68-.27.93zm6.42-7.53c-1.34 1.34-2.92 1.77-4.48.21l-2.58-2.57c-1.56-1.57-1.13-3.15.21-4.49 1.32-1.32 2.92-1.77 4.49-.2l2.57 2.57c1.57 1.56 1.11 3.16-.2 4.48zm-1.04-3.23l-2.58-2.58c-.7-.7-1.44-.6-2.12.07-.68.68-.76 1.4-.05 2.1l2.57 2.58c.72.71 1.43.63 2.1-.05.69-.68.8-1.41.08-2.12zm-12.56 5c-1.34 1.34-2.92 1.78-4.49.21l-2.57-2.57c-1.56-1.56-1.13-3.15.21-4.48 1.32-1.33 2.92-1.78 4.49-.21l2.57 2.57c1.57 1.56 1.11 3.16-.2 4.48zm-1.04-3.23l-2.58-2.57c-.7-.72-1.44-.61-2.12.07-.68.68-.76 1.39-.05 2.1l2.57 2.57c.72.72 1.43.63 2.1-.05.69-.68.8-1.4.08-2.12z"/></defs><g><g transform="translate(-505 -468)"><use fill="#f5576c" xlink:href="#7jgha"/></g></g></svg>