<svg xmlns="http://www.w3.org/2000/svg" xmlns:xlink="http://www.w3.org/1999/xlink" width="59" height="71" viewBox="0 0 59 71"><defs><path id="mrf9a" d="M485.73 7240v25.35a3.39 3.39 0 0 1-3.38 3.38H453.9a3.39 3.39 0 0 1-3.38-3.38v-20.55l-9.82 23.25a1.12 1.12 0 0 1-1.46.6l-5.27-2.23c-.57-.24-.83-.9-.6-1.46l3.08-7.29a6.05 6.05 0 0 1-4.1-.23l-2.6-1.1a1.11 1.11 0 0 1-.6-1.45l1.95-4.59a6.1 6.1 0 0 1 4.32-3.59 6.17 6.17 0 0 1-.44-5.6l1.93-4.6c.24-.56.9-.83 1.47-.59l2.59 1.1a6.06 6.06 0 0 1 3.03 2.78l3.07-7.29c.24-.57.9-.83 1.47-.6l5.27 2.23a1.11 1.11 0 0 1 .6 1.46l-1.4 3.29h31.6c.61 0 1.11.5 1.11 1.11zm-48.7 4.94c.39.96 1.13 1.7 2.08 2.1l1.56.66 1.5-3.55a3.85 3.85 0 0 0-2.06-5.08l-1.56-.66-1.5 3.56c-.4.96-.41 2-.02 2.97zm1.27 8.38l1.5-3.56-1.56-.66a3.88 3.88 0 0 0-5.08 2.07l-1.5 3.56 1.56.65a3.85 3.85 0 0 0 5.08-2.06zm13.62-17.56l-3.21-1.35-8.35 19.78-4.48 10.6 3.21 1.36zm18.38 30.74v-25.38h-17.54v24.23c0 .63.52 1.15 1.15 1.15h9.81v-20.15a1.12 1.12 0 0 1 2.24 0v20.15zm13.2-1.15v-24.23h-10.96v25.38h9.8c.64 0 1.16-.52 1.16-1.15zm-10.2-58.62c-.09.48-.44.87-.92 1l-2.03.59-.68 2a1.28 1.28 0 0 1-1.23.88c-.42 0-.82-.21-1.06-.57l-1.18-1.76-2.12-.02c-.5-.01-.94-.3-1.15-.74-.21-.44-.16-.96.15-1.35l1.3-1.67-.63-2.02c-.14-.47-.01-.97.35-1.31.36-.35.87-.45 1.33-.28l1.99.73 1.73-1.23c.4-.28.92-.32 1.36-.08.43.23.69.69.67 1.18l-.08 2.12 1.7 1.26c.4.3.59.78.5 1.27zm-3.37-.62l-.56-.42a1.29 1.29 0 0 1-.52-1.08l.03-.7-.57.4c-.35.25-.8.31-1.2.16l-.65-.24.2.67c.13.4.05.85-.21 1.18l-.43.55.7.01c.42 0 .82.22 1.05.57l.4.58.22-.66c.13-.4.46-.71.87-.83zm-1.35 29.35a1.12 1.12 0 0 1-2.22-.2 60.34 60.34 0 0 0-1.47-19.93 1.12 1.12 0 1 1 2.17-.53 62.6 62.6 0 0 1 1.52 20.66zm-4.29 1.08h-.1c-.57 0-1.06-.43-1.11-1a15.35 15.35 0 0 0-2.94-7.72 15.56 15.56 0 0 0-8.48-5.69 1.12 1.12 0 1 1 .57-2.16c2.26.6 6.52 2.24 9.7 6.52a17.59 17.59 0 0 1 3.37 8.83c.06.62-.4 1.16-1 1.22zm21.14-13.78c.03.62-.45 1.14-1.07 1.16-1.53.07-5.44.57-8.67 3.77a13.16 13.16 0 0 0-3.76 7.73 1.12 1.12 0 0 1-2.22-.26 15.4 15.4 0 0 1 4.4-9.05 15.59 15.59 0 0 1 10.16-4.42c.61-.03 1.13.45 1.16 1.07zm-24.17-8.96a3.93 3.93 0 0 1-3.96 3.86h-.1a3.97 3.97 0 1 1 4.06-3.86zm-2.71-1.3a1.72 1.72 0 0 0-2.45-.05 1.73 1.73 0 1 0 2.45.06zm19.04 7.38a3.95 3.95 0 0 1-6.69-2.96 3.97 3.97 0 1 1 6.7 2.96zm-1.48-4.06a1.72 1.72 0 0 0-2.44-.06 1.73 1.73 0 1 0 2.44.06z"/><linearGradient id="mrf9b" x1="437.73" x2="477.08" y1="7268.73" y2="7200.74" gradientUnits="userSpaceOnUse"><stop offset="0" stop-color="#f5576c"/><stop offset="1" stop-color="#f461ec"/></linearGradient></defs><g><g transform="translate(-428 -7199)"><use fill="#fff" xlink:href="#mrf9a"/><use fill="url(#mrf9b)" xlink:href="#mrf9a"/></g></g></svg>