<svg xmlns="http://www.w3.org/2000/svg" xmlns:xlink="http://www.w3.org/1999/xlink" width="73" height="63" viewBox="0 0 73 63"><defs><path id="tq8ka" d="M1087.38 6899.07v11.62c0 .6-.48 1.09-1.09 1.09h-3.56v.07a6.9 6.9 0 0 1-13.8 0v-.07h-24.56v.07a6.9 6.9 0 0 1-13.8 0v-.07h-5.88a2.26 2.26 0 0 1-2.26-2.25v-2.4h-3.56a1.09 1.09 0 1 1 0-2.18h10.47a1.09 1.09 0 1 1 0 2.18h-4.73v2.4c0 .04.04.07.08.07h6.26a6.91 6.91 0 0 1 13.05 0h22.6v-8.2a1.09 1.09 0 1 1 2.19 0v8.2h.52a6.91 6.91 0 0 1 13.05 0h2.85v-4.8h-1.24a3.42 3.42 0 0 1-3.41-3.4v-2.33c0-.6.48-1.1 1.09-1.1h3.38a3.56 3.56 0 0 0-3.38-2.46h-12.86v1.23a1.09 1.09 0 0 1-2.18 0v-19.76a.07.07 0 0 0-.08-.07h-41.84a.07.07 0 0 0-.08.07v19.76a1.09 1.09 0 0 1-2.18 0v-19.76a2.25 2.25 0 0 1 2.26-2.25h15.26l-9.27-3.7a1.09 1.09 0 1 1 .8-2.03l7.6 3.04c-2.31-1.49-4.6-3.12-5.48-4.27a5.08 5.08 0 0 1 8.08-6.15c1.24 1.63 2.87 6.2 3.93 9.41 1.06-3.22 2.7-7.78 3.94-9.41a5.08 5.08 0 0 1 8.07 6.15c-.88 1.15-3.17 2.78-5.48 4.27l7.6-3.04a1.09 1.09 0 1 1 .8 2.02l-9.27 3.71h15.26a2.25 2.25 0 0 1 2.26 2.25v2.4h8.2a4.58 4.58 0 0 1 4.58 4.58v1.16c0 .52-.37.96-.86 1.06l1.8 7.21a5.75 5.75 0 0 1 4.87 5.68zm-43.64-26.74c-1.1-3.36-2.74-8-3.8-9.39a2.9 2.9 0 0 0-4.6 3.51c.37.5 1.65 1.73 5.95 4.4.87.54 1.71 1.04 2.45 1.48zm6.2-1.48c4.3-2.67 5.57-3.9 5.94-4.4a2.9 2.9 0 0 0-4.6-3.5c-1.06 1.37-2.7 6.02-3.8 9.38.74-.44 1.58-.94 2.45-1.48zm18.85 13.18h10.6v-.07a2.4 2.4 0 0 0-2.4-2.4h-8.2zm11.46 9.3l-1.78-7.12h-9.68v7.12zm-38.05 18.52a4.73 4.73 0 1 0-9.46.01 4.73 4.73 0 0 0 9.46 0zm38.36 0a4.73 4.73 0 1 0-9.46.01 4.73 4.73 0 0 0 9.46 0zm4.65-9.22v-2.47h-2.47v1.23c0 .68.55 1.24 1.23 1.24zm-45.48 9.22a2.25 2.25 0 1 1-4.51 0 2.25 2.25 0 0 1 4.5 0zm38.36 0a2.25 2.25 0 1 1-4.51 0 2.25 2.25 0 0 1 4.5 0zm-13.95-5.81c0 .6-.5 1.09-1.1 1.09h-16.27a1.09 1.09 0 1 1 0-2.18h16.28c.6 0 1.09.49 1.09 1.09zm-27.9-4.65c0 .6-.49 1.09-1.1 1.09h-13.94a1.09 1.09 0 1 1 0-2.18h13.95c.6 0 1.09.49 1.09 1.1zm0-16.27c0 .6-.49 1.09-1.1 1.09h-3.55v2.47h2.4a1.09 1.09 0 1 1 0 2.18h-2.4v3.56a1.09 1.09 0 1 1-2.18 0v-9.3c0-.6.49-1.1 1.09-1.1h4.65c.6 0 1.09.5 1.09 1.1zm9.11 8.7a1.09 1.09 0 1 1-1.8 1.2l-2.01-3h-1.81v2.4a1.09 1.09 0 1 1-2.18 0v-9.3c0-.6.48-1.1 1.09-1.1h2.9a4 4 0 0 1 2.18 7.35zm-2-5.8c0-1-.8-1.81-1.8-1.81h-1.82v3.63h1.81c1 0 1.82-.81 1.82-1.82zm10.32 6.4c0 .6-.48 1.09-1.09 1.09h-4.64c-.6 0-1.1-.5-1.1-1.1v-9.3c0-.6.5-1.08 1.1-1.08h4.64a1.09 1.09 0 1 1 0 2.18h-3.56v2.47h2.4a1.09 1.09 0 1 1 0 2.18h-2.4v2.47h3.56c.6 0 1.1.49 1.1 1.09zm8.14 0c0 .6-.49 1.09-1.09 1.09h-4.65c-.6 0-1.09-.5-1.09-1.1v-9.3c0-.6.49-1.08 1.1-1.08h4.64a1.09 1.09 0 1 1 0 2.18h-3.56v2.47h1.24a1.09 1.09 0 1 1 0 2.18h-1.24v2.47h3.56c.6 0 1.1.49 1.1 1.09z"/><linearGradient id="tq8kb" x1="1035.38" x2="1069.78" y1="6918.75" y2="6859.62" gradientUnits="userSpaceOnUse"><stop offset="0" stop-color="#f5576c"/><stop offset="1" stop-color="#f461ec"/></linearGradient></defs><g><g transform="translate(-1016 -6857)"><use fill="#fff" xlink:href="#tq8ka"/><use fill="url(#tq8kb)" xlink:href="#tq8ka"/></g></g></svg>