<svg xmlns="http://www.w3.org/2000/svg" xmlns:xlink="http://www.w3.org/1999/xlink" width="143" height="129" viewBox="0 0 143 129"><defs><path id="xkdma" d="M752.83 8202.52v91.66a6.6 6.6 0 0 1-6.6 6.6h-37.89a7.13 7.13 0 0 1-3.1 2.54 7.42 7.42 0 0 1-3.98.53 7.2 7.2 0 0 1-9.87 7.43l-25.76-10.5h-30.2a6.6 6.6 0 0 1-6.61-6.6v-5.06a2 2 0 0 1 4 0v5.06a2.6 2.6 0 0 0 2.6 2.6h20.4l-2.78-1.13a25.97 25.97 0 0 1-10.88-8.32 21.71 21.71 0 0 0-8.38-6.05l-2.48-1.01-.1.24a3.99 3.99 0 0 1-5.18 2.18l-10.74-4.37a3.98 3.98 0 0 1-2.19-5.2l13.14-32.2a3.95 3.95 0 0 1 5.18-2.17l10.74 4.37a3.96 3.96 0 0 1 2.19 5.2l-.41 1 .33.13a1.72 1.72 0 0 0 .19.04h.03l.05.01h.01c1.14.16 5.23.1 19.8-2.57l.76-.14 1.96-.37.33-.07a493.96 493.96 0 0 0 2.68-.51 922.5 922.5 0 0 0 22.81-4.78l.03-.01c2-.42 4.02.11 5.52 1.3 1.02.79 1.8 1.88 2.2 3.16a6.57 6.57 0 0 1-4.33 8.2l-14.48 4.48 31.12 12.68a7.1 7.1 0 0 1 3.91 3.88 7.14 7.14 0 0 1-1.92 8.22l.04.02.43.27.08.06a7.12 7.12 0 0 1 1.25 1.1l.06.07a7.1 7.1 0 0 1 .63.84l.06.08.25.45.05.09a7.21 7.21 0 0 1 .26 5.99 7.2 7.2 0 0 1-8.5 4.24l.02.53v.07h36.66a2.6 2.6 0 0 0 2.6-2.6v-89.67h-42.38v30.4a3.03 3.03 0 0 1-5.03 2.25l-10.59-9.37-10.59 9.37a3.03 3.03 0 0 1-5.03-2.26v-30.39h-42.38v27.38a2 2 0 0 1-4 0v-29.38-.05l.01-.18.01-.06.04-.17.01-.06.06-.17v-.03l5.57-14.24a3.7 3.7 0 0 1 3.46-2.37h80.9a2 2 0 1 1 0 4H703.4l2.62 11.34h41.87l-4.43-11.34h-9.94a2 2 0 1 1 0-4h10.13c1.54 0 2.9.93 3.46 2.37l5.57 14.24v.03a1.85 1.85 0 0 1 .11.4l.01.06.01.18v.05zm-73.11-2h22.2l-2.61-11.34h-16.97zm-1.49-11.34h-40.06l-4.42 11.34h41.86zm24.22 15.33H679.2v28.23l9.62-8.52a3.02 3.02 0 0 1 4 0l9.62 8.52zm-61.82 42.3l-10.7-4.35-13.13 32.16 10.7 4.37zm69.54 45.37a3.2 3.2 0 0 0 3.23-.49l.05-.05a3.15 3.15 0 0 0 .99-1.51 3.17 3.17 0 0 0-1.86-3.86l-28.98-11.82a2 2 0 1 1 1.51-3.7l23.9 9.74.14.05.17.06.16.04.14.03c.07.02.15.03.22.03l.09.02.29.01h.02a3.2 3.2 0 0 0 1.19-6.15l-36.3-14.8a2 2 0 0 1 .17-3.76l19.82-6.14a2.56 2.56 0 0 0 1.69-3.2 2.62 2.62 0 0 0-2.91-1.74l-.15.02c-.5.11-11.66 2.61-23.22 4.86l-1.2.24-.4.07-.78.15a82.3 82.3 0 0 1-1.12.21l-.58.11-.5.1-.63.11-.33.06c-4.49.83-8.33 1.47-11.47 1.9-4.6.66-7.17.82-8.73.75a5.19 5.19 0 0 1-2.03-.37l-.34-.13-4.67 11.44-4.94 12.1 2.48 1.02a25.99 25.99 0 0 1 10.44 7.78 21.82 21.82 0 0 0 8.82 6.58l12.23 5 26.12 10.64a3.2 3.2 0 0 0 2.41-5.92l-.05-.02-.06-.03-19.44-7.92a2 2 0 1 1 1.5-3.7l19.45 7.92.05.03.06.02 4.24 1.73c.82.33 1.77.32 2.6-.04a3.1 3.1 0 0 0 1.64-1.62l.01-.02.05-.11.05-.16.05-.14.03-.16.03-.15.02-.16.02-.15v-.15-.15-.16l-.02-.15-.03-.15-.02-.15-.04-.14-.05-.15-.05-.14-.05-.14-.07-.14c-.02-.05-.04-.1-.07-.13l-.08-.14-.07-.12-.1-.14-.09-.1-.12-.13-.08-.1-.14-.12-.1-.08c-.04-.05-.1-.09-.15-.13l-.09-.06-.2-.12-.07-.04-.29-.14-23.9-9.74a2 2 0 1 1 1.51-3.7l23.9 9.74 2.3.94z"/><linearGradient id="xkdmb" x1="645.83" x2="719.8" y1="8311.81" y2="8185.18" gradientUnits="userSpaceOnUse"><stop offset="0" stop-color="#f5576c"/><stop offset="1" stop-color="#f461ec"/></linearGradient></defs><g><g transform="translate(-611 -8184)"><use fill="#fff" xlink:href="#xkdma"/><use fill="url(#xkdmb)" xlink:href="#xkdma"/></g></g></svg>