<svg xmlns="http://www.w3.org/2000/svg" xmlns:xlink="http://www.w3.org/1999/xlink" width="123" height="121" viewBox="0 0 123 121"><defs><path id="i83xa" d="M1283.37 8226.41v.82c0 6.7-3.76 9.08-8.6 9.08H1266c-1.25 0-2.03-.7-2.03-1.47v-28.6c0-1 1-1.51 2.03-1.51h7.87c4.62 0 8.72 1.38 8.72 7.47 0 3.59-1.42 6-3.67 7 2.68 1.04 4.45 2.8 4.45 7.21zm-14.86-9.03h5.14c2.94 0 4.36-1.5 4.36-4.45 0-2.89-1.72-4.14-4.45-4.14h-5.05zm10.28 9.51v-.7c0-3.8-1.81-5.18-4.88-5.18h-5.4v11.24h5.4c3.07 0 4.88-1.65 4.88-5.36zm63.59-20.26c0 .17 0 .39-.13.64l-8.94 16.12c-.05.13-.09.3-.09.48v10.93c0 .99-1.17 1.5-2.29 1.5-1.17 0-2.29-.51-2.29-1.5v-10.93c0-.18-.09-.35-.13-.48l-8.94-16.12a1.45 1.45 0 0 1-.17-.64c0-1.13 1.68-1.9 2.89-1.9.73 0 1.12.34 1.51 1.03l7.13 13.7 7.08-13.7c.35-.69.78-1.03 1.52-1.03 1.2 0 2.85.77 2.85 1.9zm-3.08 73.95a17.32 17.32 0 0 0-2.17 8.4v3.22h.1c1.8 0 3.26 1.47 3.27 3.27v9.2a3.25 3.25 0 0 1-3.26 3.27l-27.6.02a3.27 3.27 0 0 1-3.28-3.27v-9.2a3.25 3.25 0 0 1 3.26-3.27h.75v-1.36c-.06-.58-1.02-3.56-10.4-17.88a734.45 734.45 0 0 0-10.34-15.28l-.01-.02a5.4 5.4 0 0 1 .98-7.15 5.32 5.32 0 0 1 7.48.73l7.43 9.04v-24.17c-1.12.3-2.33.44-3.6.44-5.54 0-9.86-2.64-9.86-9.64v-20.73c0-1.04 1.13-1.47 2.3-1.47 1.12 0 2.28.43 2.28 1.47v20.73c0 3.8 1.99 5.58 5.27 5.58 1.5 0 2.71-.36 3.6-1.1v-8.52c0-1.61.66-3.07 1.72-4.12v-12.57c0-1.04 1.12-1.47 2.28-1.47 1.13 0 2.3.43 2.3 1.47v10.89c2.99.23 5.35 2.74 5.35 5.8v17.69a5.79 5.79 0 0 1 6.55 1.19 5.8 5.8 0 0 1 8.25 0 5.83 5.83 0 0 1 9.95 4.1v24.66c0 3.5-.9 6.98-2.6 10.05zm-2.19 23.97v-8.96l-27.36.02v8.96zm1.4-34.02v-23.64-1.02a2.43 2.43 0 0 0-4.86 0v14.83a1.7 1.7 0 1 1-3.4 0v-14.83a2.43 2.43 0 0 0-4.85 0v14.83a1.7 1.7 0 1 1-3.4 0v-14.83a2.43 2.43 0 0 0-4.85 0v14.83a1.7 1.7 0 1 1-3.4 0v-14.83-22.98a2.43 2.43 0 0 0-4.85 0v42.15a1.7 1.7 0 0 1-3 1.07l-10.44-12.7a1.93 1.93 0 0 0-2.7-.26c-.76.62-.9 1.77-.34 2.62.24.34 5.42 7.79 10.54 15.6 10.8 16.49 10.8 18.5 10.8 19.46v1.39l19.98-.02V8289c0-3.5.9-6.99 2.6-10.05a17.32 17.32 0 0 0 2.17-8.41zm-35.64-23.82c0 .94-.75 1.7-1.7 1.7h-41.58a16.45 16.45 0 0 1-16.43-16.43v-26.51c0-9.06 7.37-16.43 16.43-16.43h3.33a1.7 1.7 0 0 1 0 3.4h-3.33a13.05 13.05 0 0 0-13.04 13.03v26.5c0 7.2 5.85 13.05 13.04 13.05h41.59c.94 0 1.7.76 1.7 1.7zm60.29-41.24v26.5c0 9.07-7.37 16.44-16.43 16.44a1.7 1.7 0 1 1 0-3.4c7.19 0 13.04-5.84 13.04-13.03v-26.51c0-7.2-5.85-13.04-13.04-13.04h-71.76a1.7 1.7 0 0 1 0-3.4h71.76c9.06 0 16.43 7.38 16.43 16.44z"/><linearGradient id="i83xb" x1="1269.16" x2="1337.16" y1="8307.96" y2="8189.04" gradientUnits="userSpaceOnUse"><stop offset="0" stop-color="#f5576c"/><stop offset="1" stop-color="#f461ec"/></linearGradient></defs><g><g transform="translate(-1242 -8188)"><use fill="#fff" xlink:href="#i83xa"/><use fill="url(#i83xb)" xlink:href="#i83xa"/></g></g></svg>