<svg xmlns="http://www.w3.org/2000/svg" xmlns:xlink="http://www.w3.org/1999/xlink" width="63" height="57" viewBox="0 0 63 57"><defs><path id="z927a" d="M1405.6 479.71c-.12.53-.59.9-1.13.9-.1 0-4.83-1.15-4.83-1.15-.3-.07-.57-.26-.73-.53a1.17 1.17 0 0 1 1-1.78c.1 0 4.84 1.14 4.84 1.14.62.16 1.01.8.86 1.42zm-9.1-2.22a1.17 1.17 0 0 1-2.14.33 1.17 1.17 0 1 1 2.14-.33zm48.08 1.44c-.16.27-.42.46-.72.53 0 0-4.74 1.14-4.83 1.14a1.17 1.17 0 0 1-.28-2.3s4.74-1.15 4.83-1.15a1.17 1.17 0 0 1 1 1.78zm3.83-.58c-.09.02-.18.04-.27.04a1.17 1.17 0 1 1 0-2.35 1.17 1.17 0 0 1 .28 2.31zm-25.37-.38v4.69a1.17 1.17 0 0 1-2.34 0v-4.69a1.17 1.17 0 0 1 2.34 0zm0-4.69a1.17 1.17 0 1 1-2.34 0 1.17 1.17 0 0 1 2.34 0zm16.07 24.4a12.37 12.37 0 0 1-7.3 2.59c-2.26 0-4.03-.8-4.73-2.16a3.8 3.8 0 0 1-.16-3c.65-1.97 2.6-3.9 5.23-5.18a11.23 11.23 0 0 1 4.9-1.23c2.55 0 4.3 1.14 4.85 2.2 1.05 2.02-.07 4.75-2.8 6.78zm.71-5.7c-.13-.24-1.07-.93-2.78-.93-1.2 0-2.5.33-3.87 1-2 .96-3.58 2.46-4.03 3.8-.15.47-.15.87.02 1.18.23.45 1.21.9 2.65.9 1.95 0 4.1-.78 5.9-2.12 1.68-1.27 2.6-2.91 2.11-3.84zm-22.88 6.1c-.69 1.44-2.3 2.26-4.43 2.26-2.29 0-4.97-.93-7.56-2.61-2.73-1.78-3.95-4.72-2.85-6.84.57-1.1 2.28-2.22 4.8-2.22 1.56 0 3.22.43 4.95 1.26 4.16 2.02 6.35 5.53 5.09 8.15zm-6.12-6.04a9.08 9.08 0 0 0-3.92-1.03c-1.7 0-2.59.7-2.72.96-.46.88.2 2.58 2.05 3.8 2.99 1.93 5.21 2.22 6.28 2.22 1.17 0 2.04-.34 2.32-.92.56-1.18-.94-3.54-4-5.03zm41.18-6.2c0 3.62-1.62 7.96-4.55 12.2-2.77 4-6.28 7.28-9.62 8.98a9.04 9.04 0 0 1-4.11.86c-3.95 0-9.2-1.92-11.72-4.68a13.09 13.09 0 0 1-4.05 2.86 18.16 18.16 0 0 1-7.55 1.82c-1.6 0-3.02-.29-4.2-.85a22.2 22.2 0 0 1-5.84-4.25v12.27h1.06c.64 0 1.17.53 1.17 1.17v9.5c0 .64-.53 1.17-1.17 1.17h-4.46c-.64 0-1.17-.53-1.17-1.17v-9.5c0-.64.53-1.17 1.17-1.17h1.06v-14.87c-.55-.68-1.08-1.39-1.58-2.13-2.82-4.14-4.44-8.6-4.44-12.21 0-1.2 0-4.84 3.3-4.84 1.04 0 7.79 2.08 10.31 2.08.32 0 5.43-1.61 6.49-1.61 2 0 7.35 3.44 9.9 6.34 2.55-2.9 7.93-6.34 9.9-6.34 1.06 0 6.17 1.61 6.49 1.61 2.52 0 9.27-2.08 10.31-2.08 3.3 0 3.3 3.64 3.3 4.84zm-51.75 31.55h-2.11v7.15h2.1zm49.4-31.55c0-1.47-.22-2.05-.36-2.26-.07-.11-.15-.24-.59-.24-.69 0-7.43 2.09-10.31 2.09-.64 0-6.55-1.62-6.56-1.62-3.22 1.05-6.55 3.5-8.9 6.55a1.17 1.17 0 0 1-1.86 0c-2.35-3.05-5.68-5.5-8.9-6.55-.01 0-5.92 1.62-6.56 1.62-2.88 0-9.62-2.09-10.31-2.09-.44 0-.52.13-.59.24-.14.21-.3.8-.37 2.26-.35 7.91 9.67 19.7 16.06 19.7 4.56 0 9.5-2.68 10.54-4.9a1.17 1.17 0 0 1 2.12 0c1.03 2.2 6.15 4.9 10.65 4.9 5.83 0 15.95-10.97 15.95-19.7z"/></defs><g><g transform="translate(-1390 -471)"><use fill="#f5576c" xlink:href="#z927a"/></g></g></svg>