<svg xmlns="http://www.w3.org/2000/svg" xmlns:xlink="http://www.w3.org/1999/xlink" width="48" height="63" viewBox="0 0 48 63"><defs><path id="gidka" d="M1229.29 527h-44.58l.47-8.74 1.78.1-.37 6.86h40.82l-2.01-37.83h-18.21v-1.78h18.11l-.1-1.78h-36.4l-1.72 32.14-1.78-.1 1.8-33.83h11.49v-6.63a8.42 8.42 0 0 1 16.82 0v6.63h11.48zm-19.22-44.96v-6.63a3.07 3.07 0 0 0-6.14 0v6.63zm3.56 0v-6.63a6.64 6.64 0 0 0-13.26 0v6.63h1.78v-6.63a4.85 4.85 0 0 1 9.7 0v6.63zm3.34 19.44c0 1.61-.63 3.12-1.76 4.26l-7.63 7.63-.57.59-.64-.64-7.58-7.58a5.98 5.98 0 0 1 0-8.51 5.98 5.98 0 0 1 8.21-.29 5.97 5.97 0 0 1 8.2.29 5.98 5.98 0 0 1 1.77 4.25zm-1.78 0a4.21 4.21 0 0 0-4.24-4.23 4.2 4.2 0 0 0-3 1.24l-.95.96-.96-.96a4.21 4.21 0 0 0-5.99 0 4.21 4.21 0 0 0 0 5.99l6.95 6.95 6.95-6.95a4.2 4.2 0 0 0 1.24-3zm-19.94 0c0 2.09.81 4.05 2.28 5.52l-1.26 1.26a9.52 9.52 0 0 1-2.8-6.78c0-2.56 1-4.96 2.8-6.77l1.26 1.26a7.75 7.75 0 0 0-2.28 5.51zm25.28 0c0 2.56-1 4.97-2.8 6.78l-1.26-1.26a7.75 7.75 0 0 0 2.28-5.52c0-2.08-.81-4.04-2.28-5.51l1.26-1.26a9.52 9.52 0 0 1 2.8 6.77zm-21.2-15.87h5.48v1.78h-5.47z"/></defs><g><g transform="translate(-1183 -465)"><use fill="#f5576c" xlink:href="#gidka"/></g></g></svg>