<svg xmlns="http://www.w3.org/2000/svg" xmlns:xlink="http://www.w3.org/1999/xlink" width="71" height="72" viewBox="0 0 71 72"><defs><path id="l8ula" d="M496.21 7056.28c-.25.37-.37.63-.37 1a11.98 11.98 0 0 1-3.4 8.04 11.93 11.93 0 0 1-5.78 3.15c-.88.12-1.63.88-1.76 1.76a11.83 11.83 0 0 1-3.14 5.78 11.13 11.13 0 0 1-4.78 2.89c-.62.25-1.25.75-1.38 1.38-.5 1.76-1.5 3.52-2.89 4.77a11.93 11.93 0 0 1-5.78 3.14c-.88.13-1.63.88-1.76 1.76-.5 2.27-1.5 4.28-3.14 5.78a11.35 11.35 0 0 1-7.54 3.4c-.5 0-1.13.25-1.51.63l-1.7 1.82.06.06-6.15 6.16-1.7-1.7-2.7 2.7-10.69-10.68 2.7-2.7-1.82-1.82 6.16-6.16 1.76-1.76c.38-.38.63-.88.63-1.5a11.34 11.34 0 0 1 3.4-7.55 11.92 11.92 0 0 1 5.78-3.14 2.14 2.14 0 0 0 1.75-1.76c.5-2.26 1.64-4.27 3.15-5.78a11.13 11.13 0 0 1 4.77-2.89c.63-.25 1.26-.75 1.39-1.38.5-1.76 1.5-3.52 2.89-4.77a11.92 11.92 0 0 1 5.78-3.15 2.14 2.14 0 0 0 1.76-1.75c.5-2.27 1.63-4.28 3.14-5.79a11.43 11.43 0 0 1 8.04-3.39c.38 0 .76-.12 1-.37a10.05 10.05 0 0 1 12.58 1.25 9.92 9.92 0 0 1 1.25 12.57zm-54.54 48.12l-7.17-7.16-.88.88 7.17 7.16zm6.16-2.76l-10.69-10.68-2.64 2.64 10.69 10.68zm45.74-56.3a7.61 7.61 0 0 0-9.42-1c-.76.5-1.51.75-2.39.75-2.39.13-4.65 1.01-6.28 2.64a9.38 9.38 0 0 0-2.52 4.65 4.71 4.71 0 0 1-3.64 3.65 9.96 9.96 0 0 0-4.65 2.5c-1 1.01-1.89 2.27-2.27 3.78a4.9 4.9 0 0 1-3.14 3.14 11.6 11.6 0 0 0-3.77 2.26 9.38 9.38 0 0 0-2.51 4.65 4.71 4.71 0 0 1-3.65 3.65 9.38 9.38 0 0 0-4.65 2.5 8.84 8.84 0 0 0-2.64 5.92 5.93 5.93 0 0 1-1.38 3.14l-1.76 1.63 5.34 5.34 5.35 5.34 1.75-1.76a4.28 4.28 0 0 1 3.15-1.38 9.18 9.18 0 0 0 8.42-7.29 4.71 4.71 0 0 1 3.64-3.64 9.37 9.37 0 0 0 4.65-2.52c1-1 1.89-2.38 2.26-3.77a4.9 4.9 0 0 1 3.15-3.14c1.38-.5 2.76-1.25 3.77-2.26a9.37 9.37 0 0 0 2.51-4.65 4.72 4.72 0 0 1 3.65-3.64 9.38 9.38 0 0 0 4.65-2.52 8.94 8.94 0 0 0 2.64-6.28c0-.75.25-1.63.75-2.39a7.43 7.43 0 0 0-1-9.3zm-48.26 20.61l10.06-10.05c.5-.5 1.25-.5 1.76 0 .5.5.5 1.26 0 1.76l-10.06 10.05c-.12.25-.5.38-.88.38s-.63-.13-.88-.38c-.5-.5-.5-1.25 0-1.76zm-1.25-4.52c-.5-.5-.5-1.26 0-1.76l5.02-5.03c.5-.5 1.26-.5 1.76 0s.5 1.26 0 1.76l-5.03 5.03c-.12.25-.5.38-.87.38-.38 0-.63-.13-.88-.38zm47 12.57l-10.05 10.05c-.13.25-.5.38-.88.38s-.63-.13-.88-.38c-.5-.5-.5-1.26 0-1.76l10.05-10.05c.5-.5 1.26-.5 1.76 0s.5 1.25 0 1.76zm1.26 4.52c.5.5.5 1.26 0 1.76l-5.03 5.02c-.13.25-.5.38-.88.38s-.63-.13-.88-.38c-.5-.5-.5-1.25 0-1.75l5.03-5.03c.5-.5 1.25-.5 1.76 0zm-3.02-28.02c.5.5.5 1.25 0 1.76-.38.37-.75.5-1 .5-.38 0-.63-.13-.88-.38a4.49 4.49 0 0 0-4.78-1 1.2 1.2 0 0 1-1.63-.76 1.2 1.2 0 0 1 .75-1.63c2.64-1 5.53-.38 7.54 1.5zm-10.56 2.38c.5.5.5 1.26 0 1.76l-6.16 6.16c-.25.38-.5.5-.87.5-.38 0-.63-.12-.88-.37-.5-.5-.5-1.26 0-1.76l6.15-6.29c.5-.5 1.26-.5 1.76 0z"/><linearGradient id="l8ulb" x1="443.9" x2="484.1" y1="7108.8" y2="7040.81" gradientUnits="userSpaceOnUse"><stop offset="0" stop-color="#f5576c"/><stop offset="1" stop-color="#f461ec"/></linearGradient></defs><g><g transform="translate(-429 -7038)"><use xlink:href="#l8ula"/><use fill="url(#l8ulb)" xlink:href="#l8ula"/></g></g></svg>