<svg xmlns="http://www.w3.org/2000/svg" xmlns:xlink="http://www.w3.org/1999/xlink" width="64" height="59" viewBox="0 0 64 59"><defs><path id="92r5a" d="M494.94 6877.06v7.22c0 1.94-2.49 3.46-6.19 4.6v6.74c0 .32-.07.63-.2.93 2.13.88 3.2 1.94 3.28 3.2h.02v7.22c-.01 3.43-7.74 5.56-16.32 6.55-.06.01-.12.04-.19.04l-.05-.01c-1.66.19-3.34.33-5 .44l-.1.02-.06-.01a102.52 102.52 0 0 1-12.26 0h-.06l-.1-.01c-1.66-.1-3.34-.25-5-.44l-.05.01c-.07 0-.13-.02-.2-.04-8.57-.99-16.3-3.12-16.3-6.55v-7.22c.02-.22.07-.43.15-.64-2.02-.97-3.25-2.12-3.25-3.49v-7.22h.01c.1-1.73 2.12-3.09 6.18-4.13v-7.2h.01c.01-.19.04-.36.1-.53-3.77-1.14-6.3-2.68-6.3-4.64v-7.22h.02c.37-6 25-6.18 27.83-6.18 2.82 0 27.46.17 27.82 6.18h.02v7.22c0 .33-.08.66-.22.96 4.2 1.06 6.3 2.44 6.4 4.2zm-8.25 18.56v-4.27c-.82.52-1.87 1-3.1 1.42v4.92a9.2 9.2 0 0 0 2.64-1.43l.35-.3a.66.66 0 0 0 .1-.34zm-21.3 5.06c.23 0 .45-.01.67-.03v-5.15c-1.03.05-2.07.08-3.1.1h-.17l-.85.02v5.15l1.12-.01a49.15 49.15 0 0 0 2.34-.08zm-6.11.09h.6v-5.15l-.86-.01h-.16l-3.11-.1v5.14l1.67.07h.18l1.4.04h.28zm-18.52-2.25c.8.21 1.67.42 2.61.63v-5.04c-1.1-.21-2.13-.45-3.1-.71v4.98l.1.03.39.1zm21.2 8.43a108.7 108.7 0 0 1-3.12-.1v5.15c1.33.07 2.7.1 4.13.12v-5.16h-.85l-.17-.01zm3.92 0l-.85.01v5.16c1.43-.01 2.8-.06 4.13-.12v-5.15a114 114 0 0 1-3.11.1h-.17zm5.34-.22v5.15a91.6 91.6 0 0 0 3.1-.28v-5.12c-1.02.1-2.06.18-3.1.25zm5.16 4.63c1.09-.14 2.12-.3 3.09-.47v-5.07c-1 .17-2.03.31-3.1.44zm5.15-.87c1.14-.24 2.18-.5 3.1-.76v-4.99c-.97.26-2 .5-3.1.72zm-38.16-5.75v4.99c.92.26 1.96.52 3.1.76v-5.03a45.9 45.9 0 0 1-3.1-.72zm5.16 6.15c.97.17 2 .33 3.1.47v-5.1c-1.07-.13-2.1-.27-3.1-.43zm5.16.72c.99.1 2.02.2 3.09.27v-5.15a98.36 98.36 0 0 1-3.1-.25zm0-11.08v-5.14a102.7 102.7 0 0 1-3.1-.25v5.12l.22.02.32.03c.83.09 1.69.16 2.56.22zm-8.25-6.05v5.06c.97.17 2 .33 3.09.48v-5.1a73.2 73.2 0 0 1-3.1-.44zm23.82 5.96c.67-.05 1.32-.11 1.96-.18v-5.12c-1.02.1-2.05.18-3.1.25v5.14l.7-.05.44-.04zm7.12-.9v-5.06c-1 .16-2.03.3-3.1.44v5.1c1.1-.15 2.12-.3 3.1-.48zm2.06-.4c1.14-.24 2.17-.5 3.1-.76v-4.98c-.97.26-2 .5-3.1.71zm-13.88-9.73l1.5.01v-5.15a117.16 117.16 0 0 1-4.12-.11v5.15h.12l2.27.1h.23zm-23.16-14.44c.5.13 1.04.26 1.6.38l.37.08v-5.04c-1.1-.21-2.13-.45-3.1-.71v4.98l1.13.3zm17.46-3.09c-1.04-.01-2.08-.05-3.11-.1v5.15c1.36.07 2.74.1 4.12.12v-5.15l-.85-.01h-.16zm3.93 0l-.85.02v5.15l1.11-.01.34-.01 2.1-.07h.05c.18 0 .35-.02.52-.03v-5.15c-1.03.05-2.07.08-3.1.1h-.17zm23.9.02v-4.27c-.82.52-1.87 1-3.1 1.42v4.9c1.08-.41 1.91-.84 2.46-1.26l.37-.3.03.01c.16-.18.24-.35.24-.5zm-10.31 3.91v-5.05c-1 .16-2.03.3-3.1.43v5.1c1.09-.14 2.12-.3 3.1-.48zm5.15-1.16v-4.97c-.96.26-2 .5-3.1.71v5.03c1.14-.24 2.18-.5 3.1-.77zm-13.4-2.98v5.14a92.1 92.1 0 0 0 3.09-.28v-5.11c-1.02.1-2.05.18-3.1.25zm-14.44 5.13v-5.13a102.7 102.7 0 0 1-3.1-.25v5.11c1.01.11 2.05.2 3.1.27zm-8.25-6.04v5.06l.33.06c.57.1 1.16.2 1.75.28l.4.05.61.08v-5.1c-1.06-.12-2.1-.27-3.1-.43zm14.43 18.42v-5.14c-1.04-.06-2.07-.15-3.09-.25v5.12l.08.01.4.05 1.94.17.42.03.25.01zm-7-.77c.6.1 1.22.18 1.85.26v-5.1c-1.07-.13-2.1-.27-3.1-.43v5.05l1.18.2.08.02zm-6.4-6.36v4.97c.92.27 1.95.53 3.1.77v-5.02c-1.1-.22-2.14-.46-3.1-.72zm-5.16-2.05v4.28l.02.1.07.11c.34.57 1.38 1.2 3 1.83v-4.9c-1.22-.42-2.27-.9-3.09-1.42zm27.67 4.26l-.85.01v5.15c1.39-.01 2.77-.05 4.12-.11v-5.15c-1.03.05-2.07.08-3.11.1h-.16zm13.58 3.94v-5.06c-1 .16-2.03.3-3.09.43v5.1l.8-.1a61.26 61.26 0 0 0 2.2-.35l.1-.02zm-6.97.89a83.6 83.6 0 0 0 1.82-.18v-5.12c-1.02.1-2.05.19-3.1.25v5.14l1.17-.08.11-.01zm12.13-2.05v-4.98c-.96.25-2 .5-3.1.7v5.04l.25-.05a48.22 48.22 0 0 0 2.4-.59l.45-.12zm-.8-12.44c-.07.05-.15.08-.21.13l-.36.21-.33.19c-.25.14-.53.27-.81.4l-.24.1c-.26.11-.54.23-.84.34l-.17.07-1.08.37-.4.12-.65.19c-4.83 1.38-11.77 2.27-19.27 2.39a90.4 90.4 0 0 1-7.82-.17h-.06c-1.76-.11-3.47-.26-5.11-.45h-.03a70.09 70.09 0 0 1-7.98-1.36l-.22-.05-.02.06c.12.7 1.7 1.62 4.52 2.5 3.64 1.12 9.36 2.15 16.6 2.47l1.1.05.94.02a115.36 115.36 0 0 0 7.28-.06c7.23-.33 12.94-1.36 16.6-2.48 2.82-.88 4.41-1.81 4.5-2.51-.11-.43-1.33-1.52-5.95-2.53zm-51.78-9.83c.12.7 1.7 1.62 4.5 2.49 3.66 1.12 9.37 2.16 16.6 2.48l1.12.04a100.77 100.77 0 0 0 7.1 0l1.1-.04c7.24-.32 12.95-1.36 16.6-2.48 2.8-.87 4.39-1.79 4.51-2.49-.16-1.53-8.76-4.21-25.76-4.21-17.01 0-25.61 2.68-25.77 4.21zm3.08 9.22v-4.94c-1.23-.43-2.27-.9-3.1-1.42v4.27c0 .58 1.1 1.33 3.1 2.09zm-3.09 14.48c.1.7 1.68 1.63 4.52 2.5 3.65 1.14 9.36 2.17 16.6 2.49l1.11.04a81.36 81.36 0 0 0 3.55.06c.67 0 1.32 0 1.97-.02l.76-.01c.24 0 .47-.02.7-.03 7.82-.25 13.97-1.33 17.82-2.52 1.28-.4 2.3-.8 3.05-1.2a79.63 79.63 0 0 1-11.9 1.53h-.03-.01a107.15 107.15 0 0 1-12.36 0h-.01a79.44 79.44 0 0 1-12.5-1.65l-.25-.06c-3.64-.83-6.57-1.96-7.98-3.38l-.05-.05c-3.83.94-4.87 1.91-4.99 2.3zm2.49 9v-.01l.6.23v-4.92a15.3 15.3 0 0 1-3.1-1.42v4.27c0 .52.88 1.18 2.5 1.85zm3.7 11.58v-4.94a15.3 15.3 0 0 1-3.1-1.42v4.28c0 .58 1.08 1.33 3.1 2.08zm48.46-2.09v-4.26c-.82.51-1.86.99-3.1 1.41v4.94c2.02-.75 3.1-1.5 3.1-2.09zm-2.67-8.76l-.3.19-.34.2-.28.17c-1.81 1-4.45 1.8-7.5 2.43l-.21.05-.98.19c-1.62.3-3.35.56-5.18.77l-.07.01h-.02a95 95 0 0 1-5.12.45h-.02a104.4 104.4 0 0 1-12.37 0c-5.18-.3-9.98-.99-13.73-1.95l-.5-.13-.34-.1c-.3-.07-.58-.16-.86-.24l-.1-.03c-.32-.1-.64-.2-.95-.32.2.7 1.78 1.59 4.5 2.43 3.65 1.13 9.36 2.16 16.6 2.48a138.04 138.04 0 0 0 4.66.1 119.62 119.62 0 0 0 3.55-.05l1.11-.05c7.24-.32 12.95-1.35 16.6-2.48 2.81-.87 4.4-1.8 4.51-2.5-.07-.25-.63-.9-2.66-1.62zm5.77-13.93v-4.26c-.83.51-1.87.99-3.1 1.42v4.93c2-.75 3.1-1.5 3.1-2.09z"/><linearGradient id="92r5b" x1="447.94" x2="480.06" y1="6914.19" y2="6858.5" gradientUnits="userSpaceOnUse"><stop offset="0" stop-color="#f5576c"/><stop offset="1" stop-color="#f461ec"/></linearGradient></defs><g><g transform="translate(-432 -6857)"><use fill="#fff" xlink:href="#92r5a"/><use fill="url(#92r5b)" xlink:href="#92r5a"/></g></g></svg>