<?xml version="1.0" encoding="UTF-8" standalone="no"?>
<svg
   xmlns:dc="http://purl.org/dc/elements/1.1/"
   xmlns:cc="http://creativecommons.org/ns#"
   xmlns:rdf="http://www.w3.org/1999/02/22-rdf-syntax-ns#"
   xmlns:svg="http://www.w3.org/2000/svg"
   xmlns="http://www.w3.org/2000/svg"
   xml:space="preserve"
   style="enable-background:new -205 272 200 249;"
   viewBox="-205 272 200 249"
   y="0px"
   x="0px"
   id="svg2"
   version="1.1"><metadata
     id="metadata37"><rdf:RDF><cc:Work
         rdf:about=""><dc:format>image/svg+xml</dc:format><dc:type
           rdf:resource="http://purl.org/dc/dcmitype/StillImage" /><dc:title></dc:title></cc:Work></rdf:RDF></metadata><defs
     id="defs35" /><style
     id="style3"
     type="text/css">
	.st0{fill:#CFCFCF;}
	.st1{fill:#0090E5;}
	.st2{fill:#FFFFFF;}
	.st3{fill:#00A0FF;}
	.st4{font-family:'Calibri';}
	.st5{font-size:170.1129px;}
	.st6{font-size:138.1807px;}
</style><g
     transform="translate(-0.5135063,-2.5623507e-7)"
     id="g4138"><path
       d="M-162,514.3l-6.5-6.8l6.8,6.5c6.3,6,7.2,7,6.5,7C-155.4,521-158.5,518-162,514.3z M-199.3,476.4   l-5.8-5.6l0.3-92.6l0.3-92.6l2.4-3.8c1.3-2.1,4.2-5,6.4-6.5l4.1-2.7h86.6h86.6l3.8,2.4c2.1,1.3,5,4.2,6.5,6.4l2.7,4.1V372v86.6   l-2.7,4.1c-1.5,2.2-4.4,5.1-6.5,6.4l-3.8,2.4l-91.9,0.3l-91.9,0.3l4.9,5C-190.8,483.8-192.1,483.3-199.3,476.4z M-45,352v-8h-60   h-60v8v8h60h60V352z"
       class="st0"
       id="path4144" /><path
       d="M-178.9,496.4l-23.4-23.9l23.3-0.3c12.8-0.1,23.5-0.1,23.7,0.1c0.2,0.2,0.2,11.1,0.1,24.2   l-0.3,23.8L-178.9,496.4z"
       class="st1"
       id="path4142" /><path
       d="M-128.5,415.4v-4.1h54.4h54.4v4.1v4.1h-54.4h-54.4C-128.5,419.6-128.5,415.4-128.5,415.4z"
       class="st2"
       id="path4140" /><path
       d="M-164.9,351.9v-7.7h59.8h59.8v7.7v7.7h-59.8h-59.8C-164.9,359.6-164.9,351.9-164.9,351.9z"
       class="st0"
       id="path4146" /><path
       d="M-203.8,471.9l-1.1-1.2l0.4-92.8l0.4-92.8l2.5-3.6c1.7-2.5,3.6-4.3,6.2-6.1l3.7-2.6h86.9h86.9   l2.5,1.6c3.4,2.1,5,3.7,7.7,7.5l2.3,3.1V372v86.9l-2.3,3.1c-2.7,3.8-4.3,5.3-8,7.7l-2.8,1.8h-84.9c-61.4,0-84.9,0.2-84.9,0.6   c0,0.4-1.9,0.5-6.4,0.2c-4.5-0.3-6.6-0.2-7.1,0.2C-202.5,473-203,472.8-203.8,471.9L-203.8,471.9z M-19.6,415.3V411h-54.7h-54.7   v4.4v4.4h54.7h54.7L-19.6,415.3L-19.6,415.3z M-44.7,351.9v-8.2l-60.2,0.1l-60.2,0.1l-0.1,7.4c-0.1,4.1,0,7.7,0.1,8.1   c0.2,0.5,11.6,0.7,60.4,0.7h60.1C-44.7,360.1-44.7,351.9-44.7,351.9z"
       class="st0"
       id="path4148" /><path
       d="M-203.9,471.8l-1.2-1.2l0.4-92.6l0.4-92.6l2.4-3.6c1.6-2.4,3.7-4.5,6-6.3l3.6-2.7l87.2,0l87.2,0   l2.4,1.6c3.4,2.3,5,3.9,7.6,7.4l2.3,3.1v86.9v86.9l-2,2.9c-2.3,3.4-5.6,6.6-8.8,8.5l-2.3,1.3l-84.7,0.4   c-100.5,0.4-97.9,0.4-98.6,0.9C-202.5,472.9-203.3,472.5-203.9,471.8z M-19.6,415.3V411h-54.7h-54.7v4.4v4.4h54.7h54.7L-19.6,415.3   L-19.6,415.3z M-44.7,351.9v-8.2l-60.2,0.1l-60.2,0.1l60,0.1l60,0.1v7.7v7.7l-58.9,0.1l-58.9,0.1l59.2,0.1l59.2,0.1V351.9z    M-165,354.4c-0.1-0.6-0.2-0.1-0.2,1.2c0,1.3,0.1,1.8,0.2,1.2C-164.9,356-164.9,355-165,354.4z"
       class="st0"
       id="path4150" /><path
       d="M-204,471.7l-1.1-1.1l0.4-92.5l0.4-92.5l1.1-1.8c2.1-3.4,4.6-6.2,7.8-8.5l3.2-2.3h87.2h87.2   l2,1.4c3.1,2,5.8,4.7,8,8l2,2.9v87v87l-1.6,2.3c-2.5,3.5-5,6-8.1,8.2l-2.8,1.9l-82.7,0.4c-45.5,0.2-87,0.5-92.3,0.7   C-202.8,472.9-203,472.8-204,471.7L-204,471.7z M-19.6,415.3V411h-54.7h-54.7v4.4v4.4h54.7h54.7L-19.6,415.3L-19.6,415.3z    M-44.7,351.9v-8.2l-28.4,0.1l-28.4,0.1l28.1,0.1l28.1,0.1v7.7v7.7l-43,0.1l-43,0.1L-88,360l43.3,0.1L-44.7,351.9L-44.7,351.9z"
       class="st0"
       id="path4152" /><path
       d="M-204,471.7l-1.1-1.2l0.3-92.8l0.3-92.8l2.5-3.4c1.4-1.9,4-4.6,6-6.1l3.5-2.7h87.4h87.4l2,1.4   c3,2,5.2,4.2,7.8,7.6l2.2,3v87.2v87.2l-1.6,2.3c-2.4,3.4-5,6-8.2,8.1l-2.8,1.9l-79.6,0.4c-43.8,0.2-85.4,0.5-92.3,0.7   C-202.9,472.9-202.9,472.9-204,471.7z M-19.6,415.3V411h-54.7h-54.7v4.4v4.4h54.7h54.7L-19.6,415.3L-19.6,415.3z M-44.7,351.9v-8.2   l-13,0.1l-13,0.1l12.7,0.1l12.7,0.1v7.7v7.7l-20.4,0.1l-20.4,0.1l20.7,0.1l20.7,0.1L-44.7,351.9L-44.7,351.9z"
       class="st0"
       id="path4154" /><path
       d="M-203.8,471.9l-1.1-1.2v-57.5c0-31.6,0.2-73.5,0.3-93l0.3-35.5l2.6-3.5c1.4-1.9,4.1-4.6,5.9-5.9   l3.2-2.5h87.4h87.4l2,1.4c3,2,5.2,4.2,7.8,7.6l2.2,3v87.1v87.1l-1.6,2.4c-1.8,2.8-6,6.9-9,8.8l-2,1.3l-63.9,0.3   c-69.2,0.4-119.7,0.8-120.2,1.1C-202.6,473-203.2,472.6-203.8,471.9z M-19.6,415.3V411h-54.7h-54.7v4.4v4.4h54.7h54.7L-19.6,415.3   L-19.6,415.3z M-44.7,351.9v-8.2l-5.8,0.1l-5.8,0.1l5.5,0.2l5.5,0.2v7.7v7.7l-11.9,0.1l-11.9,0.1l12.2,0.1l12.2,0.1L-44.7,351.9   L-44.7,351.9z"
       class="st0"
       id="path4156" /><path
       d="M-203.5,472.2l-1.4-1.4l0.1-74.9c0.1-41.2,0.2-83.1,0.4-93.2l0.3-18.2l2.5-3.2   c1.4-1.8,3.9-4.4,5.6-5.8l3.2-2.5l87.8,0l87.8,0l3,2.4c1.7,1.3,4.3,3.9,5.7,5.8l2.7,3.3l0,87.4l0,87.4l-2,2.7   c-2.3,3.1-6.2,6.9-8.8,8.4c-1.8,1.1-2,1.1-58.3,1.4c-90,0.5-126.8,0.9-127.1,1.4C-202,473.4-202.8,473-203.5,472.2L-203.5,472.2z    M-19.6,415.3V411h-54.7h-54.7v4.4v4.4h54.7h54.7L-19.6,415.3L-19.6,415.3z M-44.7,351.9v-8.2l-3,0.1l-3,0.1l2.7,0.2l2.7,0.2v7.7   v7.7l-6,0.2l-6,0.2l6.3,0.1l6.3,0.1L-44.7,351.9L-44.7,351.9z"
       class="st0"
       id="path4158" /><path
       d="M-45,352.2c0-4.5,0.1-6.3,0.2-4c0.1,2.3,0.1,6,0,8.2C-44.9,358.6-45,356.7-45,352.2L-45,352.2z"
       class="st0"
       id="path4160" /><path
       d="M-203.6,472.1l-1.3-1.4l0.1-76.5c0.1-42.1,0.2-84,0.4-93.2l0.3-16.8l2.3-3   c1.3-1.7,3.8-4.2,5.6-5.7l3.3-2.7l87.7,0l87.7,0l2.4,1.8c2.6,1.9,5.9,5.2,8,8l1.4,1.8v87.4v87.4l-1.8,2.4c-2.1,2.9-6.6,7.1-9,8.6   l-1.8,1.1l-89.8,0.6c-49.4,0.3-90.8,0.8-92,1C-202.1,473.4-202.4,473.4-203.6,472.1L-203.6,472.1z M-19.6,415.3V411h-54.7h-54.7   v4.4v4.4h54.7h54.7L-19.6,415.3L-19.6,415.3z M-44.7,351.9v-8.2l-1.7,0.1c-1.6,0.1-1.6,0.1-0.3,0.3l1.4,0.2v7.6v7.6l-3.5,0.2   l-3.5,0.2l3.7,0.1l3.7,0.1C-44.7,360.1-44.7,351.9-44.7,351.9z"
       class="st0"
       id="path4162" /><path
       d="M-203.7,472l-1.3-1.4l0.2-92.9l0.2-92.9l2.5-3.2c1.4-1.8,4-4.5,5.9-6l3.4-2.8h87.8h87.8l1.6,1.1   c2.4,1.7,6.3,5.5,8.3,8.2l1.8,2.4V372v87.4l-1.8,2.4c-2.1,2.9-6.5,7.1-9,8.6l-1.8,1.1l-87.1,0.6c-47.9,0.3-89.3,0.7-92.1,0.9   C-202.4,473.4-202.4,473.4-203.7,472L-203.7,472z M-19.6,415.3V411h-54.7h-54.7v4.4v4.4h54.7h54.7L-19.6,415.3L-19.6,415.3z    M-44.7,351.9c0-8.2,0-8.2-1.2-8.2c-0.9,0-0.9,0.1-0.3,0.3c0.8,0.2,0.9,1,0.9,7.9v7.6l-2.2,0.2l-2.2,0.2l2.4,0.1l2.4,0.1   L-44.7,351.9L-44.7,351.9z"
       class="st0"
       id="path4164" /><path
       d="M-203.7,472.1l-1.3-1.3l0-76.7c0-42.2,0.2-84.2,0.3-93.2l0.3-16.5l2.6-3.3   c1.4-1.8,4-4.4,5.7-5.7l3-2.4h87.9h87.9l1.5,1.1c2.6,1.9,6.4,5.7,8.2,8.2l1.8,2.4v87.4v87.4l-1.5,2.2c-1.8,2.6-7.7,8.2-9.8,9.3   c-1.3,0.7-13.1,0.8-85.9,1.3c-46.4,0.3-87.8,0.7-92,0.9l-7.6,0.3L-203.7,472.1L-203.7,472.1z M-19.6,415.3V411h-54.7h-54.7v4.4v4.4   h54.7h54.7L-19.6,415.3L-19.6,415.3z M-44.8,352.1c-0.1-6-0.3-8.1-0.8-8.2c-0.4-0.1-0.4,0-0.1,0.1c0.3,0.2,0.5,3.2,0.5,7.9v7.6   l-1.4,0.2c-1.3,0.2-1.3,0.2,0.3,0.3l1.7,0.1L-44.8,352.1L-44.8,352.1z"
       class="st0"
       id="path4166" /><path
       d="M-203.3,472.4l-1.6-1.7l0-80.6c0-44.3,0.2-86.3,0.3-93.3l0.3-12.7l2.7-3.3   c1.5-1.8,4-4.3,5.6-5.6l2.9-2.4h88h88l2.5,2c2.5,2,5.1,4.6,7.5,7.7l1.4,1.7v87.7v87.7l-2,2.5c-2.4,3-7.4,7.6-9.3,8.6   c-1.2,0.6-13.5,0.8-76.8,1.2c-83.4,0.6-107.1,0.9-107.6,1.6C-201.5,473.9-202.4,473.4-203.3,472.4L-203.3,472.4z M-19.6,415.3V411   h-54.7h-54.7v4.4v4.4h54.7h54.7L-19.6,415.3L-19.6,415.3z M-44.8,356.4l-0.1-3.7l-0.2,3.4c-0.1,2.7-0.4,3.5-1.1,3.7   c-0.6,0.2-0.6,0.2,0.3,0.3C-44.8,360.1-44.7,360-44.8,356.4z"
       class="st0"
       id="path4168" /><path
       d="M-203.3,472.4l-1.6-1.7l0-86.8c0-47.7,0.1-87.2,0.2-87.8s0.2-3.5,0.2-6.4l0-5.4l2.4-3   c1.3-1.7,3.9-4.3,5.7-5.8l3.2-2.7h88.2h88.2l3.5,3.2c1.9,1.8,4.4,4.3,5.5,5.7l2,2.5V372v87.7l-2,2.5c-2.6,3.3-7.2,7.5-9.2,8.6   c-1.4,0.7-9.4,0.9-72.9,1.3c-82.3,0.6-110,1-111.2,1.6C-201.5,474-202.1,473.6-203.3,472.4L-203.3,472.4z M-19.6,415.3V411h-54.7   h-54.7v4.4v4.4h54.7h54.7L-19.6,415.3L-19.6,415.3z M-44.9,358.3c0.1-1.3,0-1.3-0.2-0.2c-0.1,0.7-0.5,1.5-0.9,1.7   c-0.4,0.3-0.3,0.4,0.2,0.2C-45.3,359.9-44.9,359.2-44.9,358.3z"
       class="st0"
       id="path4170" /><path
       d="M-203.5,472.2l-1.7-1.9l0.3-92.7c0.2-89.8,0.3-92.8,1.2-94.2c0.5-0.8,3-3.5,5.5-6l4.6-4.5h88.6   h88.6l5.3,5.4l5.3,5.4v88.3v88.3l-4.2,4.5c-2.3,2.4-5.1,5-6.3,5.7l-2.1,1.3l-67.5,0.5c-83.1,0.6-111.6,1-114.1,1.6   C-201.6,474-201.9,473.9-203.5,472.2L-203.5,472.2z M-19.6,415.3V411h-54.7h-54.7v4.4v4.4h54.7h54.7L-19.6,415.3L-19.6,415.3z"
       class="st0"
       id="path4172" /><path
       d="M-203.5,472.1l-1.7-1.8l0.3-92.7c0.3-89.8,0.3-92.8,1.2-94.2c0.5-0.8,3-3.5,5.5-6l4.6-4.5   l88.7,0l88.7,0l5.3,5.4l5.3,5.4v88.3v88.3l-4.2,4.4c-2.3,2.4-5.1,5-6.3,5.7l-2.1,1.2l-63.9,0.5c-82.8,0.7-114.2,1.1-117.2,1.5   C-201.7,474-201.9,473.9-203.5,472.1z M-19.6,415.3V411h-54.7h-54.7v4.4v4.4h54.7h54.7L-19.6,415.3L-19.6,415.3z"
       class="st0"
       id="path4174" /><path
       d="M-203.5,472.3l-1.6-1.7l0.1-86.2c0.1-47.4,0.3-89.3,0.4-93.1c0.4-8.2,0.5-8.6,7-14.7l4.1-3.8   h88.7h88.7l5.3,5.3l5.3,5.3v88.4v88.4l-4,4.2c-2.2,2.3-4.9,4.8-6.1,5.6l-2.1,1.5l-61,0.5c-83.2,0.7-115.3,1.1-119.5,1.5   C-201.9,473.9-201.9,473.9-203.5,472.3L-203.5,472.3z M-19.6,415.3V411h-54.7h-54.7v4.4v4.4h54.7h54.7L-19.6,415.3L-19.6,415.3z"
       class="st0"
       id="path4176" /><path
       d="M-203.2,472.6l-2.1-2l0.2-79c0.3-103,0.3-106.5,1.5-108.4c0.5-0.8,2.9-3.4,5.3-5.9l4.4-4.5h88.9   h88.9l5.3,5.3l5.3,5.3V372v88.6l-4.2,4.2c-2.3,2.3-5.1,4.8-6.1,5.5l-1.8,1.3l-64.7,0.5c-84.7,0.7-117.8,1.2-118.3,2   C-201,474.4-201.9,473.9-203.2,472.6z M-19.6,415.3V411h-54.7h-54.7v4.4v4.4h54.7h54.7L-19.6,415.3L-19.6,415.3z"
       class="st0"
       id="path4178" /><path
       d="M-203.3,472.6l-2.2-2l0.3-84.4c0.3-90.5,0.4-101,1.3-102.8c0.3-0.6,2.7-3.3,5.2-5.9l4.6-4.7   h88.9h88.9l5.3,5.3l5.3,5.3V372v88.6l-4.5,4.5c-2.5,2.5-5.2,5-6.1,5.5c-1.5,1-3.3,1-56.7,1.5c-111.4,1-126.4,1.2-127.6,2.1   C-200.9,474.4-202,473.8-203.3,472.6z M-19.6,415.3V411h-54.7h-54.7v4.4v4.4h54.7h54.7L-19.6,415.3L-19.6,415.3z"
       class="st0"
       id="path4180" /><path
       d="M-203.3,472.7l-2.2-1.8l0.3-87.6c0.3-88,0.5-98,1.5-99.9c0.3-0.6,2.6-3.2,5.2-5.8l4.6-4.7h88.9   h88.9l5.3,5.3l5.3,5.3V372v88.6l-4.5,4.5c-2.5,2.5-5.2,5-6.1,5.5c-1.6,1-3,1-58.3,1.5c-81.4,0.7-124.5,1.4-125.6,2   C-200.9,474.5-201.6,474.2-203.3,472.7L-203.3,472.7z M-19.6,415.3V411h-54.7h-54.7v4.4v4.4h54.7h54.7L-19.6,415.3L-19.6,415.3z"
       class="st0"
       id="path4182" /><path
       d="M-203.4,472.7l-2.2-1.9l0.3-89.1c0.2-49,0.5-91,0.7-93.2c0.2-2.3,0.5-4.6,0.8-5.1   c0.3-0.6,2.6-3.2,5.2-5.8l4.6-4.7h88.9h88.9l5.2,5.3l5.2,5.3v88.6v88.6l-4.2,4.3c-2.3,2.4-5.1,4.9-6.1,5.6l-1.9,1.2l-53.1,0.5   c-79.3,0.7-127.6,1.5-129,2C-201,474.5-201.6,474.3-203.4,472.7L-203.4,472.7z M-19.6,415.3V411h-54.7h-54.7v4.4v4.4h54.7h54.7   L-19.6,415.3L-19.6,415.3z"
       class="st0"
       id="path4184" /><path
       d="M-203.4,472.7l-2.1-1.8l0.1-56.1c0.2-96.1,0.6-129.8,1.4-131.3c0.4-0.7,2.8-3.4,5.4-6l4.6-4.7   h88.9h88.9l5.2,5.2l5.2,5.2V372v88.6l-4.1,4.2c-2.3,2.3-5,4.8-6.1,5.5l-2,1.3l-49.7,0.5c-72.8,0.7-129,1.5-131.5,2   C-201.1,474.5-201.5,474.4-203.4,472.7z M-19.6,415.3V411h-54.7h-54.7v4.4v4.4h54.7h54.7L-19.6,415.3L-19.6,415.3z"
       class="st3"
       id="path4186" /><text
       y="385.17001"
       x="-172.60825"
       style="font-style:normal;font-variant:normal;font-weight:normal;font-stretch:normal;font-size:195.42753601px;font-family:Gabriola;-inkscape-font-specification:Gabriola;fill:#ffffff"
       id="text31"
       class="st2 st4 st5"
       transform="scale(1.0278161,0.97293674)"><tspan
         id="tspan4165"
         style="font-style:normal;font-variant:normal;font-weight:normal;font-stretch:normal;font-family:Gabriola;-inkscape-font-specification:Gabriola">y</tspan></text>
<text
       transform="scale(1.1747204,0.85126639)"
       id="text4167"
       y="475.5993"
       x="-97.497993"
       style="font-style:normal;font-variant:normal;font-weight:normal;font-stretch:normal;font-size:181.12460327px;line-height:125%;font-family:Gabriola;-inkscape-font-specification:Gabriola;letter-spacing:0px;word-spacing:0px;fill:#ffffff;fill-opacity:1;stroke:none;stroke-width:1px;stroke-linecap:butt;stroke-linejoin:miter;stroke-opacity:1"
       xml:space="preserve"><tspan
         y="475.5993"
         x="-97.497993"
         id="tspan4169">k</tspan></text>
</g></svg>