<svg xmlns="http://www.w3.org/2000/svg" xmlns:xlink="http://www.w3.org/1999/xlink" width="28" height="29" viewBox="0 0 28 29"><defs><path id="qd0ia" d="M1381.92 54.7c0 5.7-3.48 16.57-8.93 16.57-5.46 0-8.94-10.88-8.94-16.57 0-4.95 4.01-8.98 8.94-8.98a8.97 8.97 0 0 1 8.93 8.98zm-2.18 0c0-3.74-3.03-6.79-6.75-6.79a6.78 6.78 0 0 0-6.76 6.8c0 5.8 3.56 14.37 6.76 14.37 3.2 0 6.75-8.57 6.75-14.38zm5.66 15.48c0 .6-.49 1.1-1.09 1.1h-5.17a1.1 1.1 0 0 1-1.09-1.1c0-.6.49-1.1 1.09-1.1h5.17c.6 0 1.09.5 1.09 1.1zm-17.48 0c0 .6-.48 1.1-1.09 1.1h-5.17a1.1 1.1 0 0 1-1.09-1.1c0-.6.49-1.1 1.1-1.1h5.16c.6 0 1.1.5 1.1 1.1zm8.63-15.3c0 1.98-1.6 3.59-3.56 3.59a3.58 3.58 0 0 1 0-7.17c1.96 0 3.56 1.6 3.56 3.58zm-2.18 0c0-.77-.62-1.4-1.38-1.4a1.4 1.4 0 0 0 0 2.8 1.4 1.4 0 0 0 1.38-1.4z"/></defs><g><g transform="translate(-1359 -44)"><use xlink:href="#qd0ia"/></g></g></svg>