<svg xmlns="http://www.w3.org/2000/svg" xmlns:xlink="http://www.w3.org/1999/xlink" width="20" height="20" viewBox="0 0 20 20"><defs><path id="vivfa" d="M1466.33 148.52h-10.65v4.32h9.63zm.69-2.16c1.05 0 1.82.99 1.57 2.01l-1.28 5.38a1.62 1.62 0 0 1-1.57 1.25h-10.06v2.16h10.8a1.08 1.08 0 0 1 0 2.16h-11.34c-.9 0-1.62-.73-1.62-1.62v-9.18h-1.08a1.08 1.08 0 0 1 0-2.16zm-9.18 15.66a1.62 1.62 0 1 1-3.24 0 1.62 1.62 0 0 1 3.24 0zm8.64 0a1.62 1.62 0 1 1-3.24 0 1.62 1.62 0 0 1 3.24 0z"/></defs><g><g transform="translate(-1450 -145)"><use xlink:href="#vivfa"/></g></g></svg>